<?xml version="1.0" encoding="UTF-8"?>
<!DOCTYPE svg PUBLIC "-//W3C//DTD SVG 1.1//EN" "http://www.w3.org/Graphics/SVG/1.1/DTD/svg11.dtd">
<svg xmlns="http://www.w3.org/2000/svg" version="1.1" width="512px" height="512px" style="shape-rendering:geometricPrecision; text-rendering:geometricPrecision; image-rendering:optimizeQuality; fill-rule:evenodd; clip-rule:evenodd" xmlns:xlink="http://www.w3.org/1999/xlink">
<g><path style="opacity:0.762" fill="#000000" d="M 425.5,-0.5 C 430.167,-0.5 434.833,-0.5 439.5,-0.5C 439.5,4.5 439.5,9.5 439.5,14.5C 444.5,14.5 449.5,14.5 454.5,14.5C 454.5,19.1667 454.5,23.8333 454.5,28.5C 444.833,28.5 435.167,28.5 425.5,28.5C 420.5,28.5 415.5,28.5 410.5,28.5C 410.5,23.8333 410.5,19.1667 410.5,14.5C 415.5,14.5 420.5,14.5 425.5,14.5C 425.5,9.5 425.5,4.5 425.5,-0.5 Z"/></g>
<g><path style="opacity:1" fill="#2c0e0c" d="M 454.5,14.5 C 468.833,14.5 483.167,14.5 497.5,14.5C 497.5,19.1667 497.5,23.8333 497.5,28.5C 483.167,28.5 468.833,28.5 454.5,28.5C 454.5,23.8333 454.5,19.1667 454.5,14.5 Z"/></g>
<g><path style="opacity:1" fill="#020101" d="M 497.5,14.5 C 502.167,14.5 506.833,14.5 511.5,14.5C 511.5,47.5 511.5,80.5 511.5,113.5C 507.167,113.5 502.833,113.5 498.5,113.5C 498.5,124.5 498.5,135.5 498.5,146.5C 493.5,146.5 488.5,146.5 483.5,146.5C 483.5,141.5 483.5,136.5 483.5,131.5C 483.5,126.5 483.5,121.5 483.5,116.5C 478.833,116.5 474.167,116.5 469.5,116.5C 469.5,111.833 469.5,107.167 469.5,102.5C 474.167,102.5 478.833,102.5 483.5,102.5C 488.167,102.5 492.833,102.5 497.5,102.5C 497.5,92.5 497.5,82.5 497.5,72.5C 497.5,67.8333 497.5,63.1667 497.5,58.5C 497.5,48.5 497.5,38.5 497.5,28.5C 497.5,23.8333 497.5,19.1667 497.5,14.5 Z"/></g>
<g><path style="opacity:0.987" fill="#010101" d="M 410.5,28.5 C 410.5,33.5 410.5,38.5 410.5,43.5C 405.5,43.5 400.5,43.5 395.5,43.5C 390.833,43.5 386.167,43.5 381.5,43.5C 381.5,48.5 381.5,53.5 381.5,58.5C 376.5,58.5 371.5,58.5 366.5,58.5C 361.5,58.5 356.5,58.5 351.5,58.5C 346.833,58.5 342.167,58.5 337.5,58.5C 337.5,53.5 337.5,48.5 337.5,43.5C 347.167,43.5 356.833,43.5 366.5,43.5C 366.5,38.5 366.5,33.5 366.5,28.5C 381.167,28.5 395.833,28.5 410.5,28.5 Z"/></g>
<g><path style="opacity:1" fill="#270d0a" d="M 410.5,28.5 C 415.5,28.5 420.5,28.5 425.5,28.5C 425.5,33.5 425.5,38.5 425.5,43.5C 420.5,43.5 415.5,43.5 410.5,43.5C 410.5,38.5 410.5,33.5 410.5,28.5 Z"/></g>
<g><path style="opacity:1" fill="#fb5047" d="M 425.5,28.5 C 435.167,28.5 444.833,28.5 454.5,28.5C 468.833,28.5 483.167,28.5 497.5,28.5C 497.5,38.5 497.5,48.5 497.5,58.5C 492.833,58.5 488.167,58.5 483.5,58.5C 483.5,63.1667 483.5,67.8333 483.5,72.5C 483.5,82.5 483.5,92.5 483.5,102.5C 478.833,102.5 474.167,102.5 469.5,102.5C 469.5,97.5 469.5,92.5 469.5,87.5C 464.5,87.5 459.5,87.5 454.5,87.5C 454.5,82.5 454.5,77.5 454.5,72.5C 449.5,72.5 444.5,72.5 439.5,72.5C 439.5,67.8333 439.5,63.1667 439.5,58.5C 434.833,58.5 430.167,58.5 425.5,58.5C 425.5,53.5 425.5,48.5 425.5,43.5C 425.5,38.5 425.5,33.5 425.5,28.5 Z"/></g>
<g><path style="opacity:1" fill="#bebfbe" d="M 395.5,43.5 C 395.5,48.5 395.5,53.5 395.5,58.5C 390.833,58.5 386.167,58.5 381.5,58.5C 381.5,53.5 381.5,48.5 381.5,43.5C 386.167,43.5 390.833,43.5 395.5,43.5 Z"/></g>
<g><path style="opacity:1" fill="#343534" d="M 395.5,43.5 C 400.5,43.5 405.5,43.5 410.5,43.5C 410.5,48.5 410.5,53.5 410.5,58.5C 405.5,58.5 400.5,58.5 395.5,58.5C 395.5,53.5 395.5,48.5 395.5,43.5 Z"/></g>
<g><path style="opacity:1" fill="#180806" d="M 410.5,43.5 C 415.5,43.5 420.5,43.5 425.5,43.5C 425.5,48.5 425.5,53.5 425.5,58.5C 420.5,58.5 415.5,58.5 410.5,58.5C 410.5,53.5 410.5,48.5 410.5,43.5 Z"/></g>
<g><path style="opacity:1" fill="#000000" d="M 337.5,58.5 C 337.5,63.1667 337.5,67.8333 337.5,72.5C 332.5,72.5 327.5,72.5 322.5,72.5C 317.5,72.5 312.5,72.5 307.5,72.5C 307.5,67.8333 307.5,63.1667 307.5,58.5C 317.5,58.5 327.5,58.5 337.5,58.5 Z"/></g>
<g><path style="opacity:1" fill="#464746" d="M 337.5,58.5 C 342.167,58.5 346.833,58.5 351.5,58.5C 351.5,63.1667 351.5,67.8333 351.5,72.5C 346.833,72.5 342.167,72.5 337.5,72.5C 337.5,67.8333 337.5,63.1667 337.5,58.5 Z"/></g>
<g><path style="opacity:1" fill="#b8b9b8" d="M 351.5,58.5 C 356.5,58.5 361.5,58.5 366.5,58.5C 366.5,63.1667 366.5,67.8333 366.5,72.5C 361.5,72.5 356.5,72.5 351.5,72.5C 351.5,67.8333 351.5,63.1667 351.5,58.5 Z"/></g>
<g><path style="opacity:1" fill="#fdfdfd" d="M 366.5,58.5 C 371.5,58.5 376.5,58.5 381.5,58.5C 386.167,58.5 390.833,58.5 395.5,58.5C 400.5,58.5 405.5,58.5 410.5,58.5C 410.5,63.1667 410.5,67.8333 410.5,72.5C 415.5,72.5 420.5,72.5 425.5,72.5C 425.5,77.5 425.5,82.5 425.5,87.5C 430.167,87.5 434.833,87.5 439.5,87.5C 439.5,92.5 439.5,97.5 439.5,102.5C 444.5,102.5 449.5,102.5 454.5,102.5C 454.5,107.167 454.5,111.833 454.5,116.5C 459.5,116.5 464.5,116.5 469.5,116.5C 469.5,121.5 469.5,126.5 469.5,131.5C 469.5,136.5 469.5,141.5 469.5,146.5C 469.5,151.167 469.5,155.833 469.5,160.5C 464.5,160.5 459.5,160.5 454.5,160.5C 454.5,165.5 454.5,170.5 454.5,175.5C 454.5,180.5 454.5,185.5 454.5,190.5C 449.5,190.5 444.5,190.5 439.5,190.5C 439.5,195.167 439.5,199.833 439.5,204.5C 434.833,204.5 430.167,204.5 425.5,204.5C 425.5,209.5 425.5,214.5 425.5,219.5C 425.5,224.5 425.5,229.5 425.5,234.5C 420.5,234.5 415.5,234.5 410.5,234.5C 410.5,239.167 410.5,243.833 410.5,248.5C 405.5,248.5 400.5,248.5 395.5,248.5C 395.5,253.5 395.5,258.5 395.5,263.5C 390.833,263.5 386.167,263.5 381.5,263.5C 381.5,268.5 381.5,273.5 381.5,278.5C 376.5,278.5 371.5,278.5 366.5,278.5C 361.5,278.5 356.5,278.5 351.5,278.5C 351.5,283.167 351.5,287.833 351.5,292.5C 346.833,292.5 342.167,292.5 337.5,292.5C 337.5,297.5 337.5,302.5 337.5,307.5C 332.5,307.5 327.5,307.5 322.5,307.5C 317.5,307.5 312.5,307.5 307.5,307.5C 307.5,312.5 307.5,317.5 307.5,322.5C 302.5,322.5 297.5,322.5 292.5,322.5C 292.5,317.5 292.5,312.5 292.5,307.5C 287.833,307.5 283.167,307.5 278.5,307.5C 278.5,302.5 278.5,297.5 278.5,292.5C 273.5,292.5 268.5,292.5 263.5,292.5C 263.5,287.833 263.5,283.167 263.5,278.5C 268.5,278.5 273.5,278.5 278.5,278.5C 278.5,268.5 278.5,258.5 278.5,248.5C 268.5,248.5 258.5,248.5 248.5,248.5C 248.5,253.5 248.5,258.5 248.5,263.5C 243.833,263.5 239.167,263.5 234.5,263.5C 234.5,258.5 234.5,253.5 234.5,248.5C 229.5,248.5 224.5,248.5 219.5,248.5C 219.5,243.833 219.5,239.167 219.5,234.5C 214.5,234.5 209.5,234.5 204.5,234.5C 204.5,229.5 204.5,224.5 204.5,219.5C 209.5,219.5 214.5,219.5 219.5,219.5C 219.5,214.5 219.5,209.5 219.5,204.5C 219.5,199.833 219.5,195.167 219.5,190.5C 224.5,190.5 229.5,190.5 234.5,190.5C 234.5,185.5 234.5,180.5 234.5,175.5C 234.5,170.5 234.5,165.5 234.5,160.5C 239.167,160.5 243.833,160.5 248.5,160.5C 248.5,155.833 248.5,151.167 248.5,146.5C 253.5,146.5 258.5,146.5 263.5,146.5C 263.5,141.5 263.5,136.5 263.5,131.5C 268.5,131.5 273.5,131.5 278.5,131.5C 278.5,126.5 278.5,121.5 278.5,116.5C 283.167,116.5 287.833,116.5 292.5,116.5C 292.5,111.833 292.5,107.167 292.5,102.5C 297.5,102.5 302.5,102.5 307.5,102.5C 307.5,97.5 307.5,92.5 307.5,87.5C 312.5,87.5 317.5,87.5 322.5,87.5C 327.5,87.5 332.5,87.5 337.5,87.5C 337.5,82.5 337.5,77.5 337.5,72.5C 342.167,72.5 346.833,72.5 351.5,72.5C 356.5,72.5 361.5,72.5 366.5,72.5C 366.5,67.8333 366.5,63.1667 366.5,58.5 Z"/></g>
<g><path style="opacity:1" fill="#383938" d="M 410.5,58.5 C 415.5,58.5 420.5,58.5 425.5,58.5C 425.5,63.1667 425.5,67.8333 425.5,72.5C 420.5,72.5 415.5,72.5 410.5,72.5C 410.5,67.8333 410.5,63.1667 410.5,58.5 Z"/></g>
<g><path style="opacity:1" fill="#140705" d="M 425.5,58.5 C 430.167,58.5 434.833,58.5 439.5,58.5C 439.5,63.1667 439.5,67.8333 439.5,72.5C 434.833,72.5 430.167,72.5 425.5,72.5C 425.5,67.8333 425.5,63.1667 425.5,58.5 Z"/></g>
<g><path style="opacity:1" fill="#e44a41" d="M 497.5,58.5 C 497.5,63.1667 497.5,67.8333 497.5,72.5C 492.833,72.5 488.167,72.5 483.5,72.5C 483.5,67.8333 483.5,63.1667 483.5,58.5C 488.167,58.5 492.833,58.5 497.5,58.5 Z"/></g>
<g><path style="opacity:1" fill="#000000" d="M 307.5,72.5 C 307.5,77.5 307.5,82.5 307.5,87.5C 302.5,87.5 297.5,87.5 292.5,87.5C 292.5,82.5 292.5,77.5 292.5,72.5C 297.5,72.5 302.5,72.5 307.5,72.5 Z"/></g>
<g><path style="opacity:1" fill="#303130" d="M 307.5,72.5 C 312.5,72.5 317.5,72.5 322.5,72.5C 322.5,77.5 322.5,82.5 322.5,87.5C 317.5,87.5 312.5,87.5 307.5,87.5C 307.5,82.5 307.5,77.5 307.5,72.5 Z"/></g>
<g><path style="opacity:1" fill="#c6c7c6" d="M 322.5,72.5 C 327.5,72.5 332.5,72.5 337.5,72.5C 337.5,77.5 337.5,82.5 337.5,87.5C 332.5,87.5 327.5,87.5 322.5,87.5C 322.5,82.5 322.5,77.5 322.5,72.5 Z"/></g>
<g><path style="opacity:1" fill="#2e2f2e" d="M 425.5,72.5 C 430.167,72.5 434.833,72.5 439.5,72.5C 439.5,77.5 439.5,82.5 439.5,87.5C 434.833,87.5 430.167,87.5 425.5,87.5C 425.5,82.5 425.5,77.5 425.5,72.5 Z"/></g>
<g><path style="opacity:1" fill="#000000" d="M 439.5,72.5 C 444.5,72.5 449.5,72.5 454.5,72.5C 454.5,77.5 454.5,82.5 454.5,87.5C 449.5,87.5 444.5,87.5 439.5,87.5C 439.5,82.5 439.5,77.5 439.5,72.5 Z"/></g>
<g><path style="opacity:1" fill="#000000" d="M 292.5,87.5 C 292.5,92.5 292.5,97.5 292.5,102.5C 287.833,102.5 283.167,102.5 278.5,102.5C 278.5,97.5 278.5,92.5 278.5,87.5C 283.167,87.5 287.833,87.5 292.5,87.5 Z"/></g>
<g><path style="opacity:1" fill="#323332" d="M 292.5,87.5 C 297.5,87.5 302.5,87.5 307.5,87.5C 307.5,92.5 307.5,97.5 307.5,102.5C 302.5,102.5 297.5,102.5 292.5,102.5C 292.5,97.5 292.5,92.5 292.5,87.5 Z"/></g>
<g><path style="opacity:1" fill="#181918" d="M 439.5,87.5 C 444.5,87.5 449.5,87.5 454.5,87.5C 454.5,92.5 454.5,97.5 454.5,102.5C 449.5,102.5 444.5,102.5 439.5,102.5C 439.5,97.5 439.5,92.5 439.5,87.5 Z"/></g>
<g><path style="opacity:1" fill="#000000" d="M 454.5,87.5 C 459.5,87.5 464.5,87.5 469.5,87.5C 469.5,92.5 469.5,97.5 469.5,102.5C 464.5,102.5 459.5,102.5 454.5,102.5C 454.5,97.5 454.5,92.5 454.5,87.5 Z"/></g>
<g><path style="opacity:1" fill="#a5352f" d="M 483.5,72.5 C 488.167,72.5 492.833,72.5 497.5,72.5C 497.5,82.5 497.5,92.5 497.5,102.5C 492.833,102.5 488.167,102.5 483.5,102.5C 483.5,92.5 483.5,82.5 483.5,72.5 Z"/></g>
<g><path style="opacity:1" fill="#000000" d="M 278.5,102.5 C 278.5,107.167 278.5,111.833 278.5,116.5C 273.5,116.5 268.5,116.5 263.5,116.5C 263.5,111.833 263.5,107.167 263.5,102.5C 268.5,102.5 273.5,102.5 278.5,102.5 Z"/></g>
<g><path style="opacity:1" fill="#585958" d="M 278.5,102.5 C 283.167,102.5 287.833,102.5 292.5,102.5C 292.5,107.167 292.5,111.833 292.5,116.5C 287.833,116.5 283.167,116.5 278.5,116.5C 278.5,111.833 278.5,107.167 278.5,102.5 Z"/></g>
<g><path style="opacity:1" fill="#949594" d="M 351.5,102.5 C 351.5,107.167 351.5,111.833 351.5,116.5C 346.833,116.5 342.167,116.5 337.5,116.5C 337.5,111.833 337.5,107.167 337.5,102.5C 342.167,102.5 346.833,102.5 351.5,102.5 Z"/></g>
<g><path style="opacity:1" fill="#17191a" d="M 351.5,102.5 C 366.167,102.5 380.833,102.5 395.5,102.5C 395.5,107.167 395.5,111.833 395.5,116.5C 400.5,116.5 405.5,116.5 410.5,116.5C 410.5,121.5 410.5,126.5 410.5,131.5C 410.5,136.5 410.5,141.5 410.5,146.5C 405.5,146.5 400.5,146.5 395.5,146.5C 395.5,141.5 395.5,136.5 395.5,131.5C 390.833,131.5 386.167,131.5 381.5,131.5C 381.5,126.5 381.5,121.5 381.5,116.5C 376.5,116.5 371.5,116.5 366.5,116.5C 361.5,116.5 356.5,116.5 351.5,116.5C 351.5,111.833 351.5,107.167 351.5,102.5 Z"/></g>
<g><path style="opacity:1" fill="#272827" d="M 454.5,102.5 C 459.5,102.5 464.5,102.5 469.5,102.5C 469.5,107.167 469.5,111.833 469.5,116.5C 464.5,116.5 459.5,116.5 454.5,116.5C 454.5,111.833 454.5,107.167 454.5,102.5 Z"/></g>
<g><path style="opacity:0.977" fill="#000000" d="M 219.5,131.5 C 204.833,131.5 190.167,131.5 175.5,131.5C 175.5,126.5 175.5,121.5 175.5,116.5C 190.167,116.5 204.833,116.5 219.5,116.5C 219.5,121.5 219.5,126.5 219.5,131.5 Z"/></g>
<g><path style="opacity:1" fill="#000000" d="M 263.5,116.5 C 263.5,121.5 263.5,126.5 263.5,131.5C 258.5,131.5 253.5,131.5 248.5,131.5C 248.5,126.5 248.5,121.5 248.5,116.5C 253.5,116.5 258.5,116.5 263.5,116.5 Z"/></g>
<g><path style="opacity:1" fill="#6e6f6e" d="M 263.5,116.5 C 268.5,116.5 273.5,116.5 278.5,116.5C 278.5,121.5 278.5,126.5 278.5,131.5C 273.5,131.5 268.5,131.5 263.5,131.5C 263.5,126.5 263.5,121.5 263.5,116.5 Z"/></g>
<g><path style="opacity:1" fill="#858685" d="M 337.5,116.5 C 337.5,121.5 337.5,126.5 337.5,131.5C 332.5,131.5 327.5,131.5 322.5,131.5C 322.5,126.5 322.5,121.5 322.5,116.5C 327.5,116.5 332.5,116.5 337.5,116.5 Z"/></g>
<g><path style="opacity:1" fill="#000000" d="M 337.5,116.5 C 342.167,116.5 346.833,116.5 351.5,116.5C 351.5,121.5 351.5,126.5 351.5,131.5C 346.833,131.5 342.167,131.5 337.5,131.5C 337.5,126.5 337.5,121.5 337.5,116.5 Z"/></g>
<g><path style="opacity:1" fill="#2e5155" d="M 351.5,116.5 C 356.5,116.5 361.5,116.5 366.5,116.5C 366.5,121.5 366.5,126.5 366.5,131.5C 361.5,131.5 356.5,131.5 351.5,131.5C 351.5,126.5 351.5,121.5 351.5,116.5 Z"/></g>
<g><path style="opacity:1" fill="#53919b" d="M 366.5,116.5 C 371.5,116.5 376.5,116.5 381.5,116.5C 381.5,121.5 381.5,126.5 381.5,131.5C 376.5,131.5 371.5,131.5 366.5,131.5C 366.5,126.5 366.5,121.5 366.5,116.5 Z"/></g>
<g><path style="opacity:1" fill="#373837" d="M 469.5,116.5 C 474.167,116.5 478.833,116.5 483.5,116.5C 483.5,121.5 483.5,126.5 483.5,131.5C 478.833,131.5 474.167,131.5 469.5,131.5C 469.5,126.5 469.5,121.5 469.5,116.5 Z"/></g>
<g><path style="opacity:1" fill="#000000" d="M 160.5,131.5 C 160.5,136.5 160.5,141.5 160.5,146.5C 155.833,146.5 151.167,146.5 146.5,146.5C 146.5,141.5 146.5,136.5 146.5,131.5C 151.167,131.5 155.833,131.5 160.5,131.5 Z"/></g>
<g><path style="opacity:1" fill="#220b09" d="M 160.5,131.5 C 165.5,131.5 170.5,131.5 175.5,131.5C 175.5,136.5 175.5,141.5 175.5,146.5C 170.5,146.5 165.5,146.5 160.5,146.5C 160.5,141.5 160.5,136.5 160.5,131.5 Z"/></g>
<g><path style="opacity:1" fill="#7b2723" d="M 175.5,131.5 C 190.167,131.5 204.833,131.5 219.5,131.5C 219.5,136.5 219.5,141.5 219.5,146.5C 204.833,146.5 190.167,146.5 175.5,146.5C 175.5,141.5 175.5,136.5 175.5,131.5 Z"/></g>
<g><path style="opacity:1" fill="#050303" d="M 219.5,131.5 C 229.167,131.5 238.833,131.5 248.5,131.5C 248.5,136.5 248.5,141.5 248.5,146.5C 243.833,146.5 239.167,146.5 234.5,146.5C 234.5,151.167 234.5,155.833 234.5,160.5C 234.5,165.5 234.5,170.5 234.5,175.5C 229.5,175.5 224.5,175.5 219.5,175.5C 219.5,170.5 219.5,165.5 219.5,160.5C 219.5,155.833 219.5,151.167 219.5,146.5C 219.5,141.5 219.5,136.5 219.5,131.5 Z"/></g>
<g><path style="opacity:1" fill="#585958" d="M 248.5,131.5 C 253.5,131.5 258.5,131.5 263.5,131.5C 263.5,136.5 263.5,141.5 263.5,146.5C 258.5,146.5 253.5,146.5 248.5,146.5C 248.5,141.5 248.5,136.5 248.5,131.5 Z"/></g>
<g><path style="opacity:1" fill="#000000" d="M 322.5,131.5 C 327.5,131.5 332.5,131.5 337.5,131.5C 337.5,136.5 337.5,141.5 337.5,146.5C 337.5,151.167 337.5,155.833 337.5,160.5C 337.5,165.5 337.5,170.5 337.5,175.5C 332.5,175.5 327.5,175.5 322.5,175.5C 322.5,160.833 322.5,146.167 322.5,131.5 Z"/></g>
<g><path style="opacity:1" fill="#3c6970" d="M 337.5,131.5 C 342.167,131.5 346.833,131.5 351.5,131.5C 351.5,136.5 351.5,141.5 351.5,146.5C 346.833,146.5 342.167,146.5 337.5,146.5C 337.5,141.5 337.5,136.5 337.5,131.5 Z"/></g>
<g><path style="opacity:1" fill="#7ad7e7" d="M 351.5,131.5 C 356.5,131.5 361.5,131.5 366.5,131.5C 371.5,131.5 376.5,131.5 381.5,131.5C 386.167,131.5 390.833,131.5 395.5,131.5C 395.5,136.5 395.5,141.5 395.5,146.5C 395.5,151.167 395.5,155.833 395.5,160.5C 395.5,165.5 395.5,170.5 395.5,175.5C 390.833,175.5 386.167,175.5 381.5,175.5C 381.5,180.5 381.5,185.5 381.5,190.5C 376.5,190.5 371.5,190.5 366.5,190.5C 366.5,185.5 366.5,180.5 366.5,175.5C 361.5,175.5 356.5,175.5 351.5,175.5C 351.5,170.5 351.5,165.5 351.5,160.5C 346.833,160.5 342.167,160.5 337.5,160.5C 337.5,155.833 337.5,151.167 337.5,146.5C 342.167,146.5 346.833,146.5 351.5,146.5C 351.5,141.5 351.5,136.5 351.5,131.5 Z"/></g>
<g><path style="opacity:1" fill="#000100" d="M 410.5,131.5 C 415.5,131.5 420.5,131.5 425.5,131.5C 425.5,146.167 425.5,160.833 425.5,175.5C 420.5,175.5 415.5,175.5 410.5,175.5C 410.5,170.5 410.5,165.5 410.5,160.5C 410.5,155.833 410.5,151.167 410.5,146.5C 410.5,141.5 410.5,136.5 410.5,131.5 Z"/></g>
<g><path style="opacity:1" fill="#767776" d="M 469.5,131.5 C 474.167,131.5 478.833,131.5 483.5,131.5C 483.5,136.5 483.5,141.5 483.5,146.5C 478.833,146.5 474.167,146.5 469.5,146.5C 469.5,141.5 469.5,136.5 469.5,131.5 Z"/></g>
<g><path style="opacity:1" fill="#000000" d="M 146.5,146.5 C 146.5,151.167 146.5,155.833 146.5,160.5C 141.5,160.5 136.5,160.5 131.5,160.5C 131.5,155.833 131.5,151.167 131.5,146.5C 136.5,146.5 141.5,146.5 146.5,146.5 Z"/></g>
<g><path style="opacity:1" fill="#6f241f" d="M 146.5,146.5 C 151.167,146.5 155.833,146.5 160.5,146.5C 160.5,151.167 160.5,155.833 160.5,160.5C 155.833,160.5 151.167,160.5 146.5,160.5C 146.5,155.833 146.5,151.167 146.5,146.5 Z"/></g>
<g><path style="opacity:1" fill="#fb5148" d="M 160.5,146.5 C 165.5,146.5 170.5,146.5 175.5,146.5C 190.167,146.5 204.833,146.5 219.5,146.5C 219.5,151.167 219.5,155.833 219.5,160.5C 214.5,160.5 209.5,160.5 204.5,160.5C 204.5,165.5 204.5,170.5 204.5,175.5C 199.833,175.5 195.167,175.5 190.5,175.5C 190.5,180.5 190.5,185.5 190.5,190.5C 190.5,195.167 190.5,199.833 190.5,204.5C 170.833,204.5 151.167,204.5 131.5,204.5C 131.5,199.833 131.5,195.167 131.5,190.5C 131.5,185.5 131.5,180.5 131.5,175.5C 136.5,175.5 141.5,175.5 146.5,175.5C 146.5,170.5 146.5,165.5 146.5,160.5C 151.167,160.5 155.833,160.5 160.5,160.5C 160.5,155.833 160.5,151.167 160.5,146.5 Z"/></g>
<g><path style="opacity:1" fill="#3d3e3d" d="M 248.5,146.5 C 248.5,151.167 248.5,155.833 248.5,160.5C 243.833,160.5 239.167,160.5 234.5,160.5C 234.5,155.833 234.5,151.167 234.5,146.5C 239.167,146.5 243.833,146.5 248.5,146.5 Z"/></g>
<g><path style="opacity:1" fill="#31555b" d="M 395.5,146.5 C 400.5,146.5 405.5,146.5 410.5,146.5C 410.5,151.167 410.5,155.833 410.5,160.5C 405.5,160.5 400.5,160.5 395.5,160.5C 395.5,155.833 395.5,151.167 395.5,146.5 Z"/></g>
<g><path style="opacity:1" fill="#000000" d="M 469.5,146.5 C 474.167,146.5 478.833,146.5 483.5,146.5C 483.5,156.167 483.5,165.833 483.5,175.5C 478.833,175.5 474.167,175.5 469.5,175.5C 469.5,170.5 469.5,165.5 469.5,160.5C 469.5,155.833 469.5,151.167 469.5,146.5 Z"/></g>
<g><path style="opacity:1" fill="#000000" d="M 131.5,160.5 C 131.5,165.5 131.5,170.5 131.5,175.5C 131.5,180.5 131.5,185.5 131.5,190.5C 126.5,190.5 121.5,190.5 116.5,190.5C 116.5,180.5 116.5,170.5 116.5,160.5C 121.5,160.5 126.5,160.5 131.5,160.5 Z"/></g>
<g><path style="opacity:1" fill="#39120f" d="M 131.5,160.5 C 136.5,160.5 141.5,160.5 146.5,160.5C 146.5,165.5 146.5,170.5 146.5,175.5C 141.5,175.5 136.5,175.5 131.5,175.5C 131.5,170.5 131.5,165.5 131.5,160.5 Z"/></g>
<g><path style="opacity:1" fill="#591d19" d="M 219.5,160.5 C 219.5,165.5 219.5,170.5 219.5,175.5C 214.5,175.5 209.5,175.5 204.5,175.5C 204.5,170.5 204.5,165.5 204.5,160.5C 209.5,160.5 214.5,160.5 219.5,160.5 Z"/></g>
<g><path style="opacity:1" fill="#39646b" d="M 337.5,160.5 C 342.167,160.5 346.833,160.5 351.5,160.5C 351.5,165.5 351.5,170.5 351.5,175.5C 346.833,175.5 342.167,175.5 337.5,175.5C 337.5,170.5 337.5,165.5 337.5,160.5 Z"/></g>
<g><path style="opacity:1" fill="#122021" d="M 395.5,160.5 C 400.5,160.5 405.5,160.5 410.5,160.5C 410.5,165.5 410.5,170.5 410.5,175.5C 405.5,175.5 400.5,175.5 395.5,175.5C 395.5,170.5 395.5,165.5 395.5,160.5 Z"/></g>
<g><path style="opacity:1" fill="#696a69" d="M 469.5,160.5 C 469.5,165.5 469.5,170.5 469.5,175.5C 464.5,175.5 459.5,175.5 454.5,175.5C 454.5,170.5 454.5,165.5 454.5,160.5C 459.5,160.5 464.5,160.5 469.5,160.5 Z"/></g>
<g><path style="opacity:1" fill="#7f2924" d="M 204.5,175.5 C 204.5,180.5 204.5,185.5 204.5,190.5C 199.833,190.5 195.167,190.5 190.5,190.5C 190.5,185.5 190.5,180.5 190.5,175.5C 195.167,175.5 199.833,175.5 204.5,175.5 Z"/></g>
<g><path style="opacity:1" fill="#000000" d="M 204.5,175.5 C 209.5,175.5 214.5,175.5 219.5,175.5C 219.5,180.5 219.5,185.5 219.5,190.5C 214.5,190.5 209.5,190.5 204.5,190.5C 204.5,185.5 204.5,180.5 204.5,175.5 Z"/></g>
<g><path style="opacity:1" fill="#d8d9d8" d="M 219.5,175.5 C 224.5,175.5 229.5,175.5 234.5,175.5C 234.5,180.5 234.5,185.5 234.5,190.5C 229.5,190.5 224.5,190.5 219.5,190.5C 219.5,185.5 219.5,180.5 219.5,175.5 Z"/></g>
<g><path style="opacity:1" fill="#434443" d="M 322.5,175.5 C 327.5,175.5 332.5,175.5 337.5,175.5C 337.5,180.5 337.5,185.5 337.5,190.5C 332.5,190.5 327.5,190.5 322.5,190.5C 322.5,185.5 322.5,180.5 322.5,175.5 Z"/></g>
<g><path style="opacity:1" fill="#091111" d="M 337.5,175.5 C 342.167,175.5 346.833,175.5 351.5,175.5C 351.5,180.5 351.5,185.5 351.5,190.5C 346.833,190.5 342.167,190.5 337.5,190.5C 337.5,185.5 337.5,180.5 337.5,175.5 Z"/></g>
<g><path style="opacity:1" fill="#2f5358" d="M 351.5,175.5 C 356.5,175.5 361.5,175.5 366.5,175.5C 366.5,180.5 366.5,185.5 366.5,190.5C 361.5,190.5 356.5,190.5 351.5,190.5C 351.5,185.5 351.5,180.5 351.5,175.5 Z"/></g>
<g><path style="opacity:1" fill="#182a2c" d="M 395.5,175.5 C 395.5,180.5 395.5,185.5 395.5,190.5C 390.833,190.5 386.167,190.5 381.5,190.5C 381.5,185.5 381.5,180.5 381.5,175.5C 386.167,175.5 390.833,175.5 395.5,175.5 Z"/></g>
<g><path style="opacity:1" fill="#000000" d="M 395.5,175.5 C 400.5,175.5 405.5,175.5 410.5,175.5C 410.5,180.5 410.5,185.5 410.5,190.5C 405.5,190.5 400.5,190.5 395.5,190.5C 395.5,185.5 395.5,180.5 395.5,175.5 Z"/></g>
<g><path style="opacity:1" fill="#e2e3e2" d="M 410.5,175.5 C 415.5,175.5 420.5,175.5 425.5,175.5C 425.5,180.5 425.5,185.5 425.5,190.5C 420.5,190.5 415.5,190.5 410.5,190.5C 410.5,185.5 410.5,180.5 410.5,175.5 Z"/></g>
<g><path style="opacity:0.985" fill="#000000" d="M 116.5,190.5 C 116.5,195.167 116.5,199.833 116.5,204.5C 116.5,209.5 116.5,214.5 116.5,219.5C 141.167,219.5 165.833,219.5 190.5,219.5C 190.5,224.5 190.5,229.5 190.5,234.5C 195.167,234.5 199.833,234.5 204.5,234.5C 204.5,239.167 204.5,243.833 204.5,248.5C 199.833,248.5 195.167,248.5 190.5,248.5C 190.5,253.5 190.5,258.5 190.5,263.5C 185.5,263.5 180.5,263.5 175.5,263.5C 175.5,278.167 175.5,292.833 175.5,307.5C 180.5,307.5 185.5,307.5 190.5,307.5C 190.5,312.5 190.5,317.5 190.5,322.5C 185.5,322.5 180.5,322.5 175.5,322.5C 170.5,322.5 165.5,322.5 160.5,322.5C 155.833,322.5 151.167,322.5 146.5,322.5C 146.5,317.5 146.5,312.5 146.5,307.5C 151.167,307.5 155.833,307.5 160.5,307.5C 160.5,287.833 160.5,268.167 160.5,248.5C 165.5,248.5 170.5,248.5 175.5,248.5C 175.5,243.833 175.5,239.167 175.5,234.5C 155.833,234.5 136.167,234.5 116.5,234.5C 116.5,239.167 116.5,243.833 116.5,248.5C 111.833,248.5 107.167,248.5 102.5,248.5C 102.5,229.167 102.5,209.833 102.5,190.5C 107.167,190.5 111.833,190.5 116.5,190.5 Z"/></g>
<g><path style="opacity:1" fill="#431612" d="M 116.5,190.5 C 121.5,190.5 126.5,190.5 131.5,190.5C 131.5,195.167 131.5,199.833 131.5,204.5C 126.5,204.5 121.5,204.5 116.5,204.5C 116.5,199.833 116.5,195.167 116.5,190.5 Z"/></g>
<g><path style="opacity:1" fill="#270d0a" d="M 190.5,190.5 C 195.167,190.5 199.833,190.5 204.5,190.5C 204.5,195.167 204.5,199.833 204.5,204.5C 199.833,204.5 195.167,204.5 190.5,204.5C 190.5,199.833 190.5,195.167 190.5,190.5 Z"/></g>
<g><path style="opacity:1" fill="#424342" d="M 204.5,190.5 C 209.5,190.5 214.5,190.5 219.5,190.5C 219.5,195.167 219.5,199.833 219.5,204.5C 214.5,204.5 209.5,204.5 204.5,204.5C 204.5,199.833 204.5,195.167 204.5,190.5 Z"/></g>
<g><path style="opacity:1" fill="#585958" d="M 337.5,190.5 C 342.167,190.5 346.833,190.5 351.5,190.5C 351.5,195.167 351.5,199.833 351.5,204.5C 346.833,204.5 342.167,204.5 337.5,204.5C 337.5,199.833 337.5,195.167 337.5,190.5 Z"/></g>
<g><path style="opacity:1" fill="#000000" d="M 351.5,190.5 C 356.5,190.5 361.5,190.5 366.5,190.5C 371.5,190.5 376.5,190.5 381.5,190.5C 386.167,190.5 390.833,190.5 395.5,190.5C 395.5,195.167 395.5,199.833 395.5,204.5C 380.833,204.5 366.167,204.5 351.5,204.5C 351.5,199.833 351.5,195.167 351.5,190.5 Z"/></g>
<g><path style="opacity:1" fill="#d3d4d3" d="M 395.5,190.5 C 400.5,190.5 405.5,190.5 410.5,190.5C 410.5,195.167 410.5,199.833 410.5,204.5C 405.5,204.5 400.5,204.5 395.5,204.5C 395.5,199.833 395.5,195.167 395.5,190.5 Z"/></g>
<g><path style="opacity:1" fill="#696a69" d="M 454.5,190.5 C 454.5,195.167 454.5,199.833 454.5,204.5C 449.5,204.5 444.5,204.5 439.5,204.5C 439.5,199.833 439.5,195.167 439.5,190.5C 444.5,190.5 449.5,190.5 454.5,190.5 Z"/></g>
<g><path style="opacity:1" fill="#060606" d="M 454.5,175.5 C 459.5,175.5 464.5,175.5 469.5,175.5C 469.5,185.167 469.5,194.833 469.5,204.5C 464.5,204.5 459.5,204.5 454.5,204.5C 454.5,199.833 454.5,195.167 454.5,190.5C 454.5,185.5 454.5,180.5 454.5,175.5 Z"/></g>
<g><path style="opacity:1" fill="#97312b" d="M 116.5,204.5 C 121.5,204.5 126.5,204.5 131.5,204.5C 151.167,204.5 170.833,204.5 190.5,204.5C 190.5,209.5 190.5,214.5 190.5,219.5C 165.833,219.5 141.167,219.5 116.5,219.5C 116.5,214.5 116.5,209.5 116.5,204.5 Z"/></g>
<g><path style="opacity:1" fill="#000000" d="M 190.5,204.5 C 195.167,204.5 199.833,204.5 204.5,204.5C 204.5,209.5 204.5,214.5 204.5,219.5C 199.833,219.5 195.167,219.5 190.5,219.5C 190.5,214.5 190.5,209.5 190.5,204.5 Z"/></g>
<g><path style="opacity:1" fill="#e0e1e0" d="M 204.5,204.5 C 209.5,204.5 214.5,204.5 219.5,204.5C 219.5,209.5 219.5,214.5 219.5,219.5C 214.5,219.5 209.5,219.5 204.5,219.5C 204.5,214.5 204.5,209.5 204.5,204.5 Z"/></g>
<g><path style="opacity:1" fill="#010101" d="M 292.5,204.5 C 302.5,204.5 312.5,204.5 322.5,204.5C 322.5,214.5 322.5,224.5 322.5,234.5C 307.833,234.5 293.167,234.5 278.5,234.5C 278.5,229.5 278.5,224.5 278.5,219.5C 283.167,219.5 287.833,219.5 292.5,219.5C 292.5,214.5 292.5,209.5 292.5,204.5 Z"/></g>
<g><path style="opacity:1" fill="#e3e4e3" d="M 439.5,204.5 C 439.5,209.5 439.5,214.5 439.5,219.5C 434.833,219.5 430.167,219.5 425.5,219.5C 425.5,214.5 425.5,209.5 425.5,204.5C 430.167,204.5 434.833,204.5 439.5,204.5 Z"/></g>
<g><path style="opacity:0.969" fill="#040404" d="M 439.5,204.5 C 444.5,204.5 449.5,204.5 454.5,204.5C 454.5,214.5 454.5,224.5 454.5,234.5C 449.5,234.5 444.5,234.5 439.5,234.5C 439.5,239.167 439.5,243.833 439.5,248.5C 434.833,248.5 430.167,248.5 425.5,248.5C 425.5,253.5 425.5,258.5 425.5,263.5C 420.5,263.5 415.5,263.5 410.5,263.5C 410.5,258.5 410.5,253.5 410.5,248.5C 410.5,243.833 410.5,239.167 410.5,234.5C 415.5,234.5 420.5,234.5 425.5,234.5C 425.5,229.5 425.5,224.5 425.5,219.5C 430.167,219.5 434.833,219.5 439.5,219.5C 439.5,214.5 439.5,209.5 439.5,204.5 Z"/></g>
<g><path style="opacity:1" fill="#5e5f5e" d="M 190.5,219.5 C 195.167,219.5 199.833,219.5 204.5,219.5C 204.5,224.5 204.5,229.5 204.5,234.5C 199.833,234.5 195.167,234.5 190.5,234.5C 190.5,229.5 190.5,224.5 190.5,219.5 Z"/></g>
<g><path style="opacity:1" fill="#868786" d="M 204.5,234.5 C 209.5,234.5 214.5,234.5 219.5,234.5C 219.5,239.167 219.5,243.833 219.5,248.5C 214.5,248.5 209.5,248.5 204.5,248.5C 204.5,243.833 204.5,239.167 204.5,234.5 Z"/></g>
<g><path style="opacity:1" fill="#4a1815" d="M 204.5,248.5 C 204.5,253.5 204.5,258.5 204.5,263.5C 199.833,263.5 195.167,263.5 190.5,263.5C 190.5,258.5 190.5,253.5 190.5,248.5C 195.167,248.5 199.833,248.5 204.5,248.5 Z"/></g>
<g><path style="opacity:1" fill="#040504" d="M 204.5,248.5 C 209.5,248.5 214.5,248.5 219.5,248.5C 219.5,253.5 219.5,258.5 219.5,263.5C 214.5,263.5 209.5,263.5 204.5,263.5C 204.5,258.5 204.5,253.5 204.5,248.5 Z"/></g>
<g><path style="opacity:1" fill="#808180" d="M 219.5,248.5 C 224.5,248.5 229.5,248.5 234.5,248.5C 234.5,253.5 234.5,258.5 234.5,263.5C 229.5,263.5 224.5,263.5 219.5,263.5C 219.5,258.5 219.5,253.5 219.5,248.5 Z"/></g>
<g><path style="opacity:1" fill="#010101" d="M 263.5,278.5 C 263.5,273.5 263.5,268.5 263.5,263.5C 258.5,263.5 253.5,263.5 248.5,263.5C 248.5,258.5 248.5,253.5 248.5,248.5C 258.5,248.5 268.5,248.5 278.5,248.5C 278.5,258.5 278.5,268.5 278.5,278.5C 273.5,278.5 268.5,278.5 263.5,278.5 Z"/></g>
<g><path style="opacity:1" fill="#292a29" d="M 410.5,248.5 C 410.5,253.5 410.5,258.5 410.5,263.5C 405.5,263.5 400.5,263.5 395.5,263.5C 395.5,258.5 395.5,253.5 395.5,248.5C 400.5,248.5 405.5,248.5 410.5,248.5 Z"/></g>
<g><path style="opacity:0.998" fill="#000000" d="M 87.5,263.5 C 92.5,263.5 97.5,263.5 102.5,263.5C 102.5,268.5 102.5,273.5 102.5,278.5C 107.167,278.5 111.833,278.5 116.5,278.5C 116.5,283.167 116.5,287.833 116.5,292.5C 111.833,292.5 107.167,292.5 102.5,292.5C 102.5,297.5 102.5,302.5 102.5,307.5C 97.5,307.5 92.5,307.5 87.5,307.5C 87.5,312.5 87.5,317.5 87.5,322.5C 77.8333,322.5 68.1667,322.5 58.5,322.5C 58.5,312.5 58.5,302.5 58.5,292.5C 63.1667,292.5 67.8333,292.5 72.5,292.5C 72.5,287.833 72.5,283.167 72.5,278.5C 77.5,278.5 82.5,278.5 87.5,278.5C 87.5,273.5 87.5,268.5 87.5,263.5 Z"/></g>
<g><path style="opacity:1" fill="#fe5248" d="M 190.5,263.5 C 195.167,263.5 199.833,263.5 204.5,263.5C 204.5,268.5 204.5,273.5 204.5,278.5C 209.5,278.5 214.5,278.5 219.5,278.5C 219.5,283.167 219.5,287.833 219.5,292.5C 224.5,292.5 229.5,292.5 234.5,292.5C 234.5,297.5 234.5,302.5 234.5,307.5C 239.167,307.5 243.833,307.5 248.5,307.5C 248.5,312.5 248.5,317.5 248.5,322.5C 253.5,322.5 258.5,322.5 263.5,322.5C 263.5,327.5 263.5,332.5 263.5,337.5C 248.833,337.5 234.167,337.5 219.5,337.5C 219.5,332.5 219.5,327.5 219.5,322.5C 214.5,322.5 209.5,322.5 204.5,322.5C 204.5,317.5 204.5,312.5 204.5,307.5C 199.833,307.5 195.167,307.5 190.5,307.5C 190.5,292.833 190.5,278.167 190.5,263.5 Z"/></g>
<g><path style="opacity:1" fill="#521b17" d="M 204.5,263.5 C 209.5,263.5 214.5,263.5 219.5,263.5C 219.5,268.5 219.5,273.5 219.5,278.5C 214.5,278.5 209.5,278.5 204.5,278.5C 204.5,273.5 204.5,268.5 204.5,263.5 Z"/></g>
<g><path style="opacity:1" fill="#030403" d="M 219.5,263.5 C 224.5,263.5 229.5,263.5 234.5,263.5C 234.5,268.5 234.5,273.5 234.5,278.5C 229.5,278.5 224.5,278.5 219.5,278.5C 219.5,273.5 219.5,268.5 219.5,263.5 Z"/></g>
<g><path style="opacity:1" fill="#8b8c8b" d="M 234.5,263.5 C 239.167,263.5 243.833,263.5 248.5,263.5C 248.5,268.5 248.5,273.5 248.5,278.5C 243.833,278.5 239.167,278.5 234.5,278.5C 234.5,273.5 234.5,268.5 234.5,263.5 Z"/></g>
<g><path style="opacity:1" fill="#fefffe" d="M 248.5,263.5 C 253.5,263.5 258.5,263.5 263.5,263.5C 263.5,268.5 263.5,273.5 263.5,278.5C 258.5,278.5 253.5,278.5 248.5,278.5C 248.5,273.5 248.5,268.5 248.5,263.5 Z"/></g>
<g><path style="opacity:1" fill="#cb413a" d="M 190.5,263.5 C 190.5,278.167 190.5,292.833 190.5,307.5C 185.5,307.5 180.5,307.5 175.5,307.5C 175.5,292.833 175.5,278.167 175.5,263.5C 180.5,263.5 185.5,263.5 190.5,263.5 Z"/></g>
<g><path style="opacity:1" fill="#421612" d="M 219.5,278.5 C 224.5,278.5 229.5,278.5 234.5,278.5C 234.5,283.167 234.5,287.833 234.5,292.5C 229.5,292.5 224.5,292.5 219.5,292.5C 219.5,287.833 219.5,283.167 219.5,278.5 Z"/></g>
<g><path style="opacity:1" fill="#000000" d="M 234.5,278.5 C 239.167,278.5 243.833,278.5 248.5,278.5C 248.5,283.167 248.5,287.833 248.5,292.5C 243.833,292.5 239.167,292.5 234.5,292.5C 234.5,287.833 234.5,283.167 234.5,278.5 Z"/></g>
<g><path style="opacity:1" fill="#959695" d="M 248.5,278.5 C 253.5,278.5 258.5,278.5 263.5,278.5C 263.5,283.167 263.5,287.833 263.5,292.5C 258.5,292.5 253.5,292.5 248.5,292.5C 248.5,287.833 248.5,283.167 248.5,278.5 Z"/></g>
<g><path style="opacity:1" fill="#bfc0bf" d="M 366.5,278.5 C 366.5,283.167 366.5,287.833 366.5,292.5C 361.5,292.5 356.5,292.5 351.5,292.5C 351.5,287.833 351.5,283.167 351.5,278.5C 356.5,278.5 361.5,278.5 366.5,278.5 Z"/></g>
<g><path style="opacity:1" fill="#060303" d="M 395.5,263.5 C 400.5,263.5 405.5,263.5 410.5,263.5C 410.5,268.5 410.5,273.5 410.5,278.5C 405.5,278.5 400.5,278.5 395.5,278.5C 395.5,288.167 395.5,297.833 395.5,307.5C 390.833,307.5 386.167,307.5 381.5,307.5C 376.5,307.5 371.5,307.5 366.5,307.5C 366.5,302.5 366.5,297.5 366.5,292.5C 366.5,287.833 366.5,283.167 366.5,278.5C 371.5,278.5 376.5,278.5 381.5,278.5C 381.5,273.5 381.5,268.5 381.5,263.5C 386.167,263.5 390.833,263.5 395.5,263.5 Z"/></g>
<g><path style="opacity:1" fill="#220b09" d="M 234.5,292.5 C 239.167,292.5 243.833,292.5 248.5,292.5C 248.5,297.5 248.5,302.5 248.5,307.5C 243.833,307.5 239.167,307.5 234.5,307.5C 234.5,302.5 234.5,297.5 234.5,292.5 Z"/></g>
<g><path style="opacity:1" fill="#000000" d="M 248.5,292.5 C 253.5,292.5 258.5,292.5 263.5,292.5C 263.5,297.5 263.5,302.5 263.5,307.5C 258.5,307.5 253.5,307.5 248.5,307.5C 248.5,302.5 248.5,297.5 248.5,292.5 Z"/></g>
<g><path style="opacity:1" fill="#919291" d="M 263.5,292.5 C 268.5,292.5 273.5,292.5 278.5,292.5C 278.5,297.5 278.5,302.5 278.5,307.5C 273.5,307.5 268.5,307.5 263.5,307.5C 263.5,302.5 263.5,297.5 263.5,292.5 Z"/></g>
<g><path style="opacity:1" fill="#797a79" d="M 351.5,292.5 C 351.5,297.5 351.5,302.5 351.5,307.5C 346.833,307.5 342.167,307.5 337.5,307.5C 337.5,302.5 337.5,297.5 337.5,292.5C 342.167,292.5 346.833,292.5 351.5,292.5 Z"/></g>
<g><path style="opacity:1" fill="#000000" d="M 351.5,292.5 C 356.5,292.5 361.5,292.5 366.5,292.5C 366.5,297.5 366.5,302.5 366.5,307.5C 361.5,307.5 356.5,307.5 351.5,307.5C 351.5,302.5 351.5,297.5 351.5,292.5 Z"/></g>
<g><path style="opacity:1" fill="#a4352e" d="M 190.5,307.5 C 195.167,307.5 199.833,307.5 204.5,307.5C 204.5,312.5 204.5,317.5 204.5,322.5C 199.833,322.5 195.167,322.5 190.5,322.5C 190.5,317.5 190.5,312.5 190.5,307.5 Z"/></g>
<g><path style="opacity:1" fill="#38120f" d="M 248.5,307.5 C 253.5,307.5 258.5,307.5 263.5,307.5C 263.5,312.5 263.5,317.5 263.5,322.5C 258.5,322.5 253.5,322.5 248.5,322.5C 248.5,317.5 248.5,312.5 248.5,307.5 Z"/></g>
<g><path style="opacity:1" fill="#020302" d="M 263.5,307.5 C 268.5,307.5 273.5,307.5 278.5,307.5C 278.5,312.5 278.5,317.5 278.5,322.5C 273.5,322.5 268.5,322.5 263.5,322.5C 263.5,317.5 263.5,312.5 263.5,307.5 Z"/></g>
<g><path style="opacity:1" fill="#818281" d="M 278.5,307.5 C 283.167,307.5 287.833,307.5 292.5,307.5C 292.5,312.5 292.5,317.5 292.5,322.5C 287.833,322.5 283.167,322.5 278.5,322.5C 278.5,317.5 278.5,312.5 278.5,307.5 Z"/></g>
<g><path style="opacity:1" fill="#babbba" d="M 322.5,307.5 C 322.5,312.5 322.5,317.5 322.5,322.5C 317.5,322.5 312.5,322.5 307.5,322.5C 307.5,317.5 307.5,312.5 307.5,307.5C 312.5,307.5 317.5,307.5 322.5,307.5 Z"/></g>
<g><path style="opacity:1" fill="#030303" d="M 322.5,307.5 C 327.5,307.5 332.5,307.5 337.5,307.5C 342.167,307.5 346.833,307.5 351.5,307.5C 351.5,312.5 351.5,317.5 351.5,322.5C 346.833,322.5 342.167,322.5 337.5,322.5C 332.5,322.5 327.5,322.5 322.5,322.5C 322.5,317.5 322.5,312.5 322.5,307.5 Z"/></g>
<g><path style="opacity:1" fill="#a1342e" d="M 351.5,307.5 C 356.5,307.5 361.5,307.5 366.5,307.5C 366.5,312.5 366.5,317.5 366.5,322.5C 361.5,322.5 356.5,322.5 351.5,322.5C 351.5,317.5 351.5,312.5 351.5,307.5 Z"/></g>
<g><path style="opacity:1" fill="#fe5148" d="M 366.5,307.5 C 371.5,307.5 376.5,307.5 381.5,307.5C 381.5,312.5 381.5,317.5 381.5,322.5C 381.5,327.5 381.5,332.5 381.5,337.5C 381.5,342.167 381.5,346.833 381.5,351.5C 381.5,356.5 381.5,361.5 381.5,366.5C 376.5,366.5 371.5,366.5 366.5,366.5C 366.5,371.5 366.5,376.5 366.5,381.5C 361.5,381.5 356.5,381.5 351.5,381.5C 346.833,381.5 342.167,381.5 337.5,381.5C 337.5,386.167 337.5,390.833 337.5,395.5C 332.5,395.5 327.5,395.5 322.5,395.5C 322.5,376.167 322.5,356.833 322.5,337.5C 327.5,337.5 332.5,337.5 337.5,337.5C 342.167,337.5 346.833,337.5 351.5,337.5C 351.5,332.5 351.5,327.5 351.5,322.5C 356.5,322.5 361.5,322.5 366.5,322.5C 366.5,317.5 366.5,312.5 366.5,307.5 Z"/></g>
<g><path style="opacity:1" fill="#2d0f0c" d="M 381.5,307.5 C 386.167,307.5 390.833,307.5 395.5,307.5C 395.5,312.5 395.5,317.5 395.5,322.5C 390.833,322.5 386.167,322.5 381.5,322.5C 381.5,317.5 381.5,312.5 381.5,307.5 Z"/></g>
<g><path style="opacity:0.981" fill="#000000" d="M 395.5,307.5 C 400.5,307.5 405.5,307.5 410.5,307.5C 410.5,322.167 410.5,336.833 410.5,351.5C 405.5,351.5 400.5,351.5 395.5,351.5C 395.5,346.833 395.5,342.167 395.5,337.5C 395.5,332.5 395.5,327.5 395.5,322.5C 395.5,317.5 395.5,312.5 395.5,307.5 Z"/></g>
<g><path style="opacity:1" fill="#000000" d="M 146.5,322.5 C 146.5,327.5 146.5,332.5 146.5,337.5C 141.5,337.5 136.5,337.5 131.5,337.5C 131.5,332.5 131.5,327.5 131.5,322.5C 136.5,322.5 141.5,322.5 146.5,322.5 Z"/></g>
<g><path style="opacity:1" fill="#b09952" d="M 146.5,322.5 C 151.167,322.5 155.833,322.5 160.5,322.5C 160.5,327.5 160.5,332.5 160.5,337.5C 155.833,337.5 151.167,337.5 146.5,337.5C 146.5,332.5 146.5,327.5 146.5,322.5 Z"/></g>
<g><path style="opacity:1" fill="#fedc77" d="M 160.5,322.5 C 165.5,322.5 170.5,322.5 175.5,322.5C 175.5,327.5 175.5,332.5 175.5,337.5C 180.5,337.5 185.5,337.5 190.5,337.5C 190.5,342.167 190.5,346.833 190.5,351.5C 190.5,356.5 190.5,361.5 190.5,366.5C 190.5,371.5 190.5,376.5 190.5,381.5C 185.5,381.5 180.5,381.5 175.5,381.5C 175.5,386.167 175.5,390.833 175.5,395.5C 170.5,395.5 165.5,395.5 160.5,395.5C 155.833,395.5 151.167,395.5 146.5,395.5C 141.5,395.5 136.5,395.5 131.5,395.5C 131.5,390.833 131.5,386.167 131.5,381.5C 131.5,376.5 131.5,371.5 131.5,366.5C 131.5,361.5 131.5,356.5 131.5,351.5C 136.5,351.5 141.5,351.5 146.5,351.5C 146.5,346.833 146.5,342.167 146.5,337.5C 151.167,337.5 155.833,337.5 160.5,337.5C 160.5,332.5 160.5,327.5 160.5,322.5 Z"/></g>
<g><path style="opacity:1" fill="#504725" d="M 175.5,322.5 C 180.5,322.5 185.5,322.5 190.5,322.5C 190.5,327.5 190.5,332.5 190.5,337.5C 185.5,337.5 180.5,337.5 175.5,337.5C 175.5,332.5 175.5,327.5 175.5,322.5 Z"/></g>
<g><path style="opacity:1" fill="#000000" d="M 190.5,322.5 C 195.167,322.5 199.833,322.5 204.5,322.5C 204.5,327.5 204.5,332.5 204.5,337.5C 199.833,337.5 195.167,337.5 190.5,337.5C 190.5,332.5 190.5,327.5 190.5,322.5 Z"/></g>
<g><path style="opacity:1" fill="#95302a" d="M 204.5,322.5 C 209.5,322.5 214.5,322.5 219.5,322.5C 219.5,327.5 219.5,332.5 219.5,337.5C 214.5,337.5 209.5,337.5 204.5,337.5C 204.5,332.5 204.5,327.5 204.5,322.5 Z"/></g>
<g><path style="opacity:1" fill="#501a16" d="M 263.5,322.5 C 268.5,322.5 273.5,322.5 278.5,322.5C 278.5,327.5 278.5,332.5 278.5,337.5C 273.5,337.5 268.5,337.5 263.5,337.5C 263.5,332.5 263.5,327.5 263.5,322.5 Z"/></g>
<g><path style="opacity:0.945" fill="#000000" d="M 278.5,322.5 C 283.167,322.5 287.833,322.5 292.5,322.5C 292.5,327.5 292.5,332.5 292.5,337.5C 297.5,337.5 302.5,337.5 307.5,337.5C 307.5,356.833 307.5,376.167 307.5,395.5C 307.5,400.5 307.5,405.5 307.5,410.5C 307.5,415.5 307.5,420.5 307.5,425.5C 297.833,425.5 288.167,425.5 278.5,425.5C 278.5,420.5 278.5,415.5 278.5,410.5C 283.167,410.5 287.833,410.5 292.5,410.5C 292.5,400.833 292.5,391.167 292.5,381.5C 287.833,381.5 283.167,381.5 278.5,381.5C 278.5,376.5 278.5,371.5 278.5,366.5C 258.833,366.5 239.167,366.5 219.5,366.5C 219.5,371.5 219.5,376.5 219.5,381.5C 214.5,381.5 209.5,381.5 204.5,381.5C 204.5,376.5 204.5,371.5 204.5,366.5C 204.5,361.5 204.5,356.5 204.5,351.5C 204.5,346.833 204.5,342.167 204.5,337.5C 209.5,337.5 214.5,337.5 219.5,337.5C 219.5,342.167 219.5,346.833 219.5,351.5C 234.167,351.5 248.833,351.5 263.5,351.5C 263.5,346.833 263.5,342.167 263.5,337.5C 268.5,337.5 273.5,337.5 278.5,337.5C 278.5,332.5 278.5,327.5 278.5,322.5 Z M 278.5,366.5 C 278.5,361.5 278.5,356.5 278.5,351.5C 283.167,351.5 287.833,351.5 292.5,351.5C 292.5,356.5 292.5,361.5 292.5,366.5C 287.833,366.5 283.167,366.5 278.5,366.5 Z"/></g>
<g><path style="opacity:1" fill="#333433" d="M 292.5,322.5 C 297.5,322.5 302.5,322.5 307.5,322.5C 307.5,327.5 307.5,332.5 307.5,337.5C 302.5,337.5 297.5,337.5 292.5,337.5C 292.5,332.5 292.5,327.5 292.5,322.5 Z"/></g>
<g><path style="opacity:1" fill="#000000" d="M 307.5,322.5 C 312.5,322.5 317.5,322.5 322.5,322.5C 322.5,327.5 322.5,332.5 322.5,337.5C 317.5,337.5 312.5,337.5 307.5,337.5C 307.5,332.5 307.5,327.5 307.5,322.5 Z"/></g>
<g><path style="opacity:1" fill="#752621" d="M 322.5,322.5 C 327.5,322.5 332.5,322.5 337.5,322.5C 337.5,327.5 337.5,332.5 337.5,337.5C 332.5,337.5 327.5,337.5 322.5,337.5C 322.5,332.5 322.5,327.5 322.5,322.5 Z"/></g>
<g><path style="opacity:1" fill="#d2443b" d="M 337.5,322.5 C 342.167,322.5 346.833,322.5 351.5,322.5C 351.5,327.5 351.5,332.5 351.5,337.5C 346.833,337.5 342.167,337.5 337.5,337.5C 337.5,332.5 337.5,327.5 337.5,322.5 Z"/></g>
<g><path style="opacity:1" fill="#431613" d="M 381.5,322.5 C 386.167,322.5 390.833,322.5 395.5,322.5C 395.5,327.5 395.5,332.5 395.5,337.5C 390.833,337.5 386.167,337.5 381.5,337.5C 381.5,332.5 381.5,327.5 381.5,322.5 Z"/></g>
<g><path style="opacity:0.875" fill="#000000" d="M 131.5,337.5 C 131.5,342.167 131.5,346.833 131.5,351.5C 131.5,356.5 131.5,361.5 131.5,366.5C 126.5,366.5 121.5,366.5 116.5,366.5C 116.5,371.5 116.5,376.5 116.5,381.5C 116.5,386.167 116.5,390.833 116.5,395.5C 116.5,400.5 116.5,405.5 116.5,410.5C 121.5,410.5 126.5,410.5 131.5,410.5C 136.5,410.5 141.5,410.5 146.5,410.5C 151.167,410.5 155.833,410.5 160.5,410.5C 160.5,405.5 160.5,400.5 160.5,395.5C 165.5,395.5 170.5,395.5 175.5,395.5C 180.5,395.5 185.5,395.5 190.5,395.5C 190.5,400.5 190.5,405.5 190.5,410.5C 185.5,410.5 180.5,410.5 175.5,410.5C 175.5,430.167 175.5,449.833 175.5,469.5C 170.5,469.5 165.5,469.5 160.5,469.5C 160.5,474.167 160.5,478.833 160.5,483.5C 155.833,483.5 151.167,483.5 146.5,483.5C 146.5,488.5 146.5,493.5 146.5,498.5C 141.5,498.5 136.5,498.5 131.5,498.5C 131.5,502.833 131.5,507.167 131.5,511.5C 116.833,511.5 102.167,511.5 87.5,511.5C 87.5,502.167 87.5,492.833 87.5,483.5C 97.1667,483.5 106.833,483.5 116.5,483.5C 116.5,478.833 116.5,474.167 116.5,469.5C 121.5,469.5 126.5,469.5 131.5,469.5C 131.5,464.5 131.5,459.5 131.5,454.5C 136.5,454.5 141.5,454.5 146.5,454.5C 146.5,444.833 146.5,435.167 146.5,425.5C 131.833,425.5 117.167,425.5 102.5,425.5C 102.5,400.833 102.5,376.167 102.5,351.5C 107.167,351.5 111.833,351.5 116.5,351.5C 116.5,346.833 116.5,342.167 116.5,337.5C 121.5,337.5 126.5,337.5 131.5,337.5 Z"/></g>
<g><path style="opacity:1" fill="#796a39" d="M 131.5,337.5 C 136.5,337.5 141.5,337.5 146.5,337.5C 146.5,342.167 146.5,346.833 146.5,351.5C 141.5,351.5 136.5,351.5 131.5,351.5C 131.5,346.833 131.5,342.167 131.5,337.5 Z"/></g>
<g><path style="opacity:1" fill="#564b28" d="M 190.5,337.5 C 195.167,337.5 199.833,337.5 204.5,337.5C 204.5,342.167 204.5,346.833 204.5,351.5C 199.833,351.5 195.167,351.5 190.5,351.5C 190.5,346.833 190.5,342.167 190.5,337.5 Z"/></g>
<g><path style="opacity:1" fill="#882b27" d="M 219.5,337.5 C 234.167,337.5 248.833,337.5 263.5,337.5C 263.5,342.167 263.5,346.833 263.5,351.5C 248.833,351.5 234.167,351.5 219.5,351.5C 219.5,346.833 219.5,342.167 219.5,337.5 Z"/></g>
<g><path style="opacity:1" fill="#e34840" d="M 307.5,337.5 C 312.5,337.5 317.5,337.5 322.5,337.5C 322.5,356.833 322.5,376.167 322.5,395.5C 317.5,395.5 312.5,395.5 307.5,395.5C 307.5,376.167 307.5,356.833 307.5,337.5 Z"/></g>
<g><path style="opacity:1" fill="#2d0f0c" d="M 381.5,337.5 C 386.167,337.5 390.833,337.5 395.5,337.5C 395.5,342.167 395.5,346.833 395.5,351.5C 390.833,351.5 386.167,351.5 381.5,351.5C 381.5,346.833 381.5,342.167 381.5,337.5 Z"/></g>
<g><path style="opacity:1" fill="#000000" d="M -0.5,439.5 C -0.5,429.833 -0.5,420.167 -0.5,410.5C 4.5,410.5 9.5,410.5 14.5,410.5C 14.5,405.5 14.5,400.5 14.5,395.5C 19.1667,395.5 23.8333,395.5 28.5,395.5C 28.5,390.833 28.5,386.167 28.5,381.5C 33.5,381.5 38.5,381.5 43.5,381.5C 43.5,376.5 43.5,371.5 43.5,366.5C 48.5,366.5 53.5,366.5 58.5,366.5C 58.5,361.5 58.5,356.5 58.5,351.5C 68.1667,351.5 77.8333,351.5 87.5,351.5C 87.5,361.5 87.5,371.5 87.5,381.5C 82.5,381.5 77.5,381.5 72.5,381.5C 72.5,386.167 72.5,390.833 72.5,395.5C 67.8333,395.5 63.1667,395.5 58.5,395.5C 58.5,400.5 58.5,405.5 58.5,410.5C 53.5,410.5 48.5,410.5 43.5,410.5C 43.5,415.5 43.5,420.5 43.5,425.5C 38.5,425.5 33.5,425.5 28.5,425.5C 28.5,430.167 28.5,434.833 28.5,439.5C 18.8333,439.5 9.16667,439.5 -0.5,439.5 Z"/></g>
<g><path style="opacity:1" fill="#dec168" d="M 190.5,351.5 C 195.167,351.5 199.833,351.5 204.5,351.5C 204.5,356.5 204.5,361.5 204.5,366.5C 199.833,366.5 195.167,366.5 190.5,366.5C 190.5,361.5 190.5,356.5 190.5,351.5 Z"/></g>
<g><path style="opacity:1" fill="#63572e" d="M 131.5,366.5 C 131.5,371.5 131.5,376.5 131.5,381.5C 126.5,381.5 121.5,381.5 116.5,381.5C 116.5,376.5 116.5,371.5 116.5,366.5C 121.5,366.5 126.5,366.5 131.5,366.5 Z"/></g>
<g><path style="opacity:1" fill="#60542d" d="M 190.5,366.5 C 195.167,366.5 199.833,366.5 204.5,366.5C 204.5,371.5 204.5,376.5 204.5,381.5C 199.833,381.5 195.167,381.5 190.5,381.5C 190.5,376.5 190.5,371.5 190.5,366.5 Z"/></g>
<g><path style="opacity:0.761" fill="#030100" d="M 381.5,351.5 C 386.167,351.5 390.833,351.5 395.5,351.5C 395.5,366.167 395.5,380.833 395.5,395.5C 380.833,395.5 366.167,395.5 351.5,395.5C 351.5,390.833 351.5,386.167 351.5,381.5C 356.5,381.5 361.5,381.5 366.5,381.5C 366.5,376.5 366.5,371.5 366.5,366.5C 371.5,366.5 376.5,366.5 381.5,366.5C 381.5,361.5 381.5,356.5 381.5,351.5 Z"/></g>
<g><path style="opacity:1" fill="#ac9651" d="M 116.5,381.5 C 121.5,381.5 126.5,381.5 131.5,381.5C 131.5,386.167 131.5,390.833 131.5,395.5C 126.5,395.5 121.5,395.5 116.5,395.5C 116.5,390.833 116.5,386.167 116.5,381.5 Z"/></g>
<g><path style="opacity:1" fill="#2f2915" d="M 190.5,381.5 C 190.5,386.167 190.5,390.833 190.5,395.5C 185.5,395.5 180.5,395.5 175.5,395.5C 175.5,390.833 175.5,386.167 175.5,381.5C 180.5,381.5 185.5,381.5 190.5,381.5 Z"/></g>
<g><path style="opacity:1" fill="#000000" d="M 190.5,381.5 C 195.167,381.5 199.833,381.5 204.5,381.5C 204.5,386.167 204.5,390.833 204.5,395.5C 199.833,395.5 195.167,395.5 190.5,395.5C 190.5,390.833 190.5,386.167 190.5,381.5 Z"/></g>
<g><path style="opacity:1" fill="#9d332c" d="M 351.5,381.5 C 351.5,386.167 351.5,390.833 351.5,395.5C 346.833,395.5 342.167,395.5 337.5,395.5C 337.5,390.833 337.5,386.167 337.5,381.5C 342.167,381.5 346.833,381.5 351.5,381.5 Z"/></g>
<g><path style="opacity:1" fill="#433b1f" d="M 116.5,395.5 C 121.5,395.5 126.5,395.5 131.5,395.5C 131.5,400.5 131.5,405.5 131.5,410.5C 126.5,410.5 121.5,410.5 116.5,410.5C 116.5,405.5 116.5,400.5 116.5,395.5 Z"/></g>
<g><path style="opacity:1" fill="#64572e" d="M 131.5,395.5 C 136.5,395.5 141.5,395.5 146.5,395.5C 146.5,400.5 146.5,405.5 146.5,410.5C 141.5,410.5 136.5,410.5 131.5,410.5C 131.5,405.5 131.5,400.5 131.5,395.5 Z"/></g>
<g><path style="opacity:1" fill="#292413" d="M 146.5,395.5 C 151.167,395.5 155.833,395.5 160.5,395.5C 160.5,400.5 160.5,405.5 160.5,410.5C 155.833,410.5 151.167,410.5 146.5,410.5C 146.5,405.5 146.5,400.5 146.5,395.5 Z"/></g>
<g><path style="opacity:1" fill="#5f1f1a" d="M 307.5,395.5 C 312.5,395.5 317.5,395.5 322.5,395.5C 322.5,400.5 322.5,405.5 322.5,410.5C 317.5,410.5 312.5,410.5 307.5,410.5C 307.5,405.5 307.5,400.5 307.5,395.5 Z"/></g>
<g><path style="opacity:1" fill="#080202" d="M 322.5,395.5 C 327.5,395.5 332.5,395.5 337.5,395.5C 342.167,395.5 346.833,395.5 351.5,395.5C 351.5,400.5 351.5,405.5 351.5,410.5C 341.833,410.5 332.167,410.5 322.5,410.5C 322.5,405.5 322.5,400.5 322.5,395.5 Z"/></g>
<g><path style="opacity:0.993" fill="#000000" d="M 43.5,511.5 C 28.8333,511.5 14.1667,511.5 -0.5,511.5C -0.5,507.167 -0.5,502.833 -0.5,498.5C 4.5,498.5 9.5,498.5 14.5,498.5C 14.5,493.5 14.5,488.5 14.5,483.5C 19.1667,483.5 23.8333,483.5 28.5,483.5C 28.5,478.833 28.5,474.167 28.5,469.5C 33.5,469.5 38.5,469.5 43.5,469.5C 43.5,464.5 43.5,459.5 43.5,454.5C 48.5,454.5 53.5,454.5 58.5,454.5C 58.5,449.5 58.5,444.5 58.5,439.5C 63.1667,439.5 67.8333,439.5 72.5,439.5C 72.5,434.833 72.5,430.167 72.5,425.5C 77.5,425.5 82.5,425.5 87.5,425.5C 87.5,430.167 87.5,434.833 87.5,439.5C 92.5,439.5 97.5,439.5 102.5,439.5C 102.5,444.5 102.5,449.5 102.5,454.5C 97.5,454.5 92.5,454.5 87.5,454.5C 87.5,459.5 87.5,464.5 87.5,469.5C 82.5,469.5 77.5,469.5 72.5,469.5C 72.5,474.167 72.5,478.833 72.5,483.5C 67.8333,483.5 63.1667,483.5 58.5,483.5C 58.5,488.5 58.5,493.5 58.5,498.5C 53.5,498.5 48.5,498.5 43.5,498.5C 43.5,502.833 43.5,507.167 43.5,511.5 Z"/></g>
<g><path style="opacity:0.905" fill="#000000" d="M 204.5,425.5 C 224.167,425.5 243.833,425.5 263.5,425.5C 263.5,430.167 263.5,434.833 263.5,439.5C 258.5,439.5 253.5,439.5 248.5,439.5C 248.5,444.5 248.5,449.5 248.5,454.5C 243.833,454.5 239.167,454.5 234.5,454.5C 234.5,459.5 234.5,464.5 234.5,469.5C 219.833,469.5 205.167,469.5 190.5,469.5C 190.5,464.5 190.5,459.5 190.5,454.5C 195.167,454.5 199.833,454.5 204.5,454.5C 204.5,444.833 204.5,435.167 204.5,425.5 Z"/></g>
</svg>
