<?xml version="1.0" encoding="UTF-8"?>
<!DOCTYPE svg PUBLIC "-//W3C//DTD SVG 1.1//EN" "http://www.w3.org/Graphics/SVG/1.1/DTD/svg11.dtd">
<svg xmlns="http://www.w3.org/2000/svg" version="1.1" width="320px" height="320px" style="shape-rendering:geometricPrecision; text-rendering:geometricPrecision; image-rendering:optimizeQuality; fill-rule:evenodd; clip-rule:evenodd" xmlns:xlink="http://www.w3.org/1999/xlink">
<g><path style="opacity:1" fill="#000000" d="M 138.5,-0.5 C 154.167,-0.5 169.833,-0.5 185.5,-0.5C 185.5,1.5 185.5,3.5 185.5,5.5C 181.5,5.5 177.5,5.5 173.5,5.5C 172.532,7.60737 172.198,9.9407 172.5,12.5C 170.5,12.5 168.5,12.5 166.5,12.5C 166.802,9.9407 166.468,7.60737 165.5,5.5C 156.833,5.5 148.167,5.5 139.5,5.5C 139.5,7.83333 139.5,10.1667 139.5,12.5C 128.5,12.5 117.5,12.5 106.5,12.5C 106.5,10.1667 106.5,7.83333 106.5,5.5C 117.167,5.5 127.833,5.5 138.5,5.5C 138.5,3.5 138.5,1.5 138.5,-0.5 Z"/></g>
<g><path style="opacity:1" fill="#020100" d="M 186.5,5.5 C 195.5,5.5 204.5,5.5 213.5,5.5C 213.5,7.83333 213.5,10.1667 213.5,12.5C 220.167,12.5 226.833,12.5 233.5,12.5C 233.5,14.5 233.5,16.5 233.5,18.5C 239.5,17.1667 241.833,19.5 240.5,25.5C 244.833,25.5 249.167,25.5 253.5,25.5C 253.5,27.8333 253.5,30.1667 253.5,32.5C 248.833,32.5 244.167,32.5 239.5,32.5C 239.5,30.1667 239.5,27.8333 239.5,25.5C 237.5,25.5 235.5,25.5 233.5,25.5C 233.5,23.5 233.5,21.5 233.5,19.5C 226.833,19.5 220.167,19.5 213.5,19.5C 213.795,17.2646 213.461,15.2646 212.5,13.5C 204.016,12.507 195.349,12.1736 186.5,12.5C 186.5,10.1667 186.5,7.83333 186.5,5.5 Z"/></g>
<g><path style="opacity:1" fill="#fdac01" d="M 165.5,5.5 C 165.5,8.16667 165.5,10.8333 165.5,13.5C 168.167,13.5 170.833,13.5 173.5,13.5C 173.5,10.8333 173.5,8.16667 173.5,5.5C 177.5,5.5 181.5,5.5 185.5,5.5C 185.5,8.16667 185.5,10.8333 185.5,13.5C 194.5,13.5 203.5,13.5 212.5,13.5C 213.461,15.2646 213.795,17.2646 213.5,19.5C 220.167,19.5 226.833,19.5 233.5,19.5C 233.5,21.5 233.5,23.5 233.5,25.5C 235.5,25.5 237.5,25.5 239.5,25.5C 239.5,27.8333 239.5,30.1667 239.5,32.5C 243.97,33.4861 248.637,33.8195 253.5,33.5C 253.5,35.5 253.5,37.5 253.5,39.5C 255.5,39.5 257.5,39.5 259.5,39.5C 259.5,41.5 259.5,43.5 259.5,45.5C 261.5,45.5 263.5,45.5 265.5,45.5C 265.5,48.1667 265.5,50.8333 265.5,53.5C 267.833,53.5 270.167,53.5 272.5,53.5C 273.461,55.2646 273.795,57.2646 273.5,59.5C 275.5,59.5 277.5,59.5 279.5,59.5C 279.5,61.5 279.5,63.5 279.5,65.5C 281.5,65.5 283.5,65.5 285.5,65.5C 285.181,70.3633 285.514,75.03 286.5,79.5C 288.5,79.5 290.5,79.5 292.5,79.5C 292.5,84.1667 292.5,88.8333 292.5,93.5C 294.833,93.5 297.167,93.5 299.5,93.5C 299.5,95.5 299.5,97.5 299.5,99.5C 299.5,106.167 299.5,112.833 299.5,119.5C 301.5,119.5 303.5,119.5 305.5,119.5C 305.5,121.5 305.5,123.5 305.5,125.5C 305.5,125.833 305.5,126.167 305.5,126.5C 305.5,142.167 305.5,157.833 305.5,173.5C 303.5,173.5 301.5,173.5 299.5,173.5C 299.5,182.167 299.5,190.833 299.5,199.5C 297.5,199.5 295.5,199.5 293.5,199.5C 293.5,204.167 293.5,208.833 293.5,213.5C 290.833,213.5 288.167,213.5 285.5,213.5C 285.5,217.5 285.5,221.5 285.5,225.5C 283.5,225.5 281.5,225.5 279.5,225.5C 279.5,230.167 279.5,234.833 279.5,239.5C 277.5,239.5 275.5,239.5 273.5,239.5C 273.5,241.5 273.5,243.5 273.5,245.5C 270.833,245.5 268.167,245.5 265.5,245.5C 265.5,248.167 265.5,250.833 265.5,253.5C 263.5,253.5 261.5,253.5 259.5,253.5C 259.5,255.5 259.5,257.5 259.5,259.5C 257.5,259.5 255.5,259.5 253.5,259.5C 253.5,261.5 253.5,263.5 253.5,265.5C 250.833,265.5 248.167,265.5 245.5,265.5C 245.5,268.167 245.5,270.833 245.5,273.5C 243.5,273.5 241.5,273.5 239.5,273.5C 239.5,275.5 239.5,277.5 239.5,279.5C 234.833,279.5 230.167,279.5 225.5,279.5C 225.5,281.5 225.5,283.5 225.5,285.5C 221.5,285.5 217.5,285.5 213.5,285.5C 213.5,288.167 213.5,290.833 213.5,293.5C 208.833,293.5 204.167,293.5 199.5,293.5C 199.5,295.5 199.5,297.5 199.5,299.5C 190.833,299.5 182.167,299.5 173.5,299.5C 173.5,301.5 173.5,303.5 173.5,305.5C 155.5,305.5 137.5,305.5 119.5,305.5C 114.833,305.5 110.167,305.5 105.5,305.5C 105.5,303.5 105.5,301.5 105.5,299.5C 98.8333,299.5 92.1667,299.5 85.5,299.5C 85.5,297.5 85.5,295.5 85.5,293.5C 81.5,293.5 77.5,293.5 73.5,293.5C 73.5,290.833 73.5,288.167 73.5,285.5C 70.8333,285.5 68.1667,285.5 65.5,285.5C 65.5,283.5 65.5,281.5 65.5,279.5C 63.5,279.5 61.5,279.5 59.5,279.5C 59.5,277.5 59.5,275.5 59.5,273.5C 55.3656,272.515 51.0323,272.182 46.5,272.5C 46.8182,267.968 46.4849,263.634 45.5,259.5C 43.5,259.5 41.5,259.5 39.5,259.5C 39.5,257.5 39.5,255.5 39.5,253.5C 37.5,253.5 35.5,253.5 33.5,253.5C 33.5,250.833 33.5,248.167 33.5,245.5C 30.8333,245.5 28.1667,245.5 25.5,245.5C 25.5,241.5 25.5,237.5 25.5,233.5C 23.5,233.5 21.5,233.5 19.5,233.5C 19.5,228.833 19.5,224.167 19.5,219.5C 17.5,219.5 15.5,219.5 13.5,219.5C 13.5,210.833 13.5,202.167 13.5,193.5C 11.3926,192.532 9.0593,192.198 6.5,192.5C 6.5,170.5 6.5,148.5 6.5,126.5C 9.0593,126.802 11.3926,126.468 13.5,125.5C 13.5,118.833 13.5,112.167 13.5,105.5C 15.5,105.5 17.5,105.5 19.5,105.5C 19.5,101.5 19.5,97.5 19.5,93.5C 21.5,93.5 23.5,93.5 25.5,93.5C 25.5,88.8333 25.5,84.1667 25.5,79.5C 27.8333,79.5 30.1667,79.5 32.5,79.5C 33.4861,75.03 33.8195,70.3633 33.5,65.5C 35.5,65.5 37.5,65.5 39.5,65.5C 39.5,63.5 39.5,61.5 39.5,59.5C 41.5,59.5 43.5,59.5 45.5,59.5C 45.5,57.5 45.5,55.5 45.5,53.5C 48.1667,53.5 50.8333,53.5 53.5,53.5C 53.5,50.8333 53.5,48.1667 53.5,45.5C 55.5,45.5 57.5,45.5 59.5,45.5C 59.5,43.5 59.5,41.5 59.5,39.5C 61.5,39.5 63.5,39.5 65.5,39.5C 65.5,37.5 65.5,35.5 65.5,33.5C 70.3633,33.8195 75.03,33.4861 79.5,32.5C 79.5,30.1667 79.5,27.8333 79.5,25.5C 84.1667,25.5 88.8333,25.5 93.5,25.5C 93.5,23.5 93.5,21.5 93.5,19.5C 97.5,19.5 101.5,19.5 105.5,19.5C 105.5,17.5 105.5,15.5 105.5,13.5C 117.012,13.8281 128.346,13.4948 139.5,12.5C 139.5,10.1667 139.5,7.83333 139.5,5.5C 148.167,5.5 156.833,5.5 165.5,5.5 Z"/></g>
<g><path style="opacity:1" fill="#543b06" d="M 165.5,5.5 C 166.468,7.60737 166.802,9.9407 166.5,12.5C 168.5,12.5 170.5,12.5 172.5,12.5C 172.198,9.9407 172.532,7.60737 173.5,5.5C 173.5,8.16667 173.5,10.8333 173.5,13.5C 170.833,13.5 168.167,13.5 165.5,13.5C 165.5,10.8333 165.5,8.16667 165.5,5.5 Z"/></g>
<g><path style="opacity:1" fill="#4f3910" d="M 106.5,5.5 C 106.5,7.83333 106.5,10.1667 106.5,12.5C 117.5,12.5 128.5,12.5 139.5,12.5C 128.346,13.4948 117.012,13.8281 105.5,13.5C 105.5,13.1667 105.5,12.8333 105.5,12.5C 105.198,9.9407 105.532,7.60737 106.5,5.5 Z"/></g>
<g><path style="opacity:1" fill="#5b4419" d="M 185.5,-0.5 C 185.833,-0.5 186.167,-0.5 186.5,-0.5C 186.5,1.5 186.5,3.5 186.5,5.5C 186.5,7.83333 186.5,10.1667 186.5,12.5C 195.349,12.1736 204.016,12.507 212.5,13.5C 203.5,13.5 194.5,13.5 185.5,13.5C 185.5,10.8333 185.5,8.16667 185.5,5.5C 185.5,3.5 185.5,1.5 185.5,-0.5 Z"/></g>
<g><path style="opacity:1" fill="#040201" d="M 105.5,12.5 C 105.5,12.8333 105.5,13.1667 105.5,13.5C 105.5,15.5 105.5,17.5 105.5,19.5C 101.5,19.5 97.5,19.5 93.5,19.5C 93.5,21.5 93.5,23.5 93.5,25.5C 88.8333,25.5 84.1667,25.5 79.5,25.5C 79.5,27.8333 79.5,30.1667 79.5,32.5C 74.8333,32.5 70.1667,32.5 65.5,32.5C 65.5,30.1667 65.5,27.8333 65.5,25.5C 69.8333,25.5 74.1667,25.5 78.5,25.5C 78.2436,23.2075 78.5769,21.0408 79.5,19C 83.8206,18.501 88.1539,18.3343 92.5,18.5C 92.5,16.5 92.5,14.5 92.5,12.5C 96.8333,12.5 101.167,12.5 105.5,12.5 Z"/></g>
<g><path style="opacity:1" fill="#fbd415" d="M 133.5,19.5 C 133.5,21.5 133.5,23.5 133.5,25.5C 130.833,25.5 128.167,25.5 125.5,25.5C 125.5,23.5 125.5,21.5 125.5,19.5C 128.167,19.5 130.833,19.5 133.5,19.5 Z"/></g>
<g><path style="opacity:1" fill="#fdc84c" d="M 133.5,19.5 C 140.167,19.5 146.833,19.5 153.5,19.5C 153.5,21.5 153.5,23.5 153.5,25.5C 146.833,25.5 140.167,25.5 133.5,25.5C 133.5,23.5 133.5,21.5 133.5,19.5 Z"/></g>
<g><path style="opacity:1" fill="#140e04" d="M 65.5,32.5 C 70.1667,32.5 74.8333,32.5 79.5,32.5C 75.03,33.4861 70.3633,33.8195 65.5,33.5C 65.5,35.5 65.5,37.5 65.5,39.5C 63.5,39.5 61.5,39.5 59.5,39.5C 59.5,41.5 59.5,43.5 59.5,45.5C 57.5,45.5 55.5,45.5 53.5,45.5C 53.1667,45.5 52.8333,45.5 52.5,45.5C 51.0936,40.0687 53.0936,37.7353 58.5,38.5C 57.7353,33.0936 60.0687,31.0936 65.5,32.5 Z"/></g>
<g><path style="opacity:1" fill="#140e04" d="M 239.5,32.5 C 244.167,32.5 248.833,32.5 253.5,32.5C 258.931,31.0936 261.265,33.0936 260.5,38.5C 265.906,37.7353 267.906,40.0687 266.5,45.5C 266.167,45.5 265.833,45.5 265.5,45.5C 263.5,45.5 261.5,45.5 259.5,45.5C 259.5,43.5 259.5,41.5 259.5,39.5C 257.5,39.5 255.5,39.5 253.5,39.5C 253.5,37.5 253.5,35.5 253.5,33.5C 248.637,33.8195 243.97,33.4861 239.5,32.5 Z"/></g>
<g><path style="opacity:1" fill="#fbd614" d="M 99.5,39.5 C 97.5,39.5 95.5,39.5 93.5,39.5C 93.5,37.5 93.5,35.5 93.5,33.5C 95.5,33.5 97.5,33.5 99.5,33.5C 99.5,35.5 99.5,37.5 99.5,39.5 Z"/></g>
<g><path style="opacity:1" fill="#fec336" d="M 85.5,39.5 C 88.1667,39.5 90.8333,39.5 93.5,39.5C 95.5,39.5 97.5,39.5 99.5,39.5C 99.5,41.5 99.5,43.5 99.5,45.5C 94.8333,45.5 90.1667,45.5 85.5,45.5C 85.5,43.5 85.5,41.5 85.5,39.5 Z"/></g>
<g><path style="opacity:1" fill="#fbd512" d="M 85.5,39.5 C 85.5,41.5 85.5,43.5 85.5,45.5C 83.5,45.5 81.5,45.5 79.5,45.5C 79.5,43.5 79.5,41.5 79.5,39.5C 81.5,39.5 83.5,39.5 85.5,39.5 Z"/></g>
<g><path style="opacity:1" fill="#030303" d="M 52.5,45.5 C 52.5,47.8333 52.5,50.1667 52.5,52.5C 50.1667,52.5 47.8333,52.5 45.5,52.5C 45.5,50.1667 45.5,47.8333 45.5,45.5C 47.8333,45.5 50.1667,45.5 52.5,45.5 Z"/></g>
<g><path style="opacity:1" fill="#0f0a03" d="M 266.5,45.5 C 268.833,45.5 271.167,45.5 273.5,45.5C 273.5,47.8333 273.5,50.1667 273.5,52.5C 278.931,51.0936 281.265,53.0936 280.5,58.5C 285.906,57.7353 287.906,60.0687 286.5,65.5C 286.5,70.1667 286.5,74.8333 286.5,79.5C 285.514,75.03 285.181,70.3633 285.5,65.5C 283.5,65.5 281.5,65.5 279.5,65.5C 279.5,63.5 279.5,61.5 279.5,59.5C 277.5,59.5 275.5,59.5 273.5,59.5C 273.795,57.2646 273.461,55.2646 272.5,53.5C 270.735,52.5386 268.735,52.2053 266.5,52.5C 266.5,50.1667 266.5,47.8333 266.5,45.5 Z"/></g>
<g><path style="opacity:1" fill="#533a07" d="M 52.5,45.5 C 52.8333,45.5 53.1667,45.5 53.5,45.5C 53.5,48.1667 53.5,50.8333 53.5,53.5C 50.8333,53.5 48.1667,53.5 45.5,53.5C 45.5,53.1667 45.5,52.8333 45.5,52.5C 47.8333,52.5 50.1667,52.5 52.5,52.5C 52.5,50.1667 52.5,47.8333 52.5,45.5 Z"/></g>
<g><path style="opacity:1" fill="#fbd612" d="M 205.5,59.5 C 183.5,59.5 161.5,59.5 139.5,59.5C 139.5,57.5 139.5,55.5 139.5,53.5C 134.833,53.5 130.167,53.5 125.5,53.5C 125.5,50.8333 125.5,48.1667 125.5,45.5C 134.833,45.5 144.167,45.5 153.5,45.5C 153.5,48.1667 153.5,50.8333 153.5,53.5C 160.167,53.5 166.833,53.5 173.5,53.5C 173.5,50.8333 173.5,48.1667 173.5,45.5C 177.5,45.5 181.5,45.5 185.5,45.5C 185.5,48.1667 185.5,50.8333 185.5,53.5C 192.167,53.5 198.833,53.5 205.5,53.5C 205.5,55.5 205.5,57.5 205.5,59.5 Z"/></g>
<g><path style="opacity:1" fill="#523905" d="M 265.5,45.5 C 265.833,45.5 266.167,45.5 266.5,45.5C 266.5,47.8333 266.5,50.1667 266.5,52.5C 268.735,52.2053 270.735,52.5386 272.5,53.5C 270.167,53.5 267.833,53.5 265.5,53.5C 265.5,50.8333 265.5,48.1667 265.5,45.5 Z"/></g>
<g><path style="opacity:1" fill="#130d03" d="M 45.5,52.5 C 45.5,52.8333 45.5,53.1667 45.5,53.5C 45.5,55.5 45.5,57.5 45.5,59.5C 43.5,59.5 41.5,59.5 39.5,59.5C 39.5,61.5 39.5,63.5 39.5,65.5C 37.5,65.5 35.5,65.5 33.5,65.5C 33.8195,70.3633 33.4861,75.03 32.5,79.5C 32.5,74.8333 32.5,70.1667 32.5,65.5C 31.0936,60.0687 33.0936,57.7353 38.5,58.5C 37.7353,53.0936 40.0687,51.0936 45.5,52.5 Z"/></g>
<g><path style="opacity:1" fill="#fbd613" d="M 125.5,53.5 C 125.5,55.5 125.5,57.5 125.5,59.5C 128.167,59.5 130.833,59.5 133.5,59.5C 133.5,61.5 133.5,63.5 133.5,65.5C 128.833,65.5 124.167,65.5 119.5,65.5C 119.5,63.5 119.5,61.5 119.5,59.5C 117.5,59.5 115.5,59.5 113.5,59.5C 113.5,57.5 113.5,55.5 113.5,53.5C 117.5,53.5 121.5,53.5 125.5,53.5 Z"/></g>
<g><path style="opacity:1" fill="#fdae01" d="M 125.5,53.5 C 130.167,53.5 134.833,53.5 139.5,53.5C 139.5,55.5 139.5,57.5 139.5,59.5C 137.5,59.5 135.5,59.5 133.5,59.5C 130.833,59.5 128.167,59.5 125.5,59.5C 125.5,57.5 125.5,55.5 125.5,53.5 Z"/></g>
<g><path style="opacity:1" fill="#fbd613" d="M 113.5,59.5 C 115.5,59.5 117.5,59.5 119.5,59.5C 119.5,61.5 119.5,63.5 119.5,65.5C 119.5,68.1667 119.5,70.8333 119.5,73.5C 114.833,73.5 110.167,73.5 105.5,73.5C 105.5,70.8333 105.5,68.1667 105.5,65.5C 103.5,65.5 101.5,65.5 99.5,65.5C 99.5,63.5 99.5,61.5 99.5,59.5C 104.167,59.5 108.833,59.5 113.5,59.5 Z"/></g>
<g><path style="opacity:1" fill="#fdae01" d="M 113.5,59.5 C 115.5,59.5 117.5,59.5 119.5,59.5C 119.5,61.5 119.5,63.5 119.5,65.5C 117.5,65.5 115.5,65.5 113.5,65.5C 113.5,63.5 113.5,61.5 113.5,59.5 Z"/></g>
<g><path style="opacity:1" fill="#fdfb2c" d="M 133.5,59.5 C 135.5,59.5 137.5,59.5 139.5,59.5C 161.5,59.5 183.5,59.5 205.5,59.5C 208.167,59.5 210.833,59.5 213.5,59.5C 213.5,61.5 213.5,63.5 213.5,65.5C 217.5,65.5 221.5,65.5 225.5,65.5C 225.5,68.1667 225.5,70.8333 225.5,73.5C 228.167,73.5 230.833,73.5 233.5,73.5C 235.5,73.5 237.5,73.5 239.5,73.5C 239.5,75.5 239.5,77.5 239.5,79.5C 241.5,79.5 243.5,79.5 245.5,79.5C 245.5,81.5 245.5,83.5 245.5,85.5C 247.833,85.5 250.167,85.5 252.5,85.5C 252.194,88.3854 252.527,91.0521 253.5,93.5C 255.5,93.5 257.5,93.5 259.5,93.5C 259.5,95.5 259.5,97.5 259.5,99.5C 259.5,101.5 259.5,103.5 259.5,105.5C 261.5,105.5 263.5,105.5 265.5,105.5C 265.5,112.167 265.5,118.833 265.5,125.5C 267.833,125.5 270.167,125.5 272.5,125.5C 272.5,150.167 272.5,174.833 272.5,199.5C 270.167,199.5 267.833,199.5 265.5,199.5C 265.5,201.5 265.5,203.5 265.5,205.5C 265.5,208.167 265.5,210.833 265.5,213.5C 263.5,213.5 261.5,213.5 259.5,213.5C 259.5,215.5 259.5,217.5 259.5,219.5C 259.5,221.5 259.5,223.5 259.5,225.5C 257.5,225.5 255.5,225.5 253.5,225.5C 253.5,228.167 253.5,230.833 253.5,233.5C 250.833,233.5 248.167,233.5 245.5,233.5C 245.5,235.5 245.5,237.5 245.5,239.5C 243.5,239.5 241.5,239.5 239.5,239.5C 239.5,241.5 239.5,243.5 239.5,245.5C 237.5,245.5 235.5,245.5 233.5,245.5C 233.5,248.167 233.5,250.833 233.5,253.5C 230.833,253.5 228.167,253.5 225.5,253.5C 225.5,255.5 225.5,257.5 225.5,259.5C 223.5,259.5 221.5,259.5 219.5,259.5C 217.5,259.5 215.5,259.5 213.5,259.5C 213.5,261.5 213.5,263.5 213.5,265.5C 210.833,265.5 208.167,265.5 205.5,265.5C 203.5,265.5 201.5,265.5 199.5,265.5C 199.5,267.833 199.5,270.167 199.5,272.5C 195.03,273.486 190.363,273.819 185.5,273.5C 168.167,273.5 150.833,273.5 133.5,273.5C 128.637,273.819 123.97,273.486 119.5,272.5C 119.5,270.167 119.5,267.833 119.5,265.5C 117.5,265.5 115.5,265.5 113.5,265.5C 110.833,265.5 108.167,265.5 105.5,265.5C 105.5,263.5 105.5,261.5 105.5,259.5C 103.5,259.5 101.5,259.5 99.5,259.5C 97.5,259.5 95.5,259.5 93.5,259.5C 93.5,257.5 93.5,255.5 93.5,253.5C 90.8333,253.5 88.1667,253.5 85.5,253.5C 85.5,250.833 85.5,248.167 85.5,245.5C 83.5,245.5 81.5,245.5 79.5,245.5C 79.5,243.5 79.5,241.5 79.5,239.5C 77.5,239.5 75.5,239.5 73.5,239.5C 73.5,237.5 73.5,235.5 73.5,233.5C 73.5,230.833 73.5,228.167 73.5,225.5C 70.8333,225.5 68.1667,225.5 65.5,225.5C 65.5,221.5 65.5,217.5 65.5,213.5C 63.5,213.5 61.5,213.5 59.5,213.5C 59.5,188.833 59.5,164.167 59.5,139.5C 59.5,137.5 59.5,135.5 59.5,133.5C 61.5,133.5 63.5,133.5 65.5,133.5C 65.5,128.833 65.5,124.167 65.5,119.5C 68.1667,119.5 70.8333,119.5 73.5,119.5C 73.5,114.833 73.5,110.167 73.5,105.5C 75.5,105.5 77.5,105.5 79.5,105.5C 79.5,103.5 79.5,101.5 79.5,99.5C 81.5,99.5 83.5,99.5 85.5,99.5C 85.5,97.5 85.5,95.5 85.5,93.5C 88.1667,93.5 90.8333,93.5 93.5,93.5C 93.5,90.8333 93.5,88.1667 93.5,85.5C 95.5,85.5 97.5,85.5 99.5,85.5C 99.5,83.5 99.5,81.5 99.5,79.5C 101.5,79.5 103.5,79.5 105.5,79.5C 105.5,77.5 105.5,75.5 105.5,73.5C 110.167,73.5 114.833,73.5 119.5,73.5C 119.5,70.8333 119.5,68.1667 119.5,65.5C 124.167,65.5 128.833,65.5 133.5,65.5C 133.5,63.5 133.5,61.5 133.5,59.5 Z"/></g>
<g><path style="opacity:1" fill="#fbd612" d="M 213.5,59.5 C 217.5,59.5 221.5,59.5 225.5,59.5C 225.5,61.5 225.5,63.5 225.5,65.5C 221.5,65.5 217.5,65.5 213.5,65.5C 213.5,63.5 213.5,61.5 213.5,59.5 Z"/></g>
<g><path style="opacity:1" fill="#0c0700" d="M 32.5,65.5 C 32.5,70.1667 32.5,74.8333 32.5,79.5C 30.1667,79.5 27.8333,79.5 25.5,79.5C 25.5,84.1667 25.5,88.8333 25.5,93.5C 23.5,93.5 21.5,93.5 19.5,93.5C 19.5,97.5 19.5,101.5 19.5,105.5C 17.5,105.5 15.5,105.5 13.5,105.5C 13.5,112.167 13.5,118.833 13.5,125.5C 13.1667,125.5 12.8333,125.5 12.5,125.5C 12.5,118.833 12.5,112.167 12.5,105.5C 12.5,101.167 12.5,96.8333 12.5,92.5C 14.5,92.5 16.5,92.5 18.5,92.5C 18.3343,88.1539 18.501,83.8206 19,79.5C 21.0408,78.5769 23.2075,78.2436 25.5,78.5C 25.5,74.1667 25.5,69.8333 25.5,65.5C 27.8333,65.5 30.1667,65.5 32.5,65.5 Z"/></g>
<g><path style="opacity:1" fill="#fdc344" d="M 79.5,45.5 C 81.5,45.5 83.5,45.5 85.5,45.5C 85.5,48.1667 85.5,50.8333 85.5,53.5C 83.5,53.5 81.5,53.5 79.5,53.5C 79.5,55.5 79.5,57.5 79.5,59.5C 77.5,59.5 75.5,59.5 73.5,59.5C 73.5,61.5 73.5,63.5 73.5,65.5C 70.8333,65.5 68.1667,65.5 65.5,65.5C 65.5,68.1667 65.5,70.8333 65.5,73.5C 63.5,73.5 61.5,73.5 59.5,73.5C 59.5,75.5 59.5,77.5 59.5,79.5C 57.5,79.5 55.5,79.5 53.5,79.5C 53.5,81.5 53.5,83.5 53.5,85.5C 50.8333,85.5 48.1667,85.5 45.5,85.5C 45.5,83.5 45.5,81.5 45.5,79.5C 45.5,77.5 45.5,75.5 45.5,73.5C 48.1667,73.5 50.8333,73.5 53.5,73.5C 53.5,70.8333 53.5,68.1667 53.5,65.5C 55.5,65.5 57.5,65.5 59.5,65.5C 59.5,63.5 59.5,61.5 59.5,59.5C 61.5,59.5 63.5,59.5 65.5,59.5C 65.5,57.5 65.5,55.5 65.5,53.5C 68.1667,53.5 70.8333,53.5 73.5,53.5C 73.5,50.8333 73.5,48.1667 73.5,45.5C 75.5,45.5 77.5,45.5 79.5,45.5 Z"/></g>
<g><path style="opacity:1" fill="#fbd412" d="M 99.5,65.5 C 99.5,68.1667 99.5,70.8333 99.5,73.5C 97.5,73.5 95.5,73.5 93.5,73.5C 93.5,75.5 93.5,77.5 93.5,79.5C 90.8333,79.5 88.1667,79.5 85.5,79.5C 85.5,81.5 85.5,83.5 85.5,85.5C 83.5,85.5 81.5,85.5 79.5,85.5C 79.5,88.1667 79.5,90.8333 79.5,93.5C 77.5,93.5 75.5,93.5 73.5,93.5C 73.5,95.5 73.5,97.5 73.5,99.5C 70.8333,99.5 68.1667,99.5 65.5,99.5C 65.5,94.8333 65.5,90.1667 65.5,85.5C 68.1667,85.5 70.8333,85.5 73.5,85.5C 73.5,83.5 73.5,81.5 73.5,79.5C 75.5,79.5 77.5,79.5 79.5,79.5C 79.5,77.5 79.5,75.5 79.5,73.5C 81.5,73.5 83.5,73.5 85.5,73.5C 85.5,70.8333 85.5,68.1667 85.5,65.5C 90.1667,65.5 94.8333,65.5 99.5,65.5 Z"/></g>
<g><path style="opacity:1" fill="#fdaf01" d="M 99.5,65.5 C 101.5,65.5 103.5,65.5 105.5,65.5C 105.5,68.1667 105.5,70.8333 105.5,73.5C 103.5,73.5 101.5,73.5 99.5,73.5C 99.5,70.8333 99.5,68.1667 99.5,65.5 Z"/></g>
<g><path style="opacity:1" fill="#fbd613" d="M 225.5,65.5 C 228.167,65.5 230.833,65.5 233.5,65.5C 233.5,68.1667 233.5,70.8333 233.5,73.5C 233.5,70.8333 233.5,68.1667 233.5,65.5C 230.833,65.5 228.167,65.5 225.5,65.5 Z"/></g>
<g><path style="opacity:1" fill="#fdae01" d="M 99.5,73.5 C 99.5,75.5 99.5,77.5 99.5,79.5C 97.5,79.5 95.5,79.5 93.5,79.5C 93.5,77.5 93.5,75.5 93.5,73.5C 95.5,73.5 97.5,73.5 99.5,73.5 Z"/></g>
<g><path style="opacity:1" fill="#fbd713" d="M 99.5,73.5 C 101.5,73.5 103.5,73.5 105.5,73.5C 105.5,75.5 105.5,77.5 105.5,79.5C 103.5,79.5 101.5,79.5 99.5,79.5C 99.5,77.5 99.5,75.5 99.5,73.5 Z"/></g>
<g><path style="opacity:1" fill="#0b0702" d="M 286.5,65.5 C 288.833,65.5 291.167,65.5 293.5,65.5C 293.5,69.8333 293.5,74.1667 293.5,78.5C 299.5,77.1667 301.833,79.5 300.5,85.5C 302.5,85.5 304.5,85.5 306.5,85.5C 306.5,89.8333 306.5,94.1667 306.5,98.5C 308.833,98.5 311.167,98.5 313.5,98.5C 313.5,107.5 313.5,116.5 313.5,125.5C 310.833,125.5 308.167,125.5 305.5,125.5C 305.5,123.5 305.5,121.5 305.5,119.5C 305.5,112.833 305.5,106.167 305.5,99.5C 303.5,99.5 301.5,99.5 299.5,99.5C 299.5,97.5 299.5,95.5 299.5,93.5C 299.5,90.8333 299.5,88.1667 299.5,85.5C 297.5,85.5 295.5,85.5 293.5,85.5C 293.795,83.2646 293.461,81.2646 292.5,79.5C 290.5,79.5 288.5,79.5 286.5,79.5C 286.5,74.8333 286.5,70.1667 286.5,65.5 Z"/></g>
<g><path style="opacity:1" fill="#fbd512" d="M 45.5,79.5 C 45.5,81.5 45.5,83.5 45.5,85.5C 43.5,85.5 41.5,85.5 39.5,85.5C 39.5,83.5 39.5,81.5 39.5,79.5C 41.5,79.5 43.5,79.5 45.5,79.5 Z"/></g>
<g><path style="opacity:1" fill="#fdb002" d="M 93.5,79.5 C 93.5,81.5 93.5,83.5 93.5,85.5C 90.8333,85.5 88.1667,85.5 85.5,85.5C 85.5,83.5 85.5,81.5 85.5,79.5C 88.1667,79.5 90.8333,79.5 93.5,79.5 Z"/></g>
<g><path style="opacity:1" fill="#fbd713" d="M 93.5,79.5 C 95.5,79.5 97.5,79.5 99.5,79.5C 99.5,81.5 99.5,83.5 99.5,85.5C 97.5,85.5 95.5,85.5 93.5,85.5C 93.5,83.5 93.5,81.5 93.5,79.5 Z"/></g>
<g><path style="opacity:1" fill="#fbd714" d="M 245.5,79.5 C 248.167,79.5 250.833,79.5 253.5,79.5C 253.5,84.1667 253.5,88.8333 253.5,93.5C 252.527,91.0521 252.194,88.3854 252.5,85.5C 250.167,85.5 247.833,85.5 245.5,85.5C 245.5,83.5 245.5,81.5 245.5,79.5 Z"/></g>
<g><path style="opacity:1" fill="#fdaf01" d="M 85.5,85.5 C 85.5,88.1667 85.5,90.8333 85.5,93.5C 83.5,93.5 81.5,93.5 79.5,93.5C 79.5,90.8333 79.5,88.1667 79.5,85.5C 81.5,85.5 83.5,85.5 85.5,85.5 Z"/></g>
<g><path style="opacity:1" fill="#fbd613" d="M 85.5,85.5 C 88.1667,85.5 90.8333,85.5 93.5,85.5C 93.5,88.1667 93.5,90.8333 93.5,93.5C 90.8333,93.5 88.1667,93.5 85.5,93.5C 85.5,90.8333 85.5,88.1667 85.5,85.5 Z"/></g>
<g><path style="opacity:1" fill="#e69002" d="M 292.5,79.5 C 293.461,81.2646 293.795,83.2646 293.5,85.5C 295.5,85.5 297.5,85.5 299.5,85.5C 299.5,88.1667 299.5,90.8333 299.5,93.5C 297.167,93.5 294.833,93.5 292.5,93.5C 292.5,88.8333 292.5,84.1667 292.5,79.5 Z"/></g>
<g><path style="opacity:1" fill="#fdae01" d="M 79.5,93.5 C 79.5,95.5 79.5,97.5 79.5,99.5C 77.5,99.5 75.5,99.5 73.5,99.5C 73.5,97.5 73.5,95.5 73.5,93.5C 75.5,93.5 77.5,93.5 79.5,93.5 Z"/></g>
<g><path style="opacity:1" fill="#fbd713" d="M 79.5,93.5 C 81.5,93.5 83.5,93.5 85.5,93.5C 85.5,95.5 85.5,97.5 85.5,99.5C 83.5,99.5 81.5,99.5 79.5,99.5C 79.5,97.5 79.5,95.5 79.5,93.5 Z"/></g>
<g><path style="opacity:1" fill="#fbd613" d="M 153.5,93.5 C 153.5,95.5 153.5,97.5 153.5,99.5C 150.833,99.5 148.167,99.5 145.5,99.5C 145.5,97.5 145.5,95.5 145.5,93.5C 148.167,93.5 150.833,93.5 153.5,93.5 Z"/></g>
<g><path style="opacity:1" fill="#fdad03" d="M 153.5,93.5 C 157.5,93.5 161.5,93.5 165.5,93.5C 165.5,95.5 165.5,97.5 165.5,99.5C 168.167,99.5 170.833,99.5 173.5,99.5C 173.5,101.5 173.5,103.5 173.5,105.5C 173.5,108.167 173.5,110.833 173.5,113.5C 175.5,113.5 177.5,113.5 179.5,113.5C 179.5,115.5 179.5,117.5 179.5,119.5C 179.5,121.5 179.5,123.5 179.5,125.5C 181.5,125.5 183.5,125.5 185.5,125.5C 185.5,128.167 185.5,130.833 185.5,133.5C 194.833,133.5 204.167,133.5 213.5,133.5C 213.5,140.167 213.5,146.833 213.5,153.5C 210.833,153.5 208.167,153.5 205.5,153.5C 205.5,155.5 205.5,157.5 205.5,159.5C 203.5,159.5 201.5,159.5 199.5,159.5C 199.5,161.5 199.5,163.5 199.5,165.5C 197.5,165.5 195.5,165.5 193.5,165.5C 193.5,168.167 193.5,170.833 193.5,173.5C 190.833,173.5 188.167,173.5 185.5,173.5C 185.5,175.5 185.5,177.5 185.5,179.5C 188.167,179.5 190.833,179.5 193.5,179.5C 193.5,190.833 193.5,202.167 193.5,213.5C 186.833,213.5 180.167,213.5 173.5,213.5C 170.833,213.5 168.167,213.5 165.5,213.5C 161.5,213.5 157.5,213.5 153.5,213.5C 150.833,213.5 148.167,213.5 145.5,213.5C 154.652,212.506 163.985,212.173 173.5,212.5C 173.5,210.167 173.5,207.833 173.5,205.5C 170.833,205.5 168.167,205.5 165.5,205.5C 165.5,203.5 165.5,201.5 165.5,199.5C 161.5,199.5 157.5,199.5 153.5,199.5C 153.5,201.5 153.5,203.5 153.5,205.5C 148.833,205.5 144.167,205.5 139.5,205.5C 139.5,208.167 139.5,210.833 139.5,213.5C 132.833,213.5 126.167,213.5 119.5,213.5C 119.5,210.833 119.5,208.167 119.5,205.5C 117.5,205.5 115.5,205.5 113.5,205.5C 113.5,198.833 113.5,192.167 113.5,185.5C 115.5,185.5 117.5,185.5 119.5,185.5C 119.5,183.5 119.5,181.5 119.5,179.5C 117.5,179.5 115.5,179.5 113.5,179.5C 113.795,177.265 113.461,175.265 112.5,173.5C 110.167,173.5 107.833,173.5 105.5,173.5C 105.5,170.833 105.5,168.167 105.5,165.5C 103.5,165.5 101.5,165.5 99.5,165.5C 99.5,163.5 99.5,161.5 99.5,159.5C 97.5,159.5 95.5,159.5 93.5,159.5C 93.5,157.5 93.5,155.5 93.5,153.5C 93.5,150.833 93.5,148.167 93.5,145.5C 93.5,143.5 93.5,141.5 93.5,139.5C 95.5,139.5 97.5,139.5 99.5,139.5C 99.5,137.5 99.5,135.5 99.5,133.5C 104.167,133.5 108.833,133.5 113.5,133.5C 120.167,133.5 126.833,133.5 133.5,133.5C 133.5,130.833 133.5,128.167 133.5,125.5C 135.5,125.5 137.5,125.5 139.5,125.5C 139.5,123.5 139.5,121.5 139.5,119.5C 139.5,117.5 139.5,115.5 139.5,113.5C 141.5,113.5 143.5,113.5 145.5,113.5C 145.5,110.833 145.5,108.167 145.5,105.5C 145.5,103.5 145.5,101.5 145.5,99.5C 148.167,99.5 150.833,99.5 153.5,99.5C 153.5,97.5 153.5,95.5 153.5,93.5 Z"/></g>
<g><path style="opacity:1" fill="#fbd613" d="M 165.5,93.5 C 168.167,93.5 170.833,93.5 173.5,93.5C 173.5,95.5 173.5,97.5 173.5,99.5C 170.833,99.5 168.167,99.5 165.5,99.5C 165.5,97.5 165.5,95.5 165.5,93.5 Z"/></g>
<g><path style="opacity:1" fill="#fdc340" d="M 39.5,85.5 C 41.5,85.5 43.5,85.5 45.5,85.5C 45.5,90.1667 45.5,94.8333 45.5,99.5C 43.5,99.5 41.5,99.5 39.5,99.5C 39.5,101.5 39.5,103.5 39.5,105.5C 37.5,105.5 35.5,105.5 33.5,105.5C 33.5,101.5 33.5,97.5 33.5,93.5C 35.5,93.5 37.5,93.5 39.5,93.5C 39.5,90.8333 39.5,88.1667 39.5,85.5 Z"/></g>
<g><path style="opacity:1" fill="#fbd613" d="M 65.5,99.5 C 65.5,101.5 65.5,103.5 65.5,105.5C 68.1667,105.5 70.8333,105.5 73.5,105.5C 73.5,110.167 73.5,114.833 73.5,119.5C 70.8333,119.5 68.1667,119.5 65.5,119.5C 65.5,117.5 65.5,115.5 65.5,113.5C 63.5,113.5 61.5,113.5 59.5,113.5C 59.5,108.833 59.5,104.167 59.5,99.5C 61.5,99.5 63.5,99.5 65.5,99.5 Z"/></g>
<g><path style="opacity:1" fill="#fdb002" d="M 65.5,99.5 C 68.1667,99.5 70.8333,99.5 73.5,99.5C 73.5,101.5 73.5,103.5 73.5,105.5C 70.8333,105.5 68.1667,105.5 65.5,105.5C 65.5,103.5 65.5,101.5 65.5,99.5 Z"/></g>
<g><path style="opacity:1" fill="#fbd713" d="M 73.5,99.5 C 75.5,99.5 77.5,99.5 79.5,99.5C 79.5,101.5 79.5,103.5 79.5,105.5C 77.5,105.5 75.5,105.5 73.5,105.5C 73.5,103.5 73.5,101.5 73.5,99.5 Z"/></g>
<g><path style="opacity:1" fill="#ef9303" d="M 299.5,99.5 C 301.5,99.5 303.5,99.5 305.5,99.5C 305.5,106.167 305.5,112.833 305.5,119.5C 303.5,119.5 301.5,119.5 299.5,119.5C 299.5,112.833 299.5,106.167 299.5,99.5 Z"/></g>
<g><path style="opacity:1" fill="#010101" d="M 12.5,105.5 C 12.5,112.167 12.5,118.833 12.5,125.5C 10.1667,125.5 7.83333,125.5 5.5,125.5C 5.5,118.833 5.5,112.167 5.5,105.5C 7.83333,105.5 10.1667,105.5 12.5,105.5 Z"/></g>
<g><path style="opacity:1" fill="#fbd613" d="M 145.5,105.5 C 145.5,108.167 145.5,110.833 145.5,113.5C 143.5,113.5 141.5,113.5 139.5,113.5C 139.5,110.833 139.5,108.167 139.5,105.5C 141.5,105.5 143.5,105.5 145.5,105.5 Z"/></g>
<g><path style="opacity:1" fill="#fbd613" d="M 173.5,105.5 C 175.5,105.5 177.5,105.5 179.5,105.5C 179.5,108.167 179.5,110.833 179.5,113.5C 177.5,113.5 175.5,113.5 173.5,113.5C 173.5,110.833 173.5,108.167 173.5,105.5 Z"/></g>
<g><path style="opacity:1" fill="#fbd613" d="M 59.5,113.5 C 61.5,113.5 63.5,113.5 65.5,113.5C 65.5,115.5 65.5,117.5 65.5,119.5C 65.5,124.167 65.5,128.833 65.5,133.5C 63.5,133.5 61.5,133.5 59.5,133.5C 59.5,130.833 59.5,128.167 59.5,125.5C 57.5,125.5 55.5,125.5 53.5,125.5C 53.5,121.5 53.5,117.5 53.5,113.5C 55.5,113.5 57.5,113.5 59.5,113.5 Z"/></g>
<g><path style="opacity:1" fill="#fdae01" d="M 59.5,113.5 C 61.5,113.5 63.5,113.5 65.5,113.5C 65.5,115.5 65.5,117.5 65.5,119.5C 63.5,119.5 61.5,119.5 59.5,119.5C 59.5,117.5 59.5,115.5 59.5,113.5 Z"/></g>
<g><path style="opacity:1" fill="#fbd614" d="M 159.5,119.5 C 157.5,119.5 155.5,119.5 153.5,119.5C 153.5,117.5 153.5,115.5 153.5,113.5C 155.5,113.5 157.5,113.5 159.5,113.5C 159.5,115.5 159.5,117.5 159.5,119.5 Z"/></g>
<g><path style="opacity:1" fill="#fbd312" d="M 259.5,99.5 C 261.833,99.5 264.167,99.5 266.5,99.5C 266.5,103.833 266.5,108.167 266.5,112.5C 268.833,112.5 271.167,112.5 273.5,112.5C 273.5,116.833 273.5,121.167 273.5,125.5C 273.167,125.5 272.833,125.5 272.5,125.5C 270.167,125.5 267.833,125.5 265.5,125.5C 265.5,118.833 265.5,112.167 265.5,105.5C 263.5,105.5 261.5,105.5 259.5,105.5C 259.5,103.5 259.5,101.5 259.5,99.5 Z"/></g>
<g><path style="opacity:1" fill="#fbd613" d="M 139.5,119.5 C 139.5,121.5 139.5,123.5 139.5,125.5C 137.5,125.5 135.5,125.5 133.5,125.5C 133.5,123.5 133.5,121.5 133.5,119.5C 135.5,119.5 137.5,119.5 139.5,119.5 Z"/></g>
<g><path style="opacity:1" fill="#fbd415" d="M 153.5,119.5 C 153.5,121.5 153.5,123.5 153.5,125.5C 150.833,125.5 148.167,125.5 145.5,125.5C 145.5,123.5 145.5,121.5 145.5,119.5C 148.167,119.5 150.833,119.5 153.5,119.5 Z"/></g>
<g><path style="opacity:1" fill="#ffd15c" d="M 153.5,119.5 C 155.5,119.5 157.5,119.5 159.5,119.5C 159.5,121.5 159.5,123.5 159.5,125.5C 157.5,125.5 155.5,125.5 153.5,125.5C 153.5,123.5 153.5,121.5 153.5,119.5 Z"/></g>
<g><path style="opacity:1" fill="#fbd613" d="M 179.5,119.5 C 181.5,119.5 183.5,119.5 185.5,119.5C 185.5,121.5 185.5,123.5 185.5,125.5C 185.5,123.5 185.5,121.5 185.5,119.5C 183.5,119.5 181.5,119.5 179.5,119.5 Z"/></g>
<g><path style="opacity:1" fill="#000000" d="M -0.5,125.5 C 1.5,125.5 3.5,125.5 5.5,125.5C 5.5,148.167 5.5,170.833 5.5,193.5C 3.5,193.5 1.5,193.5 -0.5,193.5C -0.5,170.833 -0.5,148.167 -0.5,125.5 Z"/></g>
<g><path style="opacity:1" fill="#b17901" d="M 5.5,125.5 C 7.83333,125.5 10.1667,125.5 12.5,125.5C 12.8333,125.5 13.1667,125.5 13.5,125.5C 11.3926,126.468 9.0593,126.802 6.5,126.5C 6.5,148.5 6.5,170.5 6.5,192.5C 9.0593,192.198 11.3926,192.532 13.5,193.5C 10.8333,193.5 8.16667,193.5 5.5,193.5C 5.5,170.833 5.5,148.167 5.5,125.5 Z"/></g>
<g><path style="opacity:1" fill="#fbd612" d="M 53.5,125.5 C 53.5,130.167 53.5,134.833 53.5,139.5C 55.5,139.5 57.5,139.5 59.5,139.5C 59.5,164.167 59.5,188.833 59.5,213.5C 57.5,213.5 55.5,213.5 53.5,213.5C 53.5,204.167 53.5,194.833 53.5,185.5C 50.8333,185.5 48.1667,185.5 45.5,185.5C 45.5,178.833 45.5,172.167 45.5,165.5C 48.1667,165.5 50.8333,165.5 53.5,165.5C 53.5,158.833 53.5,152.167 53.5,145.5C 50.8333,145.5 48.1667,145.5 45.5,145.5C 45.5,138.833 45.5,132.167 45.5,125.5C 48.1667,125.5 50.8333,125.5 53.5,125.5 Z"/></g>
<g><path style="opacity:1" fill="#fdae01" d="M 53.5,125.5 C 55.5,125.5 57.5,125.5 59.5,125.5C 59.5,128.167 59.5,130.833 59.5,133.5C 59.5,135.5 59.5,137.5 59.5,139.5C 57.5,139.5 55.5,139.5 53.5,139.5C 53.5,134.833 53.5,130.167 53.5,125.5 Z"/></g>
<g><path style="opacity:1" fill="#edc911" d="M 133.5,125.5 C 133.5,128.167 133.5,130.833 133.5,133.5C 126.833,133.5 120.167,133.5 113.5,133.5C 113.5,130.833 113.5,128.167 113.5,125.5C 120.167,125.5 126.833,125.5 133.5,125.5 Z"/></g>
<g><path style="opacity:1" fill="#fbd613" d="M 185.5,125.5 C 192.167,125.5 198.833,125.5 205.5,125.5C 205.5,127.833 205.5,130.167 205.5,132.5C 210.363,132.181 215.03,132.514 219.5,133.5C 217.5,133.5 215.5,133.5 213.5,133.5C 204.167,133.5 194.833,133.5 185.5,133.5C 185.5,130.833 185.5,128.167 185.5,125.5 Z"/></g>
<g><path style="opacity:1" fill="#ed9202" d="M 305.5,126.5 C 307.833,126.5 310.167,126.5 312.5,126.5C 312.5,150.833 312.5,175.167 312.5,199.5C 310.167,199.5 307.833,199.5 305.5,199.5C 305.5,206.167 305.5,212.833 305.5,219.5C 303.5,219.5 301.5,219.5 299.5,219.5C 299.5,224.167 299.5,228.833 299.5,233.5C 297.5,233.5 295.5,233.5 293.5,233.5C 293.5,237.5 293.5,241.5 293.5,245.5C 290.833,245.5 288.167,245.5 285.5,245.5C 285.5,248.167 285.5,250.833 285.5,253.5C 283.5,253.5 281.5,253.5 279.5,253.5C 279.5,257.5 279.5,261.5 279.5,265.5C 277.5,265.5 275.5,265.5 273.5,265.5C 272.532,267.607 272.198,269.941 272.5,272.5C 269.941,272.198 267.607,272.532 265.5,273.5C 265.5,275.5 265.5,277.5 265.5,279.5C 261.5,279.5 257.5,279.5 253.5,279.5C 253.5,281.5 253.5,283.5 253.5,285.5C 250.833,285.5 248.167,285.5 245.5,285.5C 245.5,288.167 245.5,290.833 245.5,293.5C 241.5,293.5 237.5,293.5 233.5,293.5C 233.5,295.5 233.5,297.5 233.5,299.5C 228.833,299.5 224.167,299.5 219.5,299.5C 219.5,301.5 219.5,303.5 219.5,305.5C 212.833,305.5 206.167,305.5 199.5,305.5C 199.5,308.167 199.5,310.833 199.5,313.5C 172.833,313.5 146.167,313.5 119.5,313.5C 119.5,311.167 119.5,308.833 119.5,306.5C 119.5,306.167 119.5,305.833 119.5,305.5C 137.5,305.5 155.5,305.5 173.5,305.5C 173.5,303.5 173.5,301.5 173.5,299.5C 182.167,299.5 190.833,299.5 199.5,299.5C 199.5,297.5 199.5,295.5 199.5,293.5C 204.167,293.5 208.833,293.5 213.5,293.5C 213.5,290.833 213.5,288.167 213.5,285.5C 217.5,285.5 221.5,285.5 225.5,285.5C 225.5,283.5 225.5,281.5 225.5,279.5C 230.167,279.5 234.833,279.5 239.5,279.5C 239.5,277.5 239.5,275.5 239.5,273.5C 241.5,273.5 243.5,273.5 245.5,273.5C 245.5,270.833 245.5,268.167 245.5,265.5C 248.167,265.5 250.833,265.5 253.5,265.5C 253.5,263.5 253.5,261.5 253.5,259.5C 255.5,259.5 257.5,259.5 259.5,259.5C 259.5,257.5 259.5,255.5 259.5,253.5C 261.5,253.5 263.5,253.5 265.5,253.5C 265.5,250.833 265.5,248.167 265.5,245.5C 268.167,245.5 270.833,245.5 273.5,245.5C 273.5,243.5 273.5,241.5 273.5,239.5C 275.5,239.5 277.5,239.5 279.5,239.5C 279.5,234.833 279.5,230.167 279.5,225.5C 281.5,225.5 283.5,225.5 285.5,225.5C 285.5,221.5 285.5,217.5 285.5,213.5C 288.167,213.5 290.833,213.5 293.5,213.5C 293.5,208.833 293.5,204.167 293.5,199.5C 295.5,199.5 297.5,199.5 299.5,199.5C 299.5,190.833 299.5,182.167 299.5,173.5C 301.5,173.5 303.5,173.5 305.5,173.5C 305.5,157.833 305.5,142.167 305.5,126.5 Z"/></g>
<g><path style="opacity:1" fill="#a76702" d="M 305.5,126.5 C 305.5,126.167 305.5,125.833 305.5,125.5C 308.167,125.5 310.833,125.5 313.5,125.5C 313.5,150.167 313.5,174.833 313.5,199.5C 313.167,199.5 312.833,199.5 312.5,199.5C 312.5,175.167 312.5,150.833 312.5,126.5C 310.167,126.5 307.833,126.5 305.5,126.5 Z"/></g>
<g><path style="opacity:1" fill="#060606" d="M 313.5,125.5 C 315.5,125.5 317.5,125.5 319.5,125.5C 319.5,150.5 319.5,175.5 319.5,200.5C 317.5,200.5 315.5,200.5 313.5,200.5C 313.5,200.167 313.5,199.833 313.5,199.5C 313.5,174.833 313.5,150.167 313.5,125.5 Z"/></g>
<g><path style="opacity:1" fill="#fbd512" d="M 99.5,133.5 C 99.5,135.5 99.5,137.5 99.5,139.5C 97.5,139.5 95.5,139.5 93.5,139.5C 93.5,137.5 93.5,135.5 93.5,133.5C 95.5,133.5 97.5,133.5 99.5,133.5 Z"/></g>
<g><path style="opacity:1" fill="#f09603" d="M 213.5,133.5 C 215.5,133.5 217.5,133.5 219.5,133.5C 219.5,135.5 219.5,137.5 219.5,139.5C 221.5,139.5 223.5,139.5 225.5,139.5C 225.5,146.167 225.5,152.833 225.5,159.5C 223.5,159.5 221.5,159.5 219.5,159.5C 219.5,161.5 219.5,163.5 219.5,165.5C 217.5,165.5 215.5,165.5 213.5,165.5C 213.5,168.167 213.5,170.833 213.5,173.5C 211.167,173.5 208.833,173.5 206.5,173.5C 205.539,175.265 205.205,177.265 205.5,179.5C 203.5,179.5 201.5,179.5 199.5,179.5C 199.5,181.5 199.5,183.5 199.5,185.5C 201.5,185.5 203.5,185.5 205.5,185.5C 205.5,194.833 205.5,204.167 205.5,213.5C 205.5,215.5 205.5,217.5 205.5,219.5C 203.5,219.5 201.5,219.5 199.5,219.5C 199.5,221.5 199.5,223.5 199.5,225.5C 192.833,225.5 186.167,225.5 179.5,225.5C 179.5,223.5 179.5,221.5 179.5,219.5C 177.5,219.5 175.5,219.5 173.5,219.5C 173.5,217.5 173.5,215.5 173.5,213.5C 180.167,213.5 186.833,213.5 193.5,213.5C 193.5,202.167 193.5,190.833 193.5,179.5C 190.833,179.5 188.167,179.5 185.5,179.5C 185.5,177.5 185.5,175.5 185.5,173.5C 188.167,173.5 190.833,173.5 193.5,173.5C 193.5,170.833 193.5,168.167 193.5,165.5C 195.5,165.5 197.5,165.5 199.5,165.5C 199.5,163.5 199.5,161.5 199.5,159.5C 201.5,159.5 203.5,159.5 205.5,159.5C 205.5,157.5 205.5,155.5 205.5,153.5C 208.167,153.5 210.833,153.5 213.5,153.5C 213.5,146.833 213.5,140.167 213.5,133.5 Z"/></g>
<g><path style="opacity:1" fill="#fad512" d="M 219.5,133.5 C 221.5,133.5 223.5,133.5 225.5,133.5C 225.5,135.5 225.5,137.5 225.5,139.5C 225.5,137.5 225.5,135.5 225.5,133.5C 223.5,133.5 221.5,133.5 219.5,133.5 Z"/></g>
<g><path style="opacity:1" fill="#fce71f" d="M 272.5,125.5 C 272.833,125.5 273.167,125.5 273.5,125.5C 273.5,128.167 273.5,130.833 273.5,133.5C 273.5,150.833 273.5,168.167 273.5,185.5C 273.5,192.167 273.5,198.833 273.5,205.5C 270.833,205.5 268.167,205.5 265.5,205.5C 265.5,203.5 265.5,201.5 265.5,199.5C 267.833,199.5 270.167,199.5 272.5,199.5C 272.5,174.833 272.5,150.167 272.5,125.5 Z"/></g>
<g><path style="opacity:1" fill="#fbd612" d="M 273.5,133.5 C 275.5,133.5 277.5,133.5 279.5,133.5C 279.5,150.833 279.5,168.167 279.5,185.5C 277.5,185.5 275.5,185.5 273.5,185.5C 273.5,168.167 273.5,150.833 273.5,133.5 Z"/></g>
<g><path style="opacity:1" fill="#fad614" d="M 225.5,139.5 C 228.167,139.5 230.833,139.5 233.5,139.5C 233.5,144.167 233.5,148.833 233.5,153.5C 231.167,153.5 228.833,153.5 226.5,153.5C 226.795,155.735 226.461,157.735 225.5,159.5C 225.5,152.833 225.5,146.167 225.5,139.5 Z"/></g>
<g><path style="opacity:1" fill="#fbd814" d="M 93.5,145.5 C 93.5,148.167 93.5,150.833 93.5,153.5C 90.8333,153.5 88.1667,153.5 85.5,153.5C 85.5,150.833 85.5,148.167 85.5,145.5C 88.1667,145.5 90.8333,145.5 93.5,145.5 Z"/></g>
<g><path style="opacity:1" fill="#fbc95c" d="M 145.5,125.5 C 148.167,125.5 150.833,125.5 153.5,125.5C 153.5,130.167 153.5,134.833 153.5,139.5C 150.833,139.5 148.167,139.5 145.5,139.5C 145.5,141.5 145.5,143.5 145.5,145.5C 138.833,145.5 132.167,145.5 125.5,145.5C 125.5,148.167 125.5,150.833 125.5,153.5C 123.5,153.5 121.5,153.5 119.5,153.5C 119.5,155.5 119.5,157.5 119.5,159.5C 117.5,159.5 115.5,159.5 113.5,159.5C 113.5,154.833 113.5,150.167 113.5,145.5C 115.5,145.5 117.5,145.5 119.5,145.5C 119.5,143.5 119.5,141.5 119.5,139.5C 126.167,139.5 132.833,139.5 139.5,139.5C 139.5,137.5 139.5,135.5 139.5,133.5C 141.5,133.5 143.5,133.5 145.5,133.5C 145.5,130.833 145.5,128.167 145.5,125.5 Z"/></g>
<g><path style="opacity:1" fill="#fed15c" d="M 119.5,159.5 C 121.5,159.5 123.5,159.5 125.5,159.5C 125.5,161.5 125.5,163.5 125.5,165.5C 125.5,163.5 125.5,161.5 125.5,159.5C 123.5,159.5 121.5,159.5 119.5,159.5 Z"/></g>
<g><path style="opacity:1" fill="#ffce56" d="M 125.5,165.5 C 128.167,165.5 130.833,165.5 133.5,165.5C 133.5,168.167 133.5,170.833 133.5,173.5C 130.833,173.5 128.167,173.5 125.5,173.5C 125.5,170.833 125.5,168.167 125.5,165.5 Z"/></g>
<g><path style="opacity:1" fill="#0b0701" d="M 5.5,193.5 C 8.16667,193.5 10.8333,193.5 13.5,193.5C 13.5,202.167 13.5,210.833 13.5,219.5C 15.5,219.5 17.5,219.5 19.5,219.5C 19.5,224.167 19.5,228.833 19.5,233.5C 21.5,233.5 23.5,233.5 25.5,233.5C 25.5,237.5 25.5,241.5 25.5,245.5C 25.5,245.833 25.5,246.167 25.5,246.5C 23.2075,246.756 21.0408,246.423 19,245.5C 18.5012,241.514 18.3345,237.514 18.5,233.5C 16.5,233.5 14.5,233.5 12.5,233.5C 12.5,229.167 12.5,224.833 12.5,220.5C 10.1667,220.5 7.83333,220.5 5.5,220.5C 5.5,211.5 5.5,202.5 5.5,193.5 Z"/></g>
<g><path style="opacity:1" fill="#f19602" d="M 145.5,213.5 C 145.5,215.5 145.5,217.5 145.5,219.5C 143.5,219.5 141.5,219.5 139.5,219.5C 139.5,221.5 139.5,223.5 139.5,225.5C 132.833,225.5 126.167,225.5 119.5,225.5C 119.5,223.5 119.5,221.5 119.5,219.5C 117.5,219.5 115.5,219.5 113.5,219.5C 113.5,217.5 113.5,215.5 113.5,213.5C 113.5,210.833 113.5,208.167 113.5,205.5C 115.5,205.5 117.5,205.5 119.5,205.5C 119.5,208.167 119.5,210.833 119.5,213.5C 126.167,213.5 132.833,213.5 139.5,213.5C 139.5,210.833 139.5,208.167 139.5,205.5C 144.167,205.5 148.833,205.5 153.5,205.5C 153.5,203.5 153.5,201.5 153.5,199.5C 157.5,199.5 161.5,199.5 165.5,199.5C 165.5,201.5 165.5,203.5 165.5,205.5C 168.167,205.5 170.833,205.5 173.5,205.5C 173.5,207.833 173.5,210.167 173.5,212.5C 163.985,212.173 154.652,212.506 145.5,213.5 Z"/></g>
<g><path style="opacity:1" fill="#fbda17" d="M 112.5,173.5 C 113.461,175.265 113.795,177.265 113.5,179.5C 115.5,179.5 117.5,179.5 119.5,179.5C 119.5,181.5 119.5,183.5 119.5,185.5C 117.5,185.5 115.5,185.5 113.5,185.5C 113.5,192.167 113.5,198.833 113.5,205.5C 113.5,208.167 113.5,210.833 113.5,213.5C 110.833,213.5 108.167,213.5 105.5,213.5C 105.5,210.833 105.5,208.167 105.5,205.5C 107.833,205.5 110.167,205.5 112.5,205.5C 112.5,194.833 112.5,184.167 112.5,173.5 Z"/></g>
<g><path style="opacity:1" fill="#fbda17" d="M 206.5,173.5 C 206.5,184.167 206.5,194.833 206.5,205.5C 208.833,205.5 211.167,205.5 213.5,205.5C 213.5,208.167 213.5,210.833 213.5,213.5C 210.833,213.5 208.167,213.5 205.5,213.5C 205.5,204.167 205.5,194.833 205.5,185.5C 203.5,185.5 201.5,185.5 199.5,185.5C 199.5,183.5 199.5,181.5 199.5,179.5C 201.5,179.5 203.5,179.5 205.5,179.5C 205.205,177.265 205.539,175.265 206.5,173.5 Z"/></g>
<g><path style="opacity:1" fill="#fbd612" d="M 59.5,213.5 C 61.5,213.5 63.5,213.5 65.5,213.5C 65.5,217.5 65.5,221.5 65.5,225.5C 63.5,225.5 61.5,225.5 59.5,225.5C 59.5,221.5 59.5,217.5 59.5,213.5 Z"/></g>
<g><path style="opacity:1" fill="#fad613" d="M 145.5,213.5 C 148.167,213.5 150.833,213.5 153.5,213.5C 153.5,215.5 153.5,217.5 153.5,219.5C 150.833,219.5 148.167,219.5 145.5,219.5C 145.5,217.5 145.5,215.5 145.5,213.5 Z"/></g>
<g><path style="opacity:1" fill="#fad613" d="M 165.5,213.5 C 168.167,213.5 170.833,213.5 173.5,213.5C 173.5,215.5 173.5,217.5 173.5,219.5C 170.833,219.5 168.167,219.5 165.5,219.5C 165.5,217.5 165.5,215.5 165.5,213.5 Z"/></g>
<g><path style="opacity:1" fill="#fbd713" d="M 265.5,213.5 C 265.5,215.5 265.5,217.5 265.5,219.5C 263.5,219.5 261.5,219.5 259.5,219.5C 259.5,217.5 259.5,215.5 259.5,213.5C 261.5,213.5 263.5,213.5 265.5,213.5 Z"/></g>
<g><path style="opacity:1" fill="#0a0500" d="M 312.5,199.5 C 312.833,199.5 313.167,199.5 313.5,199.5C 313.5,199.833 313.5,200.167 313.5,200.5C 313.5,207.167 313.5,213.833 313.5,220.5C 311.167,220.5 308.833,220.5 306.5,220.5C 306.5,224.833 306.5,229.167 306.5,233.5C 304.5,233.5 302.5,233.5 300.5,233.5C 300.817,237.702 300.483,241.702 299.5,245.5C 297.5,245.5 295.5,245.5 293.5,245.5C 293.5,241.5 293.5,237.5 293.5,233.5C 295.5,233.5 297.5,233.5 299.5,233.5C 299.5,228.833 299.5,224.167 299.5,219.5C 301.5,219.5 303.5,219.5 305.5,219.5C 305.5,212.833 305.5,206.167 305.5,199.5C 307.833,199.5 310.167,199.5 312.5,199.5 Z"/></g>
<g><path style="opacity:1" fill="#fad512" d="M 113.5,219.5 C 115.5,219.5 117.5,219.5 119.5,219.5C 119.5,221.5 119.5,223.5 119.5,225.5C 117.5,225.5 115.5,225.5 113.5,225.5C 113.5,223.5 113.5,221.5 113.5,219.5 Z"/></g>
<g><path style="opacity:1" fill="#fad512" d="M 205.5,219.5 C 205.5,221.5 205.5,223.5 205.5,225.5C 203.5,225.5 201.5,225.5 199.5,225.5C 199.5,223.5 199.5,221.5 199.5,219.5C 201.5,219.5 203.5,219.5 205.5,219.5 Z"/></g>
<g><path style="opacity:1" fill="#fbd613" d="M 65.5,225.5 C 68.1667,225.5 70.8333,225.5 73.5,225.5C 73.5,228.167 73.5,230.833 73.5,233.5C 70.8333,233.5 68.1667,233.5 65.5,233.5C 65.5,230.833 65.5,228.167 65.5,225.5 Z"/></g>
<g><path style="opacity:1" fill="#fbd613" d="M 259.5,225.5 C 259.5,228.167 259.5,230.833 259.5,233.5C 257.5,233.5 255.5,233.5 253.5,233.5C 253.5,230.833 253.5,228.167 253.5,225.5C 255.5,225.5 257.5,225.5 259.5,225.5 Z"/></g>
<g><path style="opacity:1" fill="#fbd613" d="M 253.5,233.5 C 253.5,235.5 253.5,237.5 253.5,239.5C 250.833,239.5 248.167,239.5 245.5,239.5C 245.5,237.5 245.5,235.5 245.5,233.5C 248.167,233.5 250.833,233.5 253.5,233.5 Z"/></g>
<g><path style="opacity:1" fill="#fbd813" d="M 73.5,239.5 C 75.5,239.5 77.5,239.5 79.5,239.5C 79.5,241.5 79.5,243.5 79.5,245.5C 77.5,245.5 75.5,245.5 73.5,245.5C 73.5,243.5 73.5,241.5 73.5,239.5 Z"/></g>
<g><path style="opacity:1" fill="#fbd813" d="M 245.5,239.5 C 245.5,241.5 245.5,243.5 245.5,245.5C 243.5,245.5 241.5,245.5 239.5,245.5C 239.5,243.5 239.5,241.5 239.5,239.5C 241.5,239.5 243.5,239.5 245.5,239.5 Z"/></g>
<g><path style="opacity:1" fill="#533a07" d="M 25.5,246.5 C 25.5,246.167 25.5,245.833 25.5,245.5C 28.1667,245.5 30.8333,245.5 33.5,245.5C 33.5,248.167 33.5,250.833 33.5,253.5C 33.1667,253.5 32.8333,253.5 32.5,253.5C 32.5,251.167 32.5,248.833 32.5,246.5C 30.1667,246.5 27.8333,246.5 25.5,246.5 Z"/></g>
<g><path style="opacity:1" fill="#674d2d" d="M 293.5,245.5 C 295.5,245.5 297.5,245.5 299.5,245.5C 297.735,246.461 295.735,246.795 293.5,246.5C 291.167,246.5 288.833,246.5 286.5,246.5C 286.5,248.833 286.5,251.167 286.5,253.5C 286.167,253.5 285.833,253.5 285.5,253.5C 285.5,250.833 285.5,248.167 285.5,245.5C 288.167,245.5 290.833,245.5 293.5,245.5 Z"/></g>
<g><path style="opacity:1" fill="#030303" d="M 25.5,246.5 C 27.8333,246.5 30.1667,246.5 32.5,246.5C 32.5,248.833 32.5,251.167 32.5,253.5C 30.1667,253.5 27.8333,253.5 25.5,253.5C 25.5,251.167 25.5,248.833 25.5,246.5 Z"/></g>
<g><path style="opacity:1" fill="#fbd613" d="M 79.5,245.5 C 81.5,245.5 83.5,245.5 85.5,245.5C 85.5,248.167 85.5,250.833 85.5,253.5C 83.5,253.5 81.5,253.5 79.5,253.5C 79.5,250.833 79.5,248.167 79.5,245.5 Z"/></g>
<g><path style="opacity:1" fill="#fbd613" d="M 239.5,245.5 C 239.5,248.167 239.5,250.833 239.5,253.5C 237.5,253.5 235.5,253.5 233.5,253.5C 233.5,250.833 233.5,248.167 233.5,245.5C 235.5,245.5 237.5,245.5 239.5,245.5 Z"/></g>
<g><path style="opacity:1" fill="#000000" d="M 293.5,246.5 C 293.5,248.833 293.5,251.167 293.5,253.5C 291.167,253.5 288.833,253.5 286.5,253.5C 286.5,251.167 286.5,248.833 286.5,246.5C 288.833,246.5 291.167,246.5 293.5,246.5 Z"/></g>
<g><path style="opacity:1" fill="#fbd613" d="M 85.5,253.5 C 88.1667,253.5 90.8333,253.5 93.5,253.5C 93.5,255.5 93.5,257.5 93.5,259.5C 90.8333,259.5 88.1667,259.5 85.5,259.5C 85.5,257.5 85.5,255.5 85.5,253.5 Z"/></g>
<g><path style="opacity:1" fill="#fbd613" d="M 233.5,253.5 C 233.5,255.5 233.5,257.5 233.5,259.5C 230.833,259.5 228.167,259.5 225.5,259.5C 225.5,257.5 225.5,255.5 225.5,253.5C 228.167,253.5 230.833,253.5 233.5,253.5 Z"/></g>
<g><path style="opacity:1" fill="#070401" d="M 285.5,253.5 C 285.833,253.5 286.167,253.5 286.5,253.5C 286.5,257.833 286.5,262.167 286.5,266.5C 284.5,266.5 282.5,266.5 280.5,266.5C 280.5,268.833 280.5,271.167 280.5,273.5C 278.167,273.5 275.833,273.5 273.5,273.5C 273.5,270.833 273.5,268.167 273.5,265.5C 275.5,265.5 277.5,265.5 279.5,265.5C 279.5,261.5 279.5,257.5 279.5,253.5C 281.5,253.5 283.5,253.5 285.5,253.5 Z"/></g>
<g><path style="opacity:1" fill="#040301" d="M 32.5,253.5 C 32.8333,253.5 33.1667,253.5 33.5,253.5C 35.5,253.5 37.5,253.5 39.5,253.5C 39.5,255.5 39.5,257.5 39.5,259.5C 41.5,259.5 43.5,259.5 45.5,259.5C 45.5,264.167 45.5,268.833 45.5,273.5C 43.1667,273.5 40.8333,273.5 38.5,273.5C 38.5,269.167 38.5,264.833 38.5,260.5C 33.0936,261.265 31.0936,258.931 32.5,253.5 Z"/></g>
<g><path style="opacity:1" fill="#fbd713" d="M 99.5,259.5 C 101.5,259.5 103.5,259.5 105.5,259.5C 105.5,261.5 105.5,263.5 105.5,265.5C 103.5,265.5 101.5,265.5 99.5,265.5C 99.5,263.5 99.5,261.5 99.5,259.5 Z"/></g>
<g><path style="opacity:1" fill="#fbd713" d="M 219.5,259.5 C 219.5,261.5 219.5,263.5 219.5,265.5C 217.5,265.5 215.5,265.5 213.5,265.5C 213.5,263.5 213.5,261.5 213.5,259.5C 215.5,259.5 217.5,259.5 219.5,259.5 Z"/></g>
<g><path style="opacity:1" fill="#fbd814" d="M 113.5,265.5 C 115.5,265.5 117.5,265.5 119.5,265.5C 119.5,267.833 119.5,270.167 119.5,272.5C 117.5,272.5 115.5,272.5 113.5,272.5C 113.5,270.167 113.5,267.833 113.5,265.5 Z"/></g>
<g><path style="opacity:1" fill="#fbd814" d="M 205.5,265.5 C 205.5,267.833 205.5,270.167 205.5,272.5C 203.5,272.5 201.5,272.5 199.5,272.5C 199.5,270.167 199.5,267.833 199.5,265.5C 201.5,265.5 203.5,265.5 205.5,265.5 Z"/></g>
<g><path style="opacity:1" fill="#a86804" d="M 273.5,265.5 C 273.5,268.167 273.5,270.833 273.5,273.5C 270.833,273.5 268.167,273.5 265.5,273.5C 267.607,272.532 269.941,272.198 272.5,272.5C 272.198,269.941 272.532,267.607 273.5,265.5 Z"/></g>
<g><path style="opacity:1" fill="#b17802" d="M 45.5,259.5 C 46.4849,263.634 46.8182,267.968 46.5,272.5C 51.0323,272.182 55.3656,272.515 59.5,273.5C 54.8333,273.5 50.1667,273.5 45.5,273.5C 45.5,268.833 45.5,264.167 45.5,259.5 Z"/></g>
<g><path style="opacity:1" fill="#030201" d="M 45.5,273.5 C 50.1667,273.5 54.8333,273.5 59.5,273.5C 59.5,275.5 59.5,277.5 59.5,279.5C 61.5,279.5 63.5,279.5 65.5,279.5C 65.5,281.5 65.5,283.5 65.5,285.5C 65.5,285.833 65.5,286.167 65.5,286.5C 60.0687,287.906 57.7353,285.906 58.5,280.5C 54.1667,280.5 49.8333,280.5 45.5,280.5C 45.5,278.167 45.5,275.833 45.5,273.5 Z"/></g>
<g><path style="opacity:1" fill="#fbd612" d="M 133.5,273.5 C 150.833,273.5 168.167,273.5 185.5,273.5C 185.5,275.5 185.5,277.5 185.5,279.5C 168.167,279.5 150.833,279.5 133.5,279.5C 133.5,277.5 133.5,275.5 133.5,273.5 Z"/></g>
<g><path style="opacity:1" fill="#070401" d="M 265.5,273.5 C 268.167,273.5 270.833,273.5 273.5,273.5C 273.5,275.833 273.5,278.167 273.5,280.5C 271.167,280.5 268.833,280.5 266.5,280.5C 266.5,282.5 266.5,284.5 266.5,286.5C 262.167,286.5 257.833,286.5 253.5,286.5C 253.5,286.167 253.5,285.833 253.5,285.5C 253.5,283.5 253.5,281.5 253.5,279.5C 257.5,279.5 261.5,279.5 265.5,279.5C 265.5,277.5 265.5,275.5 265.5,273.5 Z"/></g>
<g><path style="opacity:1" fill="#523808" d="M 65.5,286.5 C 65.5,286.167 65.5,285.833 65.5,285.5C 68.1667,285.5 70.8333,285.5 73.5,285.5C 73.5,288.167 73.5,290.833 73.5,293.5C 73.1667,293.5 72.8333,293.5 72.5,293.5C 72.5,291.167 72.5,288.833 72.5,286.5C 70.1667,286.5 67.8333,286.5 65.5,286.5 Z"/></g>
<g><path style="opacity:1" fill="#604c34" d="M 253.5,285.5 C 253.5,285.833 253.5,286.167 253.5,286.5C 253.5,288.833 253.5,291.167 253.5,293.5C 251.167,293.5 248.833,293.5 246.5,293.5C 246.795,295.735 246.461,297.735 245.5,299.5C 245.5,297.5 245.5,295.5 245.5,293.5C 245.5,290.833 245.5,288.167 245.5,285.5C 248.167,285.5 250.833,285.5 253.5,285.5 Z"/></g>
<g><path style="opacity:1" fill="#030303" d="M 65.5,286.5 C 67.8333,286.5 70.1667,286.5 72.5,286.5C 72.5,288.833 72.5,291.167 72.5,293.5C 70.1667,293.5 67.8333,293.5 65.5,293.5C 65.5,291.167 65.5,288.833 65.5,286.5 Z"/></g>
<g><path style="opacity:1" fill="#000000" d="M 246.5,286.5 C 248.5,286.5 250.5,286.5 252.5,286.5C 252.5,288.5 252.5,290.5 252.5,292.5C 250.5,292.5 248.5,292.5 246.5,292.5C 246.5,290.5 246.5,288.5 246.5,286.5 Z"/></g>
<g><path style="opacity:1" fill="#0e0a05" d="M 245.5,293.5 C 245.5,295.5 245.5,297.5 245.5,299.5C 241.702,300.483 237.702,300.817 233.5,300.5C 233.5,302.5 233.5,304.5 233.5,306.5C 229.167,306.5 224.833,306.5 220.5,306.5C 220.5,308.833 220.5,311.167 220.5,313.5C 213.833,313.5 207.167,313.5 200.5,313.5C 200.5,315.5 200.5,317.5 200.5,319.5C 200.167,319.5 199.833,319.5 199.5,319.5C 199.5,317.5 199.5,315.5 199.5,313.5C 199.5,310.833 199.5,308.167 199.5,305.5C 206.167,305.5 212.833,305.5 219.5,305.5C 219.5,303.5 219.5,301.5 219.5,299.5C 224.167,299.5 228.833,299.5 233.5,299.5C 233.5,297.5 233.5,295.5 233.5,293.5C 237.5,293.5 241.5,293.5 245.5,293.5 Z"/></g>
<g><path style="opacity:1" fill="#0b0601" d="M 72.5,293.5 C 72.8333,293.5 73.1667,293.5 73.5,293.5C 77.5,293.5 81.5,293.5 85.5,293.5C 85.5,295.5 85.5,297.5 85.5,299.5C 92.1667,299.5 98.8333,299.5 105.5,299.5C 105.5,301.5 105.5,303.5 105.5,305.5C 110.167,305.5 114.833,305.5 119.5,305.5C 119.5,305.833 119.5,306.167 119.5,306.5C 114.833,306.5 110.167,306.5 105.5,306.5C 98.8333,306.5 92.1667,306.5 85.5,306.5C 85.5,304.5 85.5,302.5 85.5,300.5C 81.4862,300.666 77.4862,300.499 73.5,300C 72.5769,297.959 72.2436,295.792 72.5,293.5 Z"/></g>
<g><path style="opacity:1" fill="#111110" d="M 105.5,306.5 C 110.167,306.5 114.833,306.5 119.5,306.5C 119.5,308.833 119.5,311.167 119.5,313.5C 119.5,315.5 119.5,317.5 119.5,319.5C 119.167,319.5 118.833,319.5 118.5,319.5C 118.5,317.5 118.5,315.5 118.5,313.5C 114.167,313.5 109.833,313.5 105.5,313.5C 105.5,311.167 105.5,308.833 105.5,306.5 Z"/></g>
<g><path style="opacity:1" fill="#000000" d="M 119.5,313.5 C 146.167,313.5 172.833,313.5 199.5,313.5C 199.5,315.5 199.5,317.5 199.5,319.5C 172.833,319.5 146.167,319.5 119.5,319.5C 119.5,317.5 119.5,315.5 119.5,313.5 Z"/></g>
</svg>
