<?xml version="1.0" encoding="UTF-8"?>
<!DOCTYPE svg PUBLIC "-//W3C//DTD SVG 1.1//EN" "http://www.w3.org/Graphics/SVG/1.1/DTD/svg11.dtd">
<svg xmlns="http://www.w3.org/2000/svg" version="1.1" width="320px" height="320px" style="shape-rendering:geometricPrecision; text-rendering:geometricPrecision; image-rendering:optimizeQuality; fill-rule:evenodd; clip-rule:evenodd" xmlns:xlink="http://www.w3.org/1999/xlink">
<g><path style="opacity:1" fill="#05080d" d="M 119.5,-0.5 C 146.167,-0.5 172.833,-0.5 199.5,-0.5C 199.5,1.16667 199.5,2.83333 199.5,4.5C 201.167,4.5 202.833,4.5 204.5,4.5C 204.5,6.16667 204.5,7.83333 204.5,9.5C 209.5,9.5 214.5,9.5 219.5,9.5C 219.5,11.1667 219.5,12.8333 219.5,14.5C 224.5,14.5 229.5,14.5 234.5,14.5C 234.5,16.1667 234.5,17.8333 234.5,19.5C 237.833,19.5 241.167,19.5 244.5,19.5C 244.5,21.1667 244.5,22.8333 244.5,24.5C 246.167,24.5 247.833,24.5 249.5,24.5C 249.5,26.1667 249.5,27.8333 249.5,29.5C 251.167,29.5 252.833,29.5 254.5,29.5C 254.5,31.1667 254.5,32.8333 254.5,34.5C 257.833,34.5 261.167,34.5 264.5,34.5C 264.5,36.1667 264.5,37.8333 264.5,39.5C 266.167,39.5 267.833,39.5 269.5,39.5C 269.5,41.1667 269.5,42.8333 269.5,44.5C 271.167,44.5 272.833,44.5 274.5,44.5C 274.5,46.1667 274.5,47.8333 274.5,49.5C 276.167,49.5 277.833,49.5 279.5,49.5C 279.5,51.1667 279.5,52.8333 279.5,54.5C 281.167,54.5 282.833,54.5 284.5,54.5C 284.5,57.8333 284.5,61.1667 284.5,64.5C 286.167,64.5 287.833,64.5 289.5,64.5C 289.5,66.1667 289.5,67.8333 289.5,69.5C 291.167,69.5 292.833,69.5 294.5,69.5C 294.5,71.1667 294.5,72.8333 294.5,74.5C 296.167,74.5 297.833,74.5 299.5,74.5C 299.5,77.8333 299.5,81.1667 299.5,84.5C 301.167,84.5 302.833,84.5 304.5,84.5C 304.5,87.8333 304.5,91.1667 304.5,94.5C 306.167,94.5 307.833,94.5 309.5,94.5C 309.5,99.5 309.5,104.5 309.5,109.5C 311.167,109.5 312.833,109.5 314.5,109.5C 314.5,116.167 314.5,122.833 314.5,129.5C 316.167,129.5 317.833,129.5 319.5,129.5C 319.5,149.5 319.5,169.5 319.5,189.5C 317.833,189.5 316.167,189.5 314.5,189.5C 314.5,197.833 314.5,206.167 314.5,214.5C 312.833,214.5 311.167,214.5 309.5,214.5C 309.5,217.833 309.5,221.167 309.5,224.5C 307.833,224.5 306.167,224.5 304.5,224.5C 304.5,227.833 304.5,231.167 304.5,234.5C 302.833,234.5 301.167,234.5 299.5,234.5C 299.5,237.833 299.5,241.167 299.5,244.5C 297.833,244.5 296.167,244.5 294.5,244.5C 294.5,246.167 294.5,247.833 294.5,249.5C 292.833,249.5 291.167,249.5 289.5,249.5C 289.5,252.833 289.5,256.167 289.5,259.5C 287.833,259.5 286.167,259.5 284.5,259.5C 284.5,261.167 284.5,262.833 284.5,264.5C 282.833,264.5 281.167,264.5 279.5,264.5C 279.5,266.167 279.5,267.833 279.5,269.5C 277.833,269.5 276.167,269.5 274.5,269.5C 274.5,271.167 274.5,272.833 274.5,274.5C 272.833,274.5 271.167,274.5 269.5,274.5C 269.5,276.167 269.5,277.833 269.5,279.5C 267.833,279.5 266.167,279.5 264.5,279.5C 264.5,281.167 264.5,282.833 264.5,284.5C 262.833,284.5 261.167,284.5 259.5,284.5C 259.5,286.167 259.5,287.833 259.5,289.5C 256.167,289.5 252.833,289.5 249.5,289.5C 249.5,291.167 249.5,292.833 249.5,294.5C 247.833,294.5 246.167,294.5 244.5,294.5C 244.5,296.167 244.5,297.833 244.5,299.5C 241.167,299.5 237.833,299.5 234.5,299.5C 234.5,301.167 234.5,302.833 234.5,304.5C 231.167,304.5 227.833,304.5 224.5,304.5C 224.5,306.167 224.5,307.833 224.5,309.5C 219.5,309.5 214.5,309.5 209.5,309.5C 209.5,311.167 209.5,312.833 209.5,314.5C 207.833,314.5 206.167,314.5 204.5,314.5C 204.5,316.167 204.5,317.833 204.5,319.5C 177.833,319.5 151.167,319.5 124.5,319.5C 124.5,317.833 124.5,316.167 124.5,314.5C 121.167,314.5 117.833,314.5 114.5,314.5C 114.5,312.833 114.5,311.167 114.5,309.5C 109.5,309.5 104.5,309.5 99.5,309.5C 99.5,307.833 99.5,306.167 99.5,304.5C 94.5,304.5 89.5,304.5 84.5,304.5C 84.5,302.833 84.5,301.167 84.5,299.5C 81.1667,299.5 77.8333,299.5 74.5,299.5C 74.5,297.833 74.5,296.167 74.5,294.5C 72.8333,294.5 71.1667,294.5 69.5,294.5C 69.5,292.833 69.5,291.167 69.5,289.5C 67.8333,289.5 66.1667,289.5 64.5,289.5C 64.5,287.833 64.5,286.167 64.5,284.5C 61.1667,284.5 57.8333,284.5 54.5,284.5C 54.5,282.833 54.5,281.167 54.5,279.5C 52.8333,279.5 51.1667,279.5 49.5,279.5C 49.5,277.833 49.5,276.167 49.5,274.5C 47.8333,274.5 46.1667,274.5 44.5,274.5C 44.5,272.833 44.5,271.167 44.5,269.5C 42.8333,269.5 41.1667,269.5 39.5,269.5C 39.5,267.833 39.5,266.167 39.5,264.5C 37.8333,264.5 36.1667,264.5 34.5,264.5C 34.5,261.167 34.5,257.833 34.5,254.5C 32.8333,254.5 31.1667,254.5 29.5,254.5C 29.5,252.833 29.5,251.167 29.5,249.5C 27.8333,249.5 26.1667,249.5 24.5,249.5C 24.5,247.833 24.5,246.167 24.5,244.5C 22.8333,244.5 21.1667,244.5 19.5,244.5C 19.5,241.167 19.5,237.833 19.5,234.5C 17.8333,234.5 16.1667,234.5 14.5,234.5C 14.5,229.5 14.5,224.5 14.5,219.5C 12.8333,219.5 11.1667,219.5 9.5,219.5C 9.5,216.167 9.5,212.833 9.5,209.5C 7.83333,209.5 6.16667,209.5 4.5,209.5C 4.5,202.833 4.5,196.167 4.5,189.5C 2.83333,189.5 1.16667,189.5 -0.5,189.5C -0.5,169.5 -0.5,149.5 -0.5,129.5C 1.16667,129.5 2.83333,129.5 4.5,129.5C 4.5,124.5 4.5,119.5 4.5,114.5C 6.16667,114.5 7.83333,114.5 9.5,114.5C 9.5,109.5 9.5,104.5 9.5,99.5C 11.1667,99.5 12.8333,99.5 14.5,99.5C 14.5,96.1667 14.5,92.8333 14.5,89.5C 16.1667,89.5 17.8333,89.5 19.5,89.5C 19.5,86.1667 19.5,82.8333 19.5,79.5C 21.1667,79.5 22.8333,79.5 24.5,79.5C 24.5,76.1667 24.5,72.8333 24.5,69.5C 26.1667,69.5 27.8333,69.5 29.5,69.5C 29.5,67.8333 29.5,66.1667 29.5,64.5C 31.1667,64.5 32.8333,64.5 34.5,64.5C 34.5,61.1667 34.5,57.8333 34.5,54.5C 36.1667,54.5 37.8333,54.5 39.5,54.5C 39.5,52.8333 39.5,51.1667 39.5,49.5C 41.1667,49.5 42.8333,49.5 44.5,49.5C 44.5,47.8333 44.5,46.1667 44.5,44.5C 46.1667,44.5 47.8333,44.5 49.5,44.5C 49.5,42.8333 49.5,41.1667 49.5,39.5C 52.8333,39.5 56.1667,39.5 59.5,39.5C 59.5,37.8333 59.5,36.1667 59.5,34.5C 61.1667,34.5 62.8333,34.5 64.5,34.5C 64.5,32.8333 64.5,31.1667 64.5,29.5C 66.1667,29.5 67.8333,29.5 69.5,29.5C 69.5,27.8333 69.5,26.1667 69.5,24.5C 72.5184,24.6646 75.5184,24.498 78.5,24C 79.3802,22.6439 79.7135,21.1439 79.5,19.5C 82.8333,19.5 86.1667,19.5 89.5,19.5C 89.5,17.8333 89.5,16.1667 89.5,14.5C 94.5,14.5 99.5,14.5 104.5,14.5C 104.5,12.8333 104.5,11.1667 104.5,9.5C 109.5,9.5 114.5,9.5 119.5,9.5C 119.5,6.16667 119.5,2.83333 119.5,-0.5 Z"/></g>
<g><path style="opacity:1" fill="#5c708c" d="M 144.5,64.5 C 141.167,64.5 137.833,64.5 134.5,64.5C 134.5,62.8333 134.5,61.1667 134.5,59.5C 137.833,59.5 141.167,59.5 144.5,59.5C 144.5,61.1667 144.5,62.8333 144.5,64.5 Z"/></g>
<g><path style="opacity:1" fill="#52647e" d="M 134.5,64.5 C 134.5,66.1667 134.5,67.8333 134.5,69.5C 132.833,69.5 131.167,69.5 129.5,69.5C 129.5,67.8333 129.5,66.1667 129.5,64.5C 131.167,64.5 132.833,64.5 134.5,64.5 Z"/></g>
<g><path style="opacity:1" fill="#c9cfd6" d="M 134.5,64.5 C 137.833,64.5 141.167,64.5 144.5,64.5C 144.5,66.1667 144.5,67.8333 144.5,69.5C 141.167,69.5 137.833,69.5 134.5,69.5C 134.5,67.8333 134.5,66.1667 134.5,64.5 Z"/></g>
<g><path style="opacity:1" fill="#566a85" d="M 214.5,69.5 C 211.167,69.5 207.833,69.5 204.5,69.5C 191.167,69.5 177.833,69.5 164.5,69.5C 164.5,67.8333 164.5,66.1667 164.5,64.5C 181.167,64.5 197.833,64.5 214.5,64.5C 214.5,66.1667 214.5,67.8333 214.5,69.5 Z"/></g>
<g><path style="opacity:1" fill="#51647e" d="M 144.5,64.5 C 145.451,65.9187 145.784,67.5853 145.5,69.5C 146.833,69.5 148.167,69.5 149.5,69.5C 149.5,71.1667 149.5,72.8333 149.5,74.5C 144.5,74.5 139.5,74.5 134.5,74.5C 134.5,72.8333 134.5,71.1667 134.5,69.5C 137.833,69.5 141.167,69.5 144.5,69.5C 144.5,67.8333 144.5,66.1667 144.5,64.5 Z"/></g>
<g><path style="opacity:1" fill="#579dc5" d="M 149.5,69.5 C 154.5,69.5 159.5,69.5 164.5,69.5C 177.833,69.5 191.167,69.5 204.5,69.5C 204.5,71.1667 204.5,72.8333 204.5,74.5C 204.5,76.1667 204.5,77.8333 204.5,79.5C 202.833,79.5 201.167,79.5 199.5,79.5C 179.5,79.5 159.5,79.5 139.5,79.5C 139.5,81.1667 139.5,82.8333 139.5,84.5C 134.5,84.5 129.5,84.5 124.5,84.5C 124.5,86.1667 124.5,87.8333 124.5,89.5C 121.167,89.5 117.833,89.5 114.5,89.5C 114.5,87.8333 114.5,86.1667 114.5,84.5C 118.5,85.1667 120.167,83.5 119.5,79.5C 122.518,79.6646 125.518,79.498 128.5,79C 129.38,77.6439 129.714,76.1439 129.5,74.5C 131.167,74.5 132.833,74.5 134.5,74.5C 139.5,74.5 144.5,74.5 149.5,74.5C 149.5,72.8333 149.5,71.1667 149.5,69.5 Z"/></g>
<g><path style="opacity:1" fill="#5c708c" d="M 269.5,79.5 C 266.167,79.5 262.833,79.5 259.5,79.5C 259.5,77.8333 259.5,76.1667 259.5,74.5C 262.833,74.5 266.167,74.5 269.5,74.5C 269.5,76.1667 269.5,77.8333 269.5,79.5 Z"/></g>
<g><path style="opacity:1" fill="#707f8b" d="M 204.5,69.5 C 207.833,69.5 211.167,69.5 214.5,69.5C 219.5,69.5 224.5,69.5 229.5,69.5C 229.5,71.1667 229.5,72.8333 229.5,74.5C 232.833,74.5 236.167,74.5 239.5,74.5C 239.5,76.1667 239.5,77.8333 239.5,79.5C 242.833,79.5 246.167,79.5 249.5,79.5C 249.5,81.1667 249.5,82.8333 249.5,84.5C 251.167,84.5 252.833,84.5 254.5,84.5C 254.5,86.1667 254.5,87.8333 254.5,89.5C 256.167,89.5 257.833,89.5 259.5,89.5C 259.5,91.1667 259.5,92.8333 259.5,94.5C 261.167,94.5 262.833,94.5 264.5,94.5C 264.5,96.1667 264.5,97.8333 264.5,99.5C 266.167,99.5 267.833,99.5 269.5,99.5C 269.5,102.833 269.5,106.167 269.5,109.5C 269.5,111.5 269.5,113.5 269.5,115.5C 270.833,115.5 272.167,115.5 273.5,115.5C 273.5,131.5 273.5,147.5 273.5,163.5C 272.167,163.5 270.833,163.5 269.5,163.5C 269.5,165.5 269.5,167.5 269.5,169.5C 271.167,169.5 272.833,169.5 274.5,169.5C 274.5,172.833 274.5,176.167 274.5,179.5C 274.5,181.167 274.5,182.833 274.5,184.5C 272.833,184.5 271.167,184.5 269.5,184.5C 267.833,184.5 266.167,184.5 264.5,184.5C 264.5,186.167 264.5,187.833 264.5,189.5C 262.833,189.5 261.167,189.5 259.5,189.5C 259.5,191.167 259.5,192.833 259.5,194.5C 257.833,194.5 256.167,194.5 254.5,194.5C 254.5,197.833 254.5,201.167 254.5,204.5C 252.833,204.5 251.167,204.5 249.5,204.5C 249.5,206.167 249.5,207.833 249.5,209.5C 247.833,209.5 246.167,209.5 244.5,209.5C 244.5,211.167 244.5,212.833 244.5,214.5C 242.833,214.5 241.167,214.5 239.5,214.5C 239.5,216.167 239.5,217.833 239.5,219.5C 236.167,219.5 232.833,219.5 229.5,219.5C 229.5,221.167 229.5,222.833 229.5,224.5C 227.833,224.5 226.167,224.5 224.5,224.5C 224.5,226.167 224.5,227.833 224.5,229.5C 221.167,229.5 217.833,229.5 214.5,229.5C 214.5,231.167 214.5,232.833 214.5,234.5C 211.167,234.5 207.833,234.5 204.5,234.5C 204.5,236.167 204.5,237.833 204.5,239.5C 199.5,239.5 194.5,239.5 189.5,239.5C 189.5,241.167 189.5,242.833 189.5,244.5C 182.833,244.5 176.167,244.5 169.5,244.5C 169.5,246.167 169.5,247.833 169.5,249.5C 154.5,249.5 139.5,249.5 124.5,249.5C 124.5,247.833 124.5,246.167 124.5,244.5C 119.5,244.5 114.5,244.5 109.5,244.5C 109.5,242.833 109.5,241.167 109.5,239.5C 106.167,239.5 102.833,239.5 99.5,239.5C 99.5,237.833 99.5,236.167 99.5,234.5C 97.8333,234.5 96.1667,234.5 94.5,234.5C 94.5,232.833 94.5,231.167 94.5,229.5C 92.8333,229.5 91.1667,229.5 89.5,229.5C 89.5,227.833 89.5,226.167 89.5,224.5C 87.8333,224.5 86.1667,224.5 84.5,224.5C 84.5,221.167 84.5,217.833 84.5,214.5C 82.8333,214.5 81.1667,214.5 79.5,214.5C 79.5,209.5 79.5,204.5 79.5,199.5C 77.8333,199.5 76.1667,199.5 74.5,199.5C 74.5,194.5 74.5,189.5 74.5,184.5C 76.1667,184.5 77.8333,184.5 79.5,184.5C 79.5,177.833 79.5,171.167 79.5,164.5C 82.8333,164.5 86.1667,164.5 89.5,164.5C 89.5,161.167 89.5,157.833 89.5,154.5C 91.1667,154.5 92.8333,154.5 94.5,154.5C 94.5,151.167 94.5,147.833 94.5,144.5C 94.5,142.833 94.5,141.167 94.5,139.5C 96.1667,139.5 97.8333,139.5 99.5,139.5C 99.5,137.833 99.5,136.167 99.5,134.5C 101.167,134.5 102.833,134.5 104.5,134.5C 104.5,132.833 104.5,131.167 104.5,129.5C 107.833,129.5 111.167,129.5 114.5,129.5C 114.5,127.833 114.5,126.167 114.5,124.5C 116.167,124.5 117.833,124.5 119.5,124.5C 119.5,122.833 119.5,121.167 119.5,119.5C 124.5,119.5 129.5,119.5 134.5,119.5C 137.833,119.5 141.167,119.5 144.5,119.5C 144.5,117.833 144.5,116.167 144.5,114.5C 146.167,114.5 147.833,114.5 149.5,114.5C 149.5,112.833 149.5,111.167 149.5,109.5C 151.167,109.5 152.833,109.5 154.5,109.5C 154.5,111.167 154.5,112.833 154.5,114.5C 157.833,114.5 161.167,114.5 164.5,114.5C 164.5,112.833 164.5,111.167 164.5,109.5C 171.167,109.5 177.833,109.5 184.5,109.5C 184.5,111.167 184.5,112.833 184.5,114.5C 187.833,114.5 191.167,114.5 194.5,114.5C 194.5,116.167 194.5,117.833 194.5,119.5C 196.167,119.5 197.833,119.5 199.5,119.5C 199.5,121.167 199.5,122.833 199.5,124.5C 201.167,124.5 202.833,124.5 204.5,124.5C 204.5,127.833 204.5,131.167 204.5,134.5C 206.167,134.5 207.833,134.5 209.5,134.5C 209.5,136.167 209.5,137.833 209.5,139.5C 209.5,141.167 209.5,142.833 209.5,144.5C 207.833,144.5 206.167,144.5 204.5,144.5C 204.5,142.833 204.5,141.167 204.5,139.5C 202.833,139.5 201.167,139.5 199.5,139.5C 199.5,136.167 199.5,132.833 199.5,129.5C 197.833,129.5 196.167,129.5 194.5,129.5C 194.5,127.833 194.5,126.167 194.5,124.5C 191.167,124.5 187.833,124.5 184.5,124.5C 184.5,122.833 184.5,121.167 184.5,119.5C 172.833,119.5 161.167,119.5 149.5,119.5C 149.5,121.167 149.5,122.833 149.5,124.5C 146.167,124.5 142.833,124.5 139.5,124.5C 139.5,126.167 139.5,127.833 139.5,129.5C 136.167,129.5 132.833,129.5 129.5,129.5C 129.5,131.167 129.5,132.833 129.5,134.5C 127.833,134.5 126.167,134.5 124.5,134.5C 124.5,136.167 124.5,137.833 124.5,139.5C 122.833,139.5 121.167,139.5 119.5,139.5C 119.5,141.167 119.5,142.833 119.5,144.5C 117.833,144.5 116.167,144.5 114.5,144.5C 114.5,146.167 114.5,147.833 114.5,149.5C 112.833,149.5 111.167,149.5 109.5,149.5C 109.5,151.167 109.5,152.833 109.5,154.5C 107.833,154.5 106.167,154.5 104.5,154.5C 104.5,156.167 104.5,157.833 104.5,159.5C 102.833,159.5 101.167,159.5 99.5,159.5C 99.5,162.833 99.5,166.167 99.5,169.5C 99.5,172.833 99.5,176.167 99.5,179.5C 97.8333,179.5 96.1667,179.5 94.5,179.5C 94.5,181.167 94.5,182.833 94.5,184.5C 96.1667,184.5 97.8333,184.5 99.5,184.5C 99.5,191.167 99.5,197.833 99.5,204.5C 101.167,204.5 102.833,204.5 104.5,204.5C 104.5,206.167 104.5,207.833 104.5,209.5C 106.167,209.5 107.833,209.5 109.5,209.5C 109.5,211.167 109.5,212.833 109.5,214.5C 112.833,214.5 116.167,214.5 119.5,214.5C 119.5,216.167 119.5,217.833 119.5,219.5C 121.167,219.5 122.833,219.5 124.5,219.5C 124.5,221.167 124.5,222.833 124.5,224.5C 127.833,224.5 131.167,224.5 134.5,224.5C 134.5,226.167 134.5,227.833 134.5,229.5C 146.167,229.5 157.833,229.5 169.5,229.5C 174.5,229.5 179.5,229.5 184.5,229.5C 184.5,226.167 184.5,222.833 184.5,219.5C 186.167,219.5 187.833,219.5 189.5,219.5C 189.5,217.833 189.5,216.167 189.5,214.5C 192.833,214.5 196.167,214.5 199.5,214.5C 199.5,212.833 199.5,211.167 199.5,209.5C 202.833,209.5 206.167,209.5 209.5,209.5C 209.5,207.833 209.5,206.167 209.5,204.5C 211.167,204.5 212.833,204.5 214.5,204.5C 214.5,202.833 214.5,201.167 214.5,199.5C 217.833,199.5 221.167,199.5 224.5,199.5C 224.5,197.833 224.5,196.167 224.5,194.5C 226.167,194.5 227.833,194.5 229.5,194.5C 229.5,192.833 229.5,191.167 229.5,189.5C 231.167,189.5 232.833,189.5 234.5,189.5C 234.5,186.167 234.5,182.833 234.5,179.5C 236.167,179.5 237.833,179.5 239.5,179.5C 239.5,177.833 239.5,176.167 239.5,174.5C 241.167,174.5 242.833,174.5 244.5,174.5C 244.5,171.167 244.5,167.833 244.5,164.5C 246.167,164.5 247.833,164.5 249.5,164.5C 249.5,159.5 249.5,154.5 249.5,149.5C 251.167,149.5 252.833,149.5 254.5,149.5C 254.5,142.833 254.5,136.167 254.5,129.5C 254.5,122.833 254.5,116.167 254.5,109.5C 252.833,109.5 251.167,109.5 249.5,109.5C 249.5,107.833 249.5,106.167 249.5,104.5C 247.833,104.5 246.167,104.5 244.5,104.5C 244.5,101.167 244.5,97.8333 244.5,94.5C 242.833,94.5 241.167,94.5 239.5,94.5C 239.5,92.8333 239.5,91.1667 239.5,89.5C 237.833,89.5 236.167,89.5 234.5,89.5C 234.5,87.8333 234.5,86.1667 234.5,84.5C 231.167,84.5 227.833,84.5 224.5,84.5C 224.5,82.8333 224.5,81.1667 224.5,79.5C 221.167,79.5 217.833,79.5 214.5,79.5C 214.5,82.8333 214.5,86.1667 214.5,89.5C 217.833,89.5 221.167,89.5 224.5,89.5C 224.5,91.1667 224.5,92.8333 224.5,94.5C 226.167,94.5 227.833,94.5 229.5,94.5C 229.5,96.1667 229.5,97.8333 229.5,99.5C 231.167,99.5 232.833,99.5 234.5,99.5C 234.5,102.833 234.5,106.167 234.5,109.5C 236.167,109.5 237.833,109.5 239.5,109.5C 239.5,112.833 239.5,116.167 239.5,119.5C 239.5,122.833 239.5,126.167 239.5,129.5C 241.167,129.5 242.833,129.5 244.5,129.5C 244.5,136.167 244.5,142.833 244.5,149.5C 242.833,149.5 241.167,149.5 239.5,149.5C 239.5,154.5 239.5,159.5 239.5,164.5C 237.833,164.5 236.167,164.5 234.5,164.5C 234.5,167.833 234.5,171.167 234.5,174.5C 232.833,174.5 231.167,174.5 229.5,174.5C 229.5,176.167 229.5,177.833 229.5,179.5C 227.833,179.5 226.167,179.5 224.5,179.5C 224.5,181.167 224.5,182.833 224.5,184.5C 222.833,184.5 221.167,184.5 219.5,184.5C 219.5,186.167 219.5,187.833 219.5,189.5C 217.833,189.5 216.167,189.5 214.5,189.5C 214.5,191.167 214.5,192.833 214.5,194.5C 212.833,194.5 211.167,194.5 209.5,194.5C 209.5,196.167 209.5,197.833 209.5,199.5C 206.167,199.5 202.833,199.5 199.5,199.5C 199.5,201.167 199.5,202.833 199.5,204.5C 196.167,204.5 192.833,204.5 189.5,204.5C 189.5,206.167 189.5,207.833 189.5,209.5C 186.167,209.5 182.833,209.5 179.5,209.5C 179.5,211.167 179.5,212.833 179.5,214.5C 169.5,214.5 159.5,214.5 149.5,214.5C 142.833,214.5 136.167,214.5 129.5,214.5C 129.5,212.833 129.5,211.167 129.5,209.5C 127.833,209.5 126.167,209.5 124.5,209.5C 124.5,207.833 124.5,206.167 124.5,204.5C 122.833,204.5 121.167,204.5 119.5,204.5C 119.5,202.833 119.5,201.167 119.5,199.5C 117.833,199.5 116.167,199.5 114.5,199.5C 114.5,196.167 114.5,192.833 114.5,189.5C 112.833,189.5 111.167,189.5 109.5,189.5C 109.5,187.833 109.5,186.167 109.5,184.5C 112.833,184.5 116.167,184.5 119.5,184.5C 119.5,186.167 119.5,187.833 119.5,189.5C 121.167,189.5 122.833,189.5 124.5,189.5C 124.5,192.833 124.5,196.167 124.5,199.5C 127.833,199.5 131.167,199.5 134.5,199.5C 134.5,201.167 134.5,202.833 134.5,204.5C 136.167,204.5 137.833,204.5 139.5,204.5C 139.5,206.167 139.5,207.833 139.5,209.5C 149.5,209.5 159.5,209.5 169.5,209.5C 169.5,207.833 169.5,206.167 169.5,204.5C 171.167,204.5 172.833,204.5 174.5,204.5C 176.167,204.5 177.833,204.5 179.5,204.5C 179.5,202.833 179.5,201.167 179.5,199.5C 181.167,199.5 182.833,199.5 184.5,199.5C 184.5,197.833 184.5,196.167 184.5,194.5C 187.833,194.5 191.167,194.5 194.5,194.5C 194.5,192.833 194.5,191.167 194.5,189.5C 196.167,189.5 197.833,189.5 199.5,189.5C 199.5,187.833 199.5,186.167 199.5,184.5C 201.167,184.5 202.833,184.5 204.5,184.5C 204.5,182.833 204.5,181.167 204.5,179.5C 206.167,179.5 207.833,179.5 209.5,179.5C 209.5,177.833 209.5,176.167 209.5,174.5C 211.167,174.5 212.833,174.5 214.5,174.5C 214.5,171.167 214.5,167.833 214.5,164.5C 216.167,164.5 217.833,164.5 219.5,164.5C 219.5,161.167 219.5,157.833 219.5,154.5C 221.167,154.5 222.833,154.5 224.5,154.5C 224.5,146.167 224.5,137.833 224.5,129.5C 222.833,129.5 221.167,129.5 219.5,129.5C 219.5,126.167 219.5,122.833 219.5,119.5C 217.833,119.5 216.167,119.5 214.5,119.5C 214.5,117.833 214.5,116.167 214.5,114.5C 212.833,114.5 211.167,114.5 209.5,114.5C 209.5,112.833 209.5,111.167 209.5,109.5C 206.167,109.5 202.833,109.5 199.5,109.5C 199.5,107.833 199.5,106.167 199.5,104.5C 197.833,104.5 196.167,104.5 194.5,104.5C 194.5,102.833 194.5,101.167 194.5,99.5C 189.5,99.5 184.5,99.5 179.5,99.5C 169.5,99.5 159.5,99.5 149.5,99.5C 149.5,101.167 149.5,102.833 149.5,104.5C 142.833,104.5 136.167,104.5 129.5,104.5C 129.5,106.167 129.5,107.833 129.5,109.5C 126.167,109.5 122.833,109.5 119.5,109.5C 119.5,111.167 119.5,112.833 119.5,114.5C 117.833,114.5 116.167,114.5 114.5,114.5C 114.5,116.167 114.5,117.833 114.5,119.5C 111.167,119.5 107.833,119.5 104.5,119.5C 104.5,121.167 104.5,122.833 104.5,124.5C 102.833,124.5 101.167,124.5 99.5,124.5C 99.5,126.167 99.5,127.833 99.5,129.5C 97.8333,129.5 96.1667,129.5 94.5,129.5C 94.5,131.167 94.5,132.833 94.5,134.5C 92.8333,134.5 91.1667,134.5 89.5,134.5C 89.5,136.167 89.5,137.833 89.5,139.5C 87.8333,139.5 86.1667,139.5 84.5,139.5C 84.5,141.167 84.5,142.833 84.5,144.5C 82.8333,144.5 81.1667,144.5 79.5,144.5C 79.5,147.833 79.5,151.167 79.5,154.5C 77.8333,154.5 76.1667,154.5 74.5,154.5C 74.5,157.833 74.5,161.167 74.5,164.5C 72.8333,164.5 71.1667,164.5 69.5,164.5C 69.5,171.167 69.5,177.833 69.5,184.5C 67.8333,184.5 66.1667,184.5 64.5,184.5C 64.5,189.5 64.5,194.5 64.5,199.5C 66.1667,199.5 67.8333,199.5 69.5,199.5C 69.5,206.167 69.5,212.833 69.5,219.5C 71.1667,219.5 72.8333,219.5 74.5,219.5C 74.5,221.167 74.5,222.833 74.5,224.5C 76.1667,224.5 77.8333,224.5 79.5,224.5C 79.5,226.167 79.5,227.833 79.5,229.5C 81.1667,229.5 82.8333,229.5 84.5,229.5C 84.5,231.167 84.5,232.833 84.5,234.5C 86.1667,234.5 87.8333,234.5 89.5,234.5C 89.5,236.167 89.5,237.833 89.5,239.5C 91.1667,239.5 92.8333,239.5 94.5,239.5C 94.5,241.167 94.5,242.833 94.5,244.5C 96.1667,244.5 97.8333,244.5 99.5,244.5C 99.5,246.167 99.5,247.833 99.5,249.5C 101.167,249.5 102.833,249.5 104.5,249.5C 104.5,251.167 104.5,252.833 104.5,254.5C 106.167,254.5 107.833,254.5 109.5,254.5C 129.5,254.5 149.5,254.5 169.5,254.5C 169.5,256.167 169.5,257.833 169.5,259.5C 167.833,259.5 166.167,259.5 164.5,259.5C 161.167,259.5 157.833,259.5 154.5,259.5C 154.5,261.167 154.5,262.833 154.5,264.5C 151.167,264.5 147.833,264.5 144.5,264.5C 136.167,264.5 127.833,264.5 119.5,264.5C 114.5,264.5 109.5,264.5 104.5,264.5C 104.5,262.833 104.5,261.167 104.5,259.5C 101.167,259.5 97.8333,259.5 94.5,259.5C 91.1667,259.5 87.8333,259.5 84.5,259.5C 84.5,257.833 84.5,256.167 84.5,254.5C 82.8333,254.5 81.1667,254.5 79.5,254.5C 79.5,252.833 79.5,251.167 79.5,249.5C 77.8333,249.5 76.1667,249.5 74.5,249.5C 72.8333,249.5 71.1667,249.5 69.5,249.5C 69.5,247.833 69.5,246.167 69.5,244.5C 67.8333,244.5 66.1667,244.5 64.5,244.5C 64.5,242.833 64.5,241.167 64.5,239.5C 62.8333,239.5 61.1667,239.5 59.5,239.5C 59.5,237.833 59.5,236.167 59.5,234.5C 57.8333,234.5 56.1667,234.5 54.5,234.5C 54.5,232.833 54.5,231.167 54.5,229.5C 52.8333,229.5 51.1667,229.5 49.5,229.5C 50.1667,225.5 48.5,223.833 44.5,224.5C 44.5,222.833 44.5,221.167 44.5,219.5C 47.8333,219.5 51.1667,219.5 54.5,219.5C 54.5,217.833 54.5,216.167 54.5,214.5C 51.1667,214.5 47.8333,214.5 44.5,214.5C 44.5,211.167 44.5,207.833 44.5,204.5C 44.5,194.5 44.5,184.5 44.5,174.5C 44.5,169.5 44.5,164.5 44.5,159.5C 46.1667,159.5 47.8333,159.5 49.5,159.5C 49.5,156.167 49.5,152.833 49.5,149.5C 51.1667,149.5 52.8333,149.5 54.5,149.5C 54.5,147.833 54.5,146.167 54.5,144.5C 56.1667,144.5 57.8333,144.5 59.5,144.5C 59.5,141.167 59.5,137.833 59.5,134.5C 61.1667,134.5 62.8333,134.5 64.5,134.5C 64.5,132.833 64.5,131.167 64.5,129.5C 66.1667,129.5 67.8333,129.5 69.5,129.5C 69.5,127.833 69.5,126.167 69.5,124.5C 71.1667,124.5 72.8333,124.5 74.5,124.5C 74.5,122.833 74.5,121.167 74.5,119.5C 76.1667,119.5 77.8333,119.5 79.5,119.5C 81.1667,119.5 82.8333,119.5 84.5,119.5C 84.5,117.833 84.5,116.167 84.5,114.5C 84.5,111.167 84.5,107.833 84.5,104.5C 87.8333,104.5 91.1667,104.5 94.5,104.5C 94.5,102.833 94.5,101.167 94.5,99.5C 97.8333,99.5 101.167,99.5 104.5,99.5C 104.5,97.8333 104.5,96.1667 104.5,94.5C 107.833,94.5 111.167,94.5 114.5,94.5C 114.5,92.8333 114.5,91.1667 114.5,89.5C 117.833,89.5 121.167,89.5 124.5,89.5C 124.5,87.8333 124.5,86.1667 124.5,84.5C 129.5,84.5 134.5,84.5 139.5,84.5C 139.5,82.8333 139.5,81.1667 139.5,79.5C 159.5,79.5 179.5,79.5 199.5,79.5C 199.5,81.1667 199.5,82.8333 199.5,84.5C 202.833,84.5 206.167,84.5 209.5,84.5C 209.5,81.1667 209.5,77.8333 209.5,74.5C 207.833,74.5 206.167,74.5 204.5,74.5C 204.5,72.8333 204.5,71.1667 204.5,69.5 Z"/></g>
<g><path style="opacity:1" fill="#d2dce0" d="M 204.5,74.5 C 206.167,74.5 207.833,74.5 209.5,74.5C 209.5,77.8333 209.5,81.1667 209.5,84.5C 206.167,84.5 202.833,84.5 199.5,84.5C 199.5,82.8333 199.5,81.1667 199.5,79.5C 201.167,79.5 202.833,79.5 204.5,79.5C 204.5,77.8333 204.5,76.1667 204.5,74.5 Z"/></g>
<g><path style="opacity:1" fill="#4ca0ce" d="M 254.5,129.5 C 252.833,129.5 251.167,129.5 249.5,129.5C 249.5,126.167 249.5,122.833 249.5,119.5C 246.167,119.5 242.833,119.5 239.5,119.5C 239.5,116.167 239.5,112.833 239.5,109.5C 237.833,109.5 236.167,109.5 234.5,109.5C 234.5,106.167 234.5,102.833 234.5,99.5C 232.833,99.5 231.167,99.5 229.5,99.5C 229.5,97.8333 229.5,96.1667 229.5,94.5C 227.833,94.5 226.167,94.5 224.5,94.5C 224.5,92.8333 224.5,91.1667 224.5,89.5C 221.167,89.5 217.833,89.5 214.5,89.5C 214.5,86.1667 214.5,82.8333 214.5,79.5C 217.833,79.5 221.167,79.5 224.5,79.5C 224.5,81.1667 224.5,82.8333 224.5,84.5C 227.833,84.5 231.167,84.5 234.5,84.5C 234.5,86.1667 234.5,87.8333 234.5,89.5C 236.167,89.5 237.833,89.5 239.5,89.5C 239.5,91.1667 239.5,92.8333 239.5,94.5C 241.167,94.5 242.833,94.5 244.5,94.5C 244.5,97.8333 244.5,101.167 244.5,104.5C 246.167,104.5 247.833,104.5 249.5,104.5C 249.5,106.167 249.5,107.833 249.5,109.5C 251.167,109.5 252.833,109.5 254.5,109.5C 254.5,116.167 254.5,122.833 254.5,129.5 Z"/></g>
<g><path style="opacity:1" fill="#546783" d="M 259.5,79.5 C 259.5,81.1667 259.5,82.8333 259.5,84.5C 262.833,84.5 266.167,84.5 269.5,84.5C 269.5,86.1667 269.5,87.8333 269.5,89.5C 266.167,89.5 262.833,89.5 259.5,89.5C 257.833,89.5 256.167,89.5 254.5,89.5C 254.5,87.8333 254.5,86.1667 254.5,84.5C 254.5,82.8333 254.5,81.1667 254.5,79.5C 256.167,79.5 257.833,79.5 259.5,79.5 Z"/></g>
<g><path style="opacity:1" fill="#bbc4cd" d="M 259.5,79.5 C 262.833,79.5 266.167,79.5 269.5,79.5C 269.5,81.1667 269.5,82.8333 269.5,84.5C 266.167,84.5 262.833,84.5 259.5,84.5C 259.5,82.8333 259.5,81.1667 259.5,79.5 Z"/></g>
<g><path style="opacity:1" fill="#498db7" d="M 114.5,84.5 C 114.5,86.1667 114.5,87.8333 114.5,89.5C 114.5,91.1667 114.5,92.8333 114.5,94.5C 111.167,94.5 107.833,94.5 104.5,94.5C 104.5,96.1667 104.5,97.8333 104.5,99.5C 101.167,99.5 97.8333,99.5 94.5,99.5C 94.5,101.167 94.5,102.833 94.5,104.5C 91.1667,104.5 87.8333,104.5 84.5,104.5C 84.5,107.833 84.5,111.167 84.5,114.5C 82.8333,114.5 81.1667,114.5 79.5,114.5C 79.5,116.167 79.5,117.833 79.5,119.5C 77.8333,119.5 76.1667,119.5 74.5,119.5C 74.5,117.833 74.5,116.167 74.5,114.5C 72.8333,114.5 71.1667,114.5 69.5,114.5C 69.5,116.167 69.5,117.833 69.5,119.5C 67.8333,119.5 66.1667,119.5 64.5,119.5C 64.5,121.167 64.5,122.833 64.5,124.5C 62.8333,124.5 61.1667,124.5 59.5,124.5C 59.5,122.833 59.5,121.167 59.5,119.5C 63.5,120.167 65.1667,118.5 64.5,114.5C 68.5,115.167 70.1667,113.5 69.5,109.5C 71.1667,109.5 72.8333,109.5 74.5,109.5C 74.5,107.833 74.5,106.167 74.5,104.5C 76.1667,104.5 77.8333,104.5 79.5,104.5C 79.5,102.833 79.5,101.167 79.5,99.5C 82.8333,99.5 86.1667,99.5 89.5,99.5C 89.5,97.8333 89.5,96.1667 89.5,94.5C 92.8333,94.5 96.1667,94.5 99.5,94.5C 99.5,92.8333 99.5,91.1667 99.5,89.5C 101.167,89.5 102.833,89.5 104.5,89.5C 104.5,87.8333 104.5,86.1667 104.5,84.5C 107.833,84.5 111.167,84.5 114.5,84.5 Z"/></g>
<g><path style="opacity:1" fill="#57a0c7" d="M 179.5,99.5 C 184.5,99.5 189.5,99.5 194.5,99.5C 194.5,101.167 194.5,102.833 194.5,104.5C 189.5,104.5 184.5,104.5 179.5,104.5C 179.5,102.833 179.5,101.167 179.5,99.5 Z"/></g>
<g><path style="opacity:1" fill="#64cff3" d="M 164.5,104.5 C 169.5,104.5 174.5,104.5 179.5,104.5C 184.5,104.5 189.5,104.5 194.5,104.5C 196.167,104.5 197.833,104.5 199.5,104.5C 199.5,106.167 199.5,107.833 199.5,109.5C 202.833,109.5 206.167,109.5 209.5,109.5C 209.5,111.167 209.5,112.833 209.5,114.5C 211.167,114.5 212.833,114.5 214.5,114.5C 214.5,116.167 214.5,117.833 214.5,119.5C 216.167,119.5 217.833,119.5 219.5,119.5C 219.5,122.833 219.5,126.167 219.5,129.5C 219.5,132.833 219.5,136.167 219.5,139.5C 216.167,139.5 212.833,139.5 209.5,139.5C 209.5,137.833 209.5,136.167 209.5,134.5C 207.833,134.5 206.167,134.5 204.5,134.5C 204.5,131.167 204.5,127.833 204.5,124.5C 202.833,124.5 201.167,124.5 199.5,124.5C 199.5,122.833 199.5,121.167 199.5,119.5C 197.833,119.5 196.167,119.5 194.5,119.5C 194.5,117.833 194.5,116.167 194.5,114.5C 191.167,114.5 187.833,114.5 184.5,114.5C 184.5,112.833 184.5,111.167 184.5,109.5C 177.833,109.5 171.167,109.5 164.5,109.5C 164.5,107.833 164.5,106.167 164.5,104.5 Z"/></g>
<g><path style="opacity:1" fill="#cbdae0" d="M 164.5,104.5 C 164.5,106.167 164.5,107.833 164.5,109.5C 164.5,111.167 164.5,112.833 164.5,114.5C 161.167,114.5 157.833,114.5 154.5,114.5C 154.5,112.833 154.5,111.167 154.5,109.5C 154.5,107.833 154.5,106.167 154.5,104.5C 157.833,104.5 161.167,104.5 164.5,104.5 Z"/></g>
<g><path style="opacity:1" fill="#eff5f7" d="M 84.5,114.5 C 84.5,116.167 84.5,117.833 84.5,119.5C 82.8333,119.5 81.1667,119.5 79.5,119.5C 79.5,117.833 79.5,116.167 79.5,114.5C 81.1667,114.5 82.8333,114.5 84.5,114.5 Z"/></g>
<g><path style="opacity:1" fill="#6593ad" d="M 149.5,109.5 C 149.5,111.167 149.5,112.833 149.5,114.5C 147.833,114.5 146.167,114.5 144.5,114.5C 144.5,116.167 144.5,117.833 144.5,119.5C 141.167,119.5 137.833,119.5 134.5,119.5C 134.5,117.833 134.5,116.167 134.5,114.5C 136.167,114.5 137.833,114.5 139.5,114.5C 139.5,112.833 139.5,111.167 139.5,109.5C 142.833,109.5 146.167,109.5 149.5,109.5 Z"/></g>
<g><path style="opacity:1" fill="#5d6c80" d="M 269.5,109.5 C 271.167,109.5 272.833,109.5 274.5,109.5C 274.5,112.833 274.5,116.167 274.5,119.5C 274.5,134.5 274.5,149.5 274.5,164.5C 274.5,166.167 274.5,167.833 274.5,169.5C 272.833,169.5 271.167,169.5 269.5,169.5C 269.5,167.5 269.5,165.5 269.5,163.5C 270.833,163.5 272.167,163.5 273.5,163.5C 273.5,147.5 273.5,131.5 273.5,115.5C 272.167,115.5 270.833,115.5 269.5,115.5C 269.5,113.5 269.5,111.5 269.5,109.5 Z"/></g>
<g><path style="opacity:1" fill="#435675" d="M 274.5,119.5 C 276.167,119.5 277.833,119.5 279.5,119.5C 279.5,134.5 279.5,149.5 279.5,164.5C 277.833,164.5 276.167,164.5 274.5,164.5C 274.5,149.5 274.5,134.5 274.5,119.5 Z"/></g>
<g><path style="opacity:1" fill="#65b6d6" d="M 184.5,124.5 C 172.833,124.5 161.167,124.5 149.5,124.5C 149.5,122.833 149.5,121.167 149.5,119.5C 161.167,119.5 172.833,119.5 184.5,119.5C 184.5,121.167 184.5,122.833 184.5,124.5 Z"/></g>
<g><path style="opacity:1" fill="#bfd0d8" d="M 239.5,119.5 C 242.833,119.5 246.167,119.5 249.5,119.5C 249.5,122.833 249.5,126.167 249.5,129.5C 247.833,129.5 246.167,129.5 244.5,129.5C 242.833,129.5 241.167,129.5 239.5,129.5C 239.5,126.167 239.5,122.833 239.5,119.5 Z"/></g>
<g><path style="opacity:1" fill="#4d6984" d="M 74.5,119.5 C 74.5,121.167 74.5,122.833 74.5,124.5C 72.8333,124.5 71.1667,124.5 69.5,124.5C 69.5,126.167 69.5,127.833 69.5,129.5C 67.8333,129.5 66.1667,129.5 64.5,129.5C 64.5,131.167 64.5,132.833 64.5,134.5C 62.8333,134.5 61.1667,134.5 59.5,134.5C 59.5,137.833 59.5,141.167 59.5,144.5C 57.8333,144.5 56.1667,144.5 54.5,144.5C 54.5,142.833 54.5,141.167 54.5,139.5C 54.5,136.167 54.5,132.833 54.5,129.5C 54.5,127.833 54.5,126.167 54.5,124.5C 56.1667,124.5 57.8333,124.5 59.5,124.5C 61.1667,124.5 62.8333,124.5 64.5,124.5C 64.5,122.833 64.5,121.167 64.5,119.5C 66.1667,119.5 67.8333,119.5 69.5,119.5C 69.5,117.833 69.5,116.167 69.5,114.5C 71.1667,114.5 72.8333,114.5 74.5,114.5C 74.5,116.167 74.5,117.833 74.5,119.5 Z"/></g>
<g><path style="opacity:1" fill="#6ad2f5" d="M 149.5,124.5 C 161.167,124.5 172.833,124.5 184.5,124.5C 187.833,124.5 191.167,124.5 194.5,124.5C 194.5,126.167 194.5,127.833 194.5,129.5C 196.167,129.5 197.833,129.5 199.5,129.5C 199.5,132.833 199.5,136.167 199.5,139.5C 201.167,139.5 202.833,139.5 204.5,139.5C 204.5,141.167 204.5,142.833 204.5,144.5C 206.167,144.5 207.833,144.5 209.5,144.5C 209.5,146.167 209.5,147.833 209.5,149.5C 211.167,149.5 212.833,149.5 214.5,149.5C 214.5,147.833 214.5,146.167 214.5,144.5C 216.167,144.5 217.833,144.5 219.5,144.5C 219.5,147.833 219.5,151.167 219.5,154.5C 219.5,157.833 219.5,161.167 219.5,164.5C 217.833,164.5 216.167,164.5 214.5,164.5C 214.5,167.833 214.5,171.167 214.5,174.5C 212.833,174.5 211.167,174.5 209.5,174.5C 209.5,176.167 209.5,177.833 209.5,179.5C 207.833,179.5 206.167,179.5 204.5,179.5C 204.5,181.167 204.5,182.833 204.5,184.5C 202.833,184.5 201.167,184.5 199.5,184.5C 199.5,186.167 199.5,187.833 199.5,189.5C 197.833,189.5 196.167,189.5 194.5,189.5C 194.5,191.167 194.5,192.833 194.5,194.5C 191.167,194.5 187.833,194.5 184.5,194.5C 184.5,196.167 184.5,197.833 184.5,199.5C 182.833,199.5 181.167,199.5 179.5,199.5C 177.833,199.5 176.167,199.5 174.5,199.5C 174.5,201.167 174.5,202.833 174.5,204.5C 172.833,204.5 171.167,204.5 169.5,204.5C 159.5,204.5 149.5,204.5 139.5,204.5C 137.833,204.5 136.167,204.5 134.5,204.5C 134.5,202.833 134.5,201.167 134.5,199.5C 131.167,199.5 127.833,199.5 124.5,199.5C 124.5,196.167 124.5,192.833 124.5,189.5C 122.833,189.5 121.167,189.5 119.5,189.5C 119.5,187.833 119.5,186.167 119.5,184.5C 121.167,184.5 122.833,184.5 124.5,184.5C 124.5,181.167 124.5,177.833 124.5,174.5C 122.833,174.5 121.167,174.5 119.5,174.5C 119.5,169.5 119.5,164.5 119.5,159.5C 117.833,159.5 116.167,159.5 114.5,159.5C 114.5,162.833 114.5,166.167 114.5,169.5C 112.833,169.5 111.167,169.5 109.5,169.5C 109.5,171.167 109.5,172.833 109.5,174.5C 109.5,177.833 109.5,181.167 109.5,184.5C 109.5,186.167 109.5,187.833 109.5,189.5C 111.167,189.5 112.833,189.5 114.5,189.5C 114.5,192.833 114.5,196.167 114.5,199.5C 116.167,199.5 117.833,199.5 119.5,199.5C 119.5,201.167 119.5,202.833 119.5,204.5C 121.167,204.5 122.833,204.5 124.5,204.5C 124.5,206.167 124.5,207.833 124.5,209.5C 126.167,209.5 127.833,209.5 129.5,209.5C 129.5,211.167 129.5,212.833 129.5,214.5C 136.167,214.5 142.833,214.5 149.5,214.5C 149.5,216.167 149.5,217.833 149.5,219.5C 141.167,219.5 132.833,219.5 124.5,219.5C 122.833,219.5 121.167,219.5 119.5,219.5C 119.5,217.833 119.5,216.167 119.5,214.5C 116.167,214.5 112.833,214.5 109.5,214.5C 109.5,212.833 109.5,211.167 109.5,209.5C 107.833,209.5 106.167,209.5 104.5,209.5C 104.5,207.833 104.5,206.167 104.5,204.5C 102.833,204.5 101.167,204.5 99.5,204.5C 99.5,197.833 99.5,191.167 99.5,184.5C 97.8333,184.5 96.1667,184.5 94.5,184.5C 94.5,182.833 94.5,181.167 94.5,179.5C 96.1667,179.5 97.8333,179.5 99.5,179.5C 99.5,176.167 99.5,172.833 99.5,169.5C 101.167,169.5 102.833,169.5 104.5,169.5C 104.5,166.167 104.5,162.833 104.5,159.5C 104.5,157.833 104.5,156.167 104.5,154.5C 106.167,154.5 107.833,154.5 109.5,154.5C 109.5,152.833 109.5,151.167 109.5,149.5C 111.167,149.5 112.833,149.5 114.5,149.5C 114.5,147.833 114.5,146.167 114.5,144.5C 116.167,144.5 117.833,144.5 119.5,144.5C 119.5,142.833 119.5,141.167 119.5,139.5C 121.167,139.5 122.833,139.5 124.5,139.5C 124.5,137.833 124.5,136.167 124.5,134.5C 126.167,134.5 127.833,134.5 129.5,134.5C 129.5,132.833 129.5,131.167 129.5,129.5C 132.833,129.5 136.167,129.5 139.5,129.5C 139.5,127.833 139.5,126.167 139.5,124.5C 142.833,124.5 146.167,124.5 149.5,124.5 Z"/></g>
<g><path style="opacity:1" fill="#5babd1" d="M 219.5,129.5 C 221.167,129.5 222.833,129.5 224.5,129.5C 224.5,137.833 224.5,146.167 224.5,154.5C 222.833,154.5 221.167,154.5 219.5,154.5C 219.5,151.167 219.5,147.833 219.5,144.5C 219.5,142.833 219.5,141.167 219.5,139.5C 219.5,136.167 219.5,132.833 219.5,129.5 Z"/></g>
<g><path style="opacity:1" fill="#d0eef8" d="M 184.5,144.5 C 182.833,144.5 181.167,144.5 179.5,144.5C 179.5,143.167 179.5,141.833 179.5,140.5C 171.5,140.5 163.5,140.5 155.5,140.5C 155.5,141.833 155.5,143.167 155.5,144.5C 151.833,144.5 148.167,144.5 144.5,144.5C 144.5,142.833 144.5,141.167 144.5,139.5C 149.5,139.5 154.5,139.5 159.5,139.5C 159.5,137.833 159.5,136.167 159.5,134.5C 166.167,134.5 172.833,134.5 179.5,134.5C 179.5,136.167 179.5,137.833 179.5,139.5C 181.167,139.5 182.833,139.5 184.5,139.5C 184.5,141.167 184.5,142.833 184.5,144.5 Z"/></g>
<g><path style="opacity:1" fill="#f9fdfd" d="M 184.5,144.5 C 186.167,144.5 187.833,144.5 189.5,144.5C 189.5,152.833 189.5,161.167 189.5,169.5C 187.833,169.5 186.167,169.5 184.5,169.5C 184.5,171.167 184.5,172.833 184.5,174.5C 182.833,174.5 181.167,174.5 179.5,174.5C 179.5,176.167 179.5,177.833 179.5,179.5C 177.833,179.5 176.167,179.5 174.5,179.5C 174.5,181.167 174.5,182.833 174.5,184.5C 171.167,184.5 167.833,184.5 164.5,184.5C 164.5,186.167 164.5,187.833 164.5,189.5C 157.833,189.5 151.167,189.5 144.5,189.5C 144.5,187.833 144.5,186.167 144.5,184.5C 142.833,184.5 141.167,184.5 139.5,184.5C 140.401,180.759 139.068,178.759 135.5,178.5C 135.5,170.5 135.5,162.5 135.5,154.5C 136.833,154.5 138.167,154.5 139.5,154.5C 139.5,152.833 139.5,151.167 139.5,149.5C 141.167,149.5 142.833,149.5 144.5,149.5C 144.5,147.833 144.5,146.167 144.5,144.5C 148.167,144.5 151.833,144.5 155.5,144.5C 155.5,143.167 155.5,141.833 155.5,140.5C 163.5,140.5 171.5,140.5 179.5,140.5C 179.5,141.833 179.5,143.167 179.5,144.5C 181.167,144.5 182.833,144.5 184.5,144.5 Z"/></g>
<g><path style="opacity:1" fill="#b8d9e5" d="M 209.5,139.5 C 212.833,139.5 216.167,139.5 219.5,139.5C 219.5,141.167 219.5,142.833 219.5,144.5C 217.833,144.5 216.167,144.5 214.5,144.5C 214.5,146.167 214.5,147.833 214.5,149.5C 212.833,149.5 211.167,149.5 209.5,149.5C 209.5,147.833 209.5,146.167 209.5,144.5C 209.5,142.833 209.5,141.167 209.5,139.5 Z"/></g>
<g><path style="opacity:1" fill="#3976a2" d="M 54.5,129.5 C 54.5,132.833 54.5,136.167 54.5,139.5C 52.8333,139.5 51.1667,139.5 49.5,139.5C 49.5,141.167 49.5,142.833 49.5,144.5C 47.8333,144.5 46.1667,144.5 44.5,144.5C 44.5,147.833 44.5,151.167 44.5,154.5C 42.8333,154.5 41.1667,154.5 39.5,154.5C 39.5,157.833 39.5,161.167 39.5,164.5C 37.8333,164.5 36.1667,164.5 34.5,164.5C 34.5,169.5 34.5,174.5 34.5,179.5C 31.1667,179.5 27.8333,179.5 24.5,179.5C 24.5,176.167 24.5,172.833 24.5,169.5C 26.1667,169.5 27.8333,169.5 29.5,169.5C 29.5,166.167 29.5,162.833 29.5,159.5C 31.1667,159.5 32.8333,159.5 34.5,159.5C 34.5,156.167 34.5,152.833 34.5,149.5C 36.1667,149.5 37.8333,149.5 39.5,149.5C 39.5,146.167 39.5,142.833 39.5,139.5C 41.1667,139.5 42.8333,139.5 44.5,139.5C 44.5,137.833 44.5,136.167 44.5,134.5C 46.1667,134.5 47.8333,134.5 49.5,134.5C 49.5,132.833 49.5,131.167 49.5,129.5C 51.1667,129.5 52.8333,129.5 54.5,129.5 Z"/></g>
<g><path style="opacity:1" fill="#6093ae" d="M 94.5,144.5 C 94.5,147.833 94.5,151.167 94.5,154.5C 92.8333,154.5 91.1667,154.5 89.5,154.5C 87.8333,154.5 86.1667,154.5 84.5,154.5C 84.5,152.833 84.5,151.167 84.5,149.5C 86.1667,149.5 87.8333,149.5 89.5,149.5C 89.5,147.833 89.5,146.167 89.5,144.5C 91.1667,144.5 92.8333,144.5 94.5,144.5 Z"/></g>
<g><path style="opacity:1" fill="#5e89a2" d="M 209.5,149.5 C 209.5,154.5 209.5,159.5 209.5,164.5C 207.833,164.5 206.167,164.5 204.5,164.5C 204.5,159.5 204.5,154.5 204.5,149.5C 206.167,149.5 207.833,149.5 209.5,149.5 Z"/></g>
<g><path style="opacity:1" fill="#daf0f8" d="M 135.5,154.5 C 135.5,162.5 135.5,170.5 135.5,178.5C 139.068,178.759 140.401,180.759 139.5,184.5C 137.833,184.5 136.167,184.5 134.5,184.5C 134.5,182.833 134.5,181.167 134.5,179.5C 132.833,179.5 131.167,179.5 129.5,179.5C 129.5,172.833 129.5,166.167 129.5,159.5C 131.167,159.5 132.833,159.5 134.5,159.5C 134.216,157.585 134.549,155.919 135.5,154.5 Z"/></g>
<g><path style="opacity:1" fill="#cce2ea" d="M 84.5,154.5 C 86.1667,154.5 87.8333,154.5 89.5,154.5C 89.5,157.833 89.5,161.167 89.5,164.5C 86.1667,164.5 82.8333,164.5 79.5,164.5C 79.5,162.833 79.5,161.167 79.5,159.5C 81.1667,159.5 82.8333,159.5 84.5,159.5C 84.5,157.833 84.5,156.167 84.5,154.5 Z"/></g>
<g><path style="opacity:1" fill="#5aa2c6" d="M 104.5,159.5 C 104.5,162.833 104.5,166.167 104.5,169.5C 102.833,169.5 101.167,169.5 99.5,169.5C 99.5,166.167 99.5,162.833 99.5,159.5C 101.167,159.5 102.833,159.5 104.5,159.5 Z"/></g>
<g><path style="opacity:1" fill="#58aacc" d="M 119.5,174.5 C 116.167,174.5 112.833,174.5 109.5,174.5C 109.5,172.833 109.5,171.167 109.5,169.5C 111.167,169.5 112.833,169.5 114.5,169.5C 114.5,166.167 114.5,162.833 114.5,159.5C 116.167,159.5 117.833,159.5 119.5,159.5C 119.5,164.5 119.5,169.5 119.5,174.5 Z"/></g>
<g><path style="opacity:1" fill="#5b6f8b" d="M 44.5,174.5 C 44.5,184.5 44.5,194.5 44.5,204.5C 42.8333,204.5 41.1667,204.5 39.5,204.5C 39.5,194.5 39.5,184.5 39.5,174.5C 41.1667,174.5 42.8333,174.5 44.5,174.5 Z"/></g>
<g><path style="opacity:1" fill="#eff3f4" d="M 264.5,174.5 C 266.167,174.5 267.833,174.5 269.5,174.5C 269.5,176.167 269.5,177.833 269.5,179.5C 267.833,179.5 266.167,179.5 264.5,179.5C 264.5,177.833 264.5,176.167 264.5,174.5 Z"/></g>
<g><path style="opacity:1" fill="#9fd5e7" d="M 109.5,174.5 C 112.833,174.5 116.167,174.5 119.5,174.5C 121.167,174.5 122.833,174.5 124.5,174.5C 124.5,177.833 124.5,181.167 124.5,184.5C 122.833,184.5 121.167,184.5 119.5,184.5C 116.167,184.5 112.833,184.5 109.5,184.5C 109.5,181.167 109.5,177.833 109.5,174.5 Z"/></g>
<g><path style="opacity:1" fill="#4eacde" d="M 179.5,99.5 C 179.5,101.167 179.5,102.833 179.5,104.5C 174.5,104.5 169.5,104.5 164.5,104.5C 161.167,104.5 157.833,104.5 154.5,104.5C 154.5,106.167 154.5,107.833 154.5,109.5C 152.833,109.5 151.167,109.5 149.5,109.5C 146.167,109.5 142.833,109.5 139.5,109.5C 139.5,111.167 139.5,112.833 139.5,114.5C 137.833,114.5 136.167,114.5 134.5,114.5C 134.5,116.167 134.5,117.833 134.5,119.5C 129.5,119.5 124.5,119.5 119.5,119.5C 119.5,121.167 119.5,122.833 119.5,124.5C 117.833,124.5 116.167,124.5 114.5,124.5C 114.5,126.167 114.5,127.833 114.5,129.5C 111.167,129.5 107.833,129.5 104.5,129.5C 104.5,131.167 104.5,132.833 104.5,134.5C 102.833,134.5 101.167,134.5 99.5,134.5C 99.5,136.167 99.5,137.833 99.5,139.5C 97.8333,139.5 96.1667,139.5 94.5,139.5C 94.5,141.167 94.5,142.833 94.5,144.5C 92.8333,144.5 91.1667,144.5 89.5,144.5C 89.5,146.167 89.5,147.833 89.5,149.5C 87.8333,149.5 86.1667,149.5 84.5,149.5C 84.5,151.167 84.5,152.833 84.5,154.5C 84.5,156.167 84.5,157.833 84.5,159.5C 82.8333,159.5 81.1667,159.5 79.5,159.5C 79.5,161.167 79.5,162.833 79.5,164.5C 79.5,171.167 79.5,177.833 79.5,184.5C 77.8333,184.5 76.1667,184.5 74.5,184.5C 74.5,189.5 74.5,194.5 74.5,199.5C 76.1667,199.5 77.8333,199.5 79.5,199.5C 79.5,204.5 79.5,209.5 79.5,214.5C 81.1667,214.5 82.8333,214.5 84.5,214.5C 84.5,217.833 84.5,221.167 84.5,224.5C 86.1667,224.5 87.8333,224.5 89.5,224.5C 89.5,226.167 89.5,227.833 89.5,229.5C 91.1667,229.5 92.8333,229.5 94.5,229.5C 94.5,231.167 94.5,232.833 94.5,234.5C 96.1667,234.5 97.8333,234.5 99.5,234.5C 99.5,236.167 99.5,237.833 99.5,239.5C 102.833,239.5 106.167,239.5 109.5,239.5C 109.5,241.167 109.5,242.833 109.5,244.5C 106.167,244.5 102.833,244.5 99.5,244.5C 97.8333,244.5 96.1667,244.5 94.5,244.5C 94.5,242.833 94.5,241.167 94.5,239.5C 92.8333,239.5 91.1667,239.5 89.5,239.5C 89.5,237.833 89.5,236.167 89.5,234.5C 87.8333,234.5 86.1667,234.5 84.5,234.5C 84.5,232.833 84.5,231.167 84.5,229.5C 82.8333,229.5 81.1667,229.5 79.5,229.5C 79.5,227.833 79.5,226.167 79.5,224.5C 77.8333,224.5 76.1667,224.5 74.5,224.5C 74.5,222.833 74.5,221.167 74.5,219.5C 72.8333,219.5 71.1667,219.5 69.5,219.5C 69.5,212.833 69.5,206.167 69.5,199.5C 67.8333,199.5 66.1667,199.5 64.5,199.5C 64.5,194.5 64.5,189.5 64.5,184.5C 66.1667,184.5 67.8333,184.5 69.5,184.5C 69.5,177.833 69.5,171.167 69.5,164.5C 71.1667,164.5 72.8333,164.5 74.5,164.5C 74.5,161.167 74.5,157.833 74.5,154.5C 76.1667,154.5 77.8333,154.5 79.5,154.5C 79.5,151.167 79.5,147.833 79.5,144.5C 81.1667,144.5 82.8333,144.5 84.5,144.5C 84.5,142.833 84.5,141.167 84.5,139.5C 86.1667,139.5 87.8333,139.5 89.5,139.5C 89.5,137.833 89.5,136.167 89.5,134.5C 91.1667,134.5 92.8333,134.5 94.5,134.5C 94.5,132.833 94.5,131.167 94.5,129.5C 96.1667,129.5 97.8333,129.5 99.5,129.5C 99.5,127.833 99.5,126.167 99.5,124.5C 101.167,124.5 102.833,124.5 104.5,124.5C 104.5,122.833 104.5,121.167 104.5,119.5C 107.833,119.5 111.167,119.5 114.5,119.5C 114.5,117.833 114.5,116.167 114.5,114.5C 116.167,114.5 117.833,114.5 119.5,114.5C 119.5,112.833 119.5,111.167 119.5,109.5C 122.833,109.5 126.167,109.5 129.5,109.5C 129.5,107.833 129.5,106.167 129.5,104.5C 136.167,104.5 142.833,104.5 149.5,104.5C 149.5,102.833 149.5,101.167 149.5,99.5C 159.5,99.5 169.5,99.5 179.5,99.5 Z"/></g>
<g><path style="opacity:1" fill="#152c54" d="M 269.5,184.5 C 269.5,186.167 269.5,187.833 269.5,189.5C 267.833,189.5 266.167,189.5 264.5,189.5C 264.5,187.833 264.5,186.167 264.5,184.5C 266.167,184.5 267.833,184.5 269.5,184.5 Z"/></g>
<g><path style="opacity:1" fill="#34719e" d="M 264.5,204.5 C 264.5,202.833 264.5,201.167 264.5,199.5C 262.833,199.5 261.167,199.5 259.5,199.5C 259.5,201.167 259.5,202.833 259.5,204.5C 257.833,204.5 256.167,204.5 254.5,204.5C 254.5,201.167 254.5,197.833 254.5,194.5C 256.167,194.5 257.833,194.5 259.5,194.5C 259.5,192.833 259.5,191.167 259.5,189.5C 261.167,189.5 262.833,189.5 264.5,189.5C 266.167,189.5 267.833,189.5 269.5,189.5C 269.5,187.833 269.5,186.167 269.5,184.5C 271.167,184.5 272.833,184.5 274.5,184.5C 274.5,182.833 274.5,181.167 274.5,179.5C 276.167,179.5 277.833,179.5 279.5,179.5C 279.5,176.167 279.5,172.833 279.5,169.5C 281.167,169.5 282.833,169.5 284.5,169.5C 284.5,166.167 284.5,162.833 284.5,159.5C 286.167,159.5 287.833,159.5 289.5,159.5C 289.5,156.167 289.5,152.833 289.5,149.5C 291.167,149.5 292.833,149.5 294.5,149.5C 294.5,154.5 294.5,159.5 294.5,164.5C 292.833,164.5 291.167,164.5 289.5,164.5C 289.5,167.833 289.5,171.167 289.5,174.5C 287.833,174.5 286.167,174.5 284.5,174.5C 284.5,176.5 284.5,178.5 284.5,180.5C 283.167,180.5 281.833,180.5 280.5,180.5C 280.5,181.833 280.5,183.167 280.5,184.5C 278.533,184.261 276.699,184.594 275,185.5C 274.502,188.817 274.335,192.15 274.5,195.5C 273.167,195.5 271.833,195.5 270.5,195.5C 271.167,199.5 269.5,201.167 265.5,200.5C 265.768,202.099 265.434,203.432 264.5,204.5 Z"/></g>
<g><path style="opacity:1" fill="#f2f5f6" d="M 179.5,199.5 C 179.5,201.167 179.5,202.833 179.5,204.5C 177.833,204.5 176.167,204.5 174.5,204.5C 174.5,202.833 174.5,201.167 174.5,199.5C 176.167,199.5 177.833,199.5 179.5,199.5 Z"/></g>
<g><path style="opacity:1" fill="#6b8fa4" d="M 139.5,204.5 C 149.5,204.5 159.5,204.5 169.5,204.5C 169.5,206.167 169.5,207.833 169.5,209.5C 159.5,209.5 149.5,209.5 139.5,209.5C 139.5,207.833 139.5,206.167 139.5,204.5 Z"/></g>
<g><path style="opacity:1" fill="#4ba8da" d="M 244.5,129.5 C 246.167,129.5 247.833,129.5 249.5,129.5C 251.167,129.5 252.833,129.5 254.5,129.5C 254.5,136.167 254.5,142.833 254.5,149.5C 252.833,149.5 251.167,149.5 249.5,149.5C 249.5,154.5 249.5,159.5 249.5,164.5C 247.833,164.5 246.167,164.5 244.5,164.5C 244.5,167.833 244.5,171.167 244.5,174.5C 242.833,174.5 241.167,174.5 239.5,174.5C 239.5,176.167 239.5,177.833 239.5,179.5C 237.833,179.5 236.167,179.5 234.5,179.5C 234.5,182.833 234.5,186.167 234.5,189.5C 232.833,189.5 231.167,189.5 229.5,189.5C 229.5,191.167 229.5,192.833 229.5,194.5C 227.833,194.5 226.167,194.5 224.5,194.5C 224.5,196.167 224.5,197.833 224.5,199.5C 221.167,199.5 217.833,199.5 214.5,199.5C 214.5,201.167 214.5,202.833 214.5,204.5C 212.833,204.5 211.167,204.5 209.5,204.5C 209.5,206.167 209.5,207.833 209.5,209.5C 206.167,209.5 202.833,209.5 199.5,209.5C 199.5,211.167 199.5,212.833 199.5,214.5C 196.167,214.5 192.833,214.5 189.5,214.5C 189.5,216.167 189.5,217.833 189.5,219.5C 187.833,219.5 186.167,219.5 184.5,219.5C 182.833,219.5 181.167,219.5 179.5,219.5C 177.833,219.5 176.167,219.5 174.5,219.5C 174.5,221.167 174.5,222.833 174.5,224.5C 172.833,224.5 171.167,224.5 169.5,224.5C 157.833,224.5 146.167,224.5 134.5,224.5C 131.167,224.5 127.833,224.5 124.5,224.5C 124.5,222.833 124.5,221.167 124.5,219.5C 132.833,219.5 141.167,219.5 149.5,219.5C 149.5,217.833 149.5,216.167 149.5,214.5C 159.5,214.5 169.5,214.5 179.5,214.5C 179.5,212.833 179.5,211.167 179.5,209.5C 182.833,209.5 186.167,209.5 189.5,209.5C 189.5,207.833 189.5,206.167 189.5,204.5C 192.833,204.5 196.167,204.5 199.5,204.5C 199.5,202.833 199.5,201.167 199.5,199.5C 202.833,199.5 206.167,199.5 209.5,199.5C 209.5,197.833 209.5,196.167 209.5,194.5C 211.167,194.5 212.833,194.5 214.5,194.5C 214.5,192.833 214.5,191.167 214.5,189.5C 216.167,189.5 217.833,189.5 219.5,189.5C 219.5,187.833 219.5,186.167 219.5,184.5C 221.167,184.5 222.833,184.5 224.5,184.5C 224.5,182.833 224.5,181.167 224.5,179.5C 226.167,179.5 227.833,179.5 229.5,179.5C 229.5,177.833 229.5,176.167 229.5,174.5C 231.167,174.5 232.833,174.5 234.5,174.5C 234.5,171.167 234.5,167.833 234.5,164.5C 236.167,164.5 237.833,164.5 239.5,164.5C 239.5,159.5 239.5,154.5 239.5,149.5C 241.167,149.5 242.833,149.5 244.5,149.5C 244.5,142.833 244.5,136.167 244.5,129.5 Z"/></g>
<g><path style="opacity:1" fill="#f1f4f5" d="M 44.5,214.5 C 47.8333,214.5 51.1667,214.5 54.5,214.5C 54.5,216.167 54.5,217.833 54.5,219.5C 51.1667,219.5 47.8333,219.5 44.5,219.5C 44.5,217.833 44.5,216.167 44.5,214.5 Z"/></g>
<g><path style="opacity:1" fill="#eef4f7" d="M 179.5,219.5 C 179.5,221.167 179.5,222.833 179.5,224.5C 177.833,224.5 176.167,224.5 174.5,224.5C 174.5,222.833 174.5,221.167 174.5,219.5C 176.167,219.5 177.833,219.5 179.5,219.5 Z"/></g>
<g><path style="opacity:1" fill="#919fa8" d="M 179.5,219.5 C 181.167,219.5 182.833,219.5 184.5,219.5C 184.5,222.833 184.5,226.167 184.5,229.5C 179.5,229.5 174.5,229.5 169.5,229.5C 169.5,227.833 169.5,226.167 169.5,224.5C 171.167,224.5 172.833,224.5 174.5,224.5C 176.167,224.5 177.833,224.5 179.5,224.5C 179.5,222.833 179.5,221.167 179.5,219.5 Z"/></g>
<g><path style="opacity:1" fill="#5d829b" d="M 134.5,224.5 C 146.167,224.5 157.833,224.5 169.5,224.5C 169.5,226.167 169.5,227.833 169.5,229.5C 157.833,229.5 146.167,229.5 134.5,229.5C 134.5,227.833 134.5,226.167 134.5,224.5 Z"/></g>
<g><path style="opacity:1" fill="#4084af" d="M 264.5,204.5 C 263.432,205.434 262.099,205.768 260.5,205.5C 261.167,209.5 259.5,211.167 255.5,210.5C 256.167,214.5 254.5,216.167 250.5,215.5C 250.714,217.144 250.38,218.644 249.5,220C 246.518,220.498 243.518,220.665 240.5,220.5C 241.167,224.5 239.5,226.167 235.5,225.5C 235.714,227.144 235.38,228.644 234.5,230C 231.518,230.498 228.518,230.665 225.5,230.5C 225.81,233.713 225.477,236.713 224.5,239.5C 224.5,237.833 224.5,236.167 224.5,234.5C 221.167,234.5 217.833,234.5 214.5,234.5C 214.5,232.833 214.5,231.167 214.5,229.5C 217.833,229.5 221.167,229.5 224.5,229.5C 224.5,227.833 224.5,226.167 224.5,224.5C 226.167,224.5 227.833,224.5 229.5,224.5C 229.5,222.833 229.5,221.167 229.5,219.5C 232.833,219.5 236.167,219.5 239.5,219.5C 239.5,217.833 239.5,216.167 239.5,214.5C 241.167,214.5 242.833,214.5 244.5,214.5C 244.5,212.833 244.5,211.167 244.5,209.5C 246.167,209.5 247.833,209.5 249.5,209.5C 249.5,207.833 249.5,206.167 249.5,204.5C 251.167,204.5 252.833,204.5 254.5,204.5C 256.167,204.5 257.833,204.5 259.5,204.5C 259.5,202.833 259.5,201.167 259.5,199.5C 261.167,199.5 262.833,199.5 264.5,199.5C 264.5,201.167 264.5,202.833 264.5,204.5 Z"/></g>
<g><path style="opacity:1" fill="#589bbd" d="M 214.5,234.5 C 214.5,236.167 214.5,237.833 214.5,239.5C 211.167,239.5 207.833,239.5 204.5,239.5C 204.5,237.833 204.5,236.167 204.5,234.5C 207.833,234.5 211.167,234.5 214.5,234.5 Z"/></g>
<g><path style="opacity:1" fill="#d1dbe1" d="M 214.5,234.5 C 217.833,234.5 221.167,234.5 224.5,234.5C 224.5,236.167 224.5,237.833 224.5,239.5C 222.833,239.5 221.167,239.5 219.5,239.5C 219.5,241.167 219.5,242.833 219.5,244.5C 217.833,244.5 216.167,244.5 214.5,244.5C 214.5,242.833 214.5,241.167 214.5,239.5C 214.5,237.833 214.5,236.167 214.5,234.5 Z"/></g>
<g><path style="opacity:1" fill="#536f84" d="M 204.5,239.5 C 207.833,239.5 211.167,239.5 214.5,239.5C 214.5,241.167 214.5,242.833 214.5,244.5C 211.167,244.5 207.833,244.5 204.5,244.5C 204.5,242.833 204.5,241.167 204.5,239.5 Z"/></g>
<g><path style="opacity:1" fill="#7a8ea8" d="M 224.5,239.5 C 224.5,241.167 224.5,242.833 224.5,244.5C 222.833,244.5 221.167,244.5 219.5,244.5C 219.5,242.833 219.5,241.167 219.5,239.5C 221.167,239.5 222.833,239.5 224.5,239.5 Z"/></g>
<g><path style="opacity:1" fill="#cddbe1" d="M 99.5,244.5 C 102.833,244.5 106.167,244.5 109.5,244.5C 109.5,247.833 109.5,251.167 109.5,254.5C 107.833,254.5 106.167,254.5 104.5,254.5C 104.5,252.833 104.5,251.167 104.5,249.5C 102.833,249.5 101.167,249.5 99.5,249.5C 99.5,247.833 99.5,246.167 99.5,244.5 Z"/></g>
<g><path style="opacity:1" fill="#496681" d="M 200.5,244.5 C 200.739,246.467 200.406,248.301 199.5,250C 194.511,250.499 189.511,250.666 184.5,250.5C 184.5,251.833 184.5,253.167 184.5,254.5C 182.833,254.5 181.167,254.5 179.5,254.5C 179.5,252.833 179.5,251.167 179.5,249.5C 184.5,249.5 189.5,249.5 194.5,249.5C 194.5,247.833 194.5,246.167 194.5,244.5C 196.5,244.5 198.5,244.5 200.5,244.5 Z"/></g>
<g><path style="opacity:1" fill="#374a67" d="M 74.5,249.5 C 76.1667,249.5 77.8333,249.5 79.5,249.5C 79.5,251.167 79.5,252.833 79.5,254.5C 77.8333,254.5 76.1667,254.5 74.5,254.5C 74.5,252.833 74.5,251.167 74.5,249.5 Z"/></g>
<g><path style="opacity:1" fill="#51a5d2" d="M 204.5,239.5 C 204.5,241.167 204.5,242.833 204.5,244.5C 203.167,244.5 201.833,244.5 200.5,244.5C 198.5,244.5 196.5,244.5 194.5,244.5C 194.5,246.167 194.5,247.833 194.5,249.5C 189.5,249.5 184.5,249.5 179.5,249.5C 179.5,251.167 179.5,252.833 179.5,254.5C 176.167,254.5 172.833,254.5 169.5,254.5C 149.5,254.5 129.5,254.5 109.5,254.5C 109.5,251.167 109.5,247.833 109.5,244.5C 114.5,244.5 119.5,244.5 124.5,244.5C 124.5,246.167 124.5,247.833 124.5,249.5C 139.5,249.5 154.5,249.5 169.5,249.5C 169.5,247.833 169.5,246.167 169.5,244.5C 176.167,244.5 182.833,244.5 189.5,244.5C 189.5,242.833 189.5,241.167 189.5,239.5C 194.5,239.5 199.5,239.5 204.5,239.5 Z"/></g>
<g><path style="opacity:1" fill="#3c506f" d="M 94.5,259.5 C 97.8333,259.5 101.167,259.5 104.5,259.5C 104.5,261.167 104.5,262.833 104.5,264.5C 101.167,264.5 97.8333,264.5 94.5,264.5C 94.5,262.833 94.5,261.167 94.5,259.5 Z"/></g>
<g><path style="opacity:1" fill="#3d5271" d="M 164.5,259.5 C 164.5,261.167 164.5,262.833 164.5,264.5C 161.167,264.5 157.833,264.5 154.5,264.5C 154.5,262.833 154.5,261.167 154.5,259.5C 157.833,259.5 161.167,259.5 164.5,259.5 Z"/></g>
<g><path style="opacity:1" fill="#3e5373" d="M 119.5,264.5 C 127.833,264.5 136.167,264.5 144.5,264.5C 144.5,266.167 144.5,267.833 144.5,269.5C 136.167,269.5 127.833,269.5 119.5,269.5C 119.5,267.833 119.5,266.167 119.5,264.5 Z"/></g>
</svg>
