<?xml version="1.0" encoding="UTF-8"?>
<!DOCTYPE svg PUBLIC "-//W3C//DTD SVG 1.1//EN" "http://www.w3.org/Graphics/SVG/1.1/DTD/svg11.dtd">
<svg xmlns="http://www.w3.org/2000/svg" version="1.1" width="512px" height="512px" style="shape-rendering:geometricPrecision; text-rendering:geometricPrecision; image-rendering:optimizeQuality; fill-rule:evenodd; clip-rule:evenodd" xmlns:xlink="http://www.w3.org/1999/xlink">
<g><path style="opacity:0.88" fill="#000000" d="M 102.5,-0.5 C 107.167,-0.5 111.833,-0.5 116.5,-0.5C 116.5,4.5 116.5,9.5 116.5,14.5C 131.167,14.5 145.833,14.5 160.5,14.5C 160.5,9.5 160.5,4.5 160.5,-0.5C 165.5,-0.5 170.5,-0.5 175.5,-0.5C 175.5,4.5 175.5,9.5 175.5,14.5C 185.167,14.5 194.833,14.5 204.5,14.5C 204.5,24.1667 204.5,33.8333 204.5,43.5C 209.5,43.5 214.5,43.5 219.5,43.5C 219.5,51.1667 219.5,58.8333 219.5,66.5C 221.5,66.5 223.5,66.5 225.5,66.5C 225.5,68.5 225.5,70.5 225.5,72.5C 228.5,72.5 231.5,72.5 234.5,72.5C 234.5,75.5 234.5,78.5 234.5,81.5C 236.5,81.5 238.5,81.5 240.5,81.5C 240.5,83.5 240.5,85.5 240.5,87.5C 243.167,87.5 245.833,87.5 248.5,87.5C 248.5,111.833 248.5,136.167 248.5,160.5C 268.167,160.5 287.833,160.5 307.5,160.5C 307.5,111.833 307.5,63.1667 307.5,14.5C 312.5,14.5 317.5,14.5 322.5,14.5C 322.5,19.1667 322.5,23.8333 322.5,28.5C 322.5,141.167 322.5,253.833 322.5,366.5C 327.5,366.5 332.5,366.5 337.5,366.5C 337.5,253.833 337.5,141.167 337.5,28.5C 337.5,23.8333 337.5,19.1667 337.5,14.5C 342.167,14.5 346.833,14.5 351.5,14.5C 351.5,19.1667 351.5,23.8333 351.5,28.5C 385.833,28.5 420.167,28.5 454.5,28.5C 454.5,48.1667 454.5,67.8333 454.5,87.5C 473.5,87.5 492.5,87.5 511.5,87.5C 511.5,141.167 511.5,194.833 511.5,248.5C 472.833,248.5 434.167,248.5 395.5,248.5C 395.5,243.833 395.5,239.167 395.5,234.5C 400.5,234.5 405.5,234.5 410.5,234.5C 415.5,234.5 420.5,234.5 425.5,234.5C 449.833,234.5 474.167,234.5 498.5,234.5C 498.5,229.5 498.5,224.5 498.5,219.5C 498.5,185.167 498.5,150.833 498.5,116.5C 483.833,116.5 469.167,116.5 454.5,116.5C 454.5,141.167 454.5,165.833 454.5,190.5C 449.5,190.5 444.5,190.5 439.5,190.5C 439.5,185.5 439.5,180.5 439.5,175.5C 434.833,175.5 430.167,175.5 425.5,175.5C 420.5,175.5 415.5,175.5 410.5,175.5C 405.5,175.5 400.5,175.5 395.5,175.5C 395.5,180.5 395.5,185.5 395.5,190.5C 380.833,190.5 366.167,190.5 351.5,190.5C 351.5,254.167 351.5,317.833 351.5,381.5C 356.5,381.5 361.5,381.5 366.5,381.5C 366.5,391.167 366.5,400.833 366.5,410.5C 371.5,410.5 376.5,410.5 381.5,410.5C 381.5,415.5 381.5,420.5 381.5,425.5C 410.833,425.5 440.167,425.5 469.5,425.5C 469.5,430.167 469.5,434.833 469.5,439.5C 474.167,439.5 478.833,439.5 483.5,439.5C 483.5,449.5 483.5,459.5 483.5,469.5C 478.833,469.5 474.167,469.5 469.5,469.5C 469.5,464.5 469.5,459.5 469.5,454.5C 464.5,454.5 459.5,454.5 454.5,454.5C 449.5,454.5 444.5,454.5 439.5,454.5C 439.5,449.5 439.5,444.5 439.5,439.5C 415.167,439.5 390.833,439.5 366.5,439.5C 366.5,434.833 366.5,430.167 366.5,425.5C 361.5,425.5 356.5,425.5 351.5,425.5C 351.5,420.5 351.5,415.5 351.5,410.5C 351.5,405.5 351.5,400.5 351.5,395.5C 346.833,395.5 342.167,395.5 337.5,395.5C 337.5,390.833 337.5,386.167 337.5,381.5C 332.5,381.5 327.5,381.5 322.5,381.5C 312.5,381.5 302.5,381.5 292.5,381.5C 292.5,332.5 292.5,283.5 292.5,234.5C 277.833,234.5 263.167,234.5 248.5,234.5C 243.833,234.5 239.167,234.5 234.5,234.5C 234.5,229.5 234.5,224.5 234.5,219.5C 244.167,219.5 253.833,219.5 263.5,219.5C 268.5,219.5 273.5,219.5 278.5,219.5C 283.167,219.5 287.833,219.5 292.5,219.5C 297.5,219.5 302.5,219.5 307.5,219.5C 307.5,214.5 307.5,209.5 307.5,204.5C 307.5,194.833 307.5,185.167 307.5,175.5C 302.5,175.5 297.5,175.5 292.5,175.5C 287.833,175.5 283.167,175.5 278.5,175.5C 273.5,175.5 268.5,175.5 263.5,175.5C 239.167,175.5 214.833,175.5 190.5,175.5C 185.5,175.5 180.5,175.5 175.5,175.5C 170.5,175.5 165.5,175.5 160.5,175.5C 160.5,170.5 160.5,165.5 160.5,160.5C 165.5,160.5 170.5,160.5 175.5,160.5C 180.5,160.5 185.5,160.5 190.5,160.5C 190.5,155.833 190.5,151.167 190.5,146.5C 195.167,146.5 199.833,146.5 204.5,146.5C 204.5,151.167 204.5,155.833 204.5,160.5C 209.5,160.5 214.5,160.5 219.5,160.5C 224.5,160.5 229.5,160.5 234.5,160.5C 234.5,155.833 234.5,151.167 234.5,146.5C 234.5,141.5 234.5,136.5 234.5,131.5C 234.5,126.5 234.5,121.5 234.5,116.5C 234.5,109.5 234.5,102.5 234.5,95.5C 231.833,95.5 229.167,95.5 226.5,95.5C 226.5,92.8333 226.5,90.1667 226.5,87.5C 224.167,87.5 221.833,87.5 219.5,87.5C 219.5,85.1667 219.5,82.8333 219.5,80.5C 216.833,80.5 214.167,80.5 211.5,80.5C 211.5,77.8333 211.5,75.1667 211.5,72.5C 209.167,72.5 206.833,72.5 204.5,72.5C 204.5,67.8333 204.5,63.1667 204.5,58.5C 199.833,58.5 195.167,58.5 190.5,58.5C 190.5,53.5 190.5,48.5 190.5,43.5C 185.5,43.5 180.5,43.5 175.5,43.5C 175.5,38.5 175.5,33.5 175.5,28.5C 151.167,28.5 126.833,28.5 102.5,28.5C 97.5,28.5 92.5,28.5 87.5,28.5C 87.5,33.5 87.5,38.5 87.5,43.5C 87.5,48.5 87.5,53.5 87.5,58.5C 83.1667,58.5 78.8333,58.5 74.5,58.5C 74.5,63.1667 74.5,67.8333 74.5,72.5C 73.8333,72.5 73.1667,72.5 72.5,72.5C 67.8333,72.5 63.1667,72.5 58.5,72.5C 58.5,77.5 58.5,82.5 58.5,87.5C 53.5,87.5 48.5,87.5 43.5,87.5C 43.5,78.5 43.5,69.5 43.5,60.5C 46.8333,60.5 50.1667,60.5 53.5,60.5C 53.5,57.5 53.5,54.5 53.5,51.5C 56.5,51.5 59.5,51.5 62.5,51.5C 62.5,49.8333 62.5,48.1667 62.5,46.5C 65.8333,46.5 69.1667,46.5 72.5,46.5C 72.5,35.8333 72.5,25.1667 72.5,14.5C 82.5,14.5 92.5,14.5 102.5,14.5C 102.5,9.5 102.5,4.5 102.5,-0.5 Z"/></g>
<g><path style="opacity:1" fill="#171a1b" d="M 322.5,14.5 C 327.5,14.5 332.5,14.5 337.5,14.5C 337.5,19.1667 337.5,23.8333 337.5,28.5C 332.5,28.5 327.5,28.5 322.5,28.5C 322.5,23.8333 322.5,19.1667 322.5,14.5 Z"/></g>
<g><path style="opacity:1" fill="#161817" d="M 102.5,28.5 C 102.5,33.5 102.5,38.5 102.5,43.5C 97.5,43.5 92.5,43.5 87.5,43.5C 87.5,38.5 87.5,33.5 87.5,28.5C 92.5,28.5 97.5,28.5 102.5,28.5 Z"/></g>
<g><path style="opacity:1" fill="#e3e6ea" d="M 102.5,28.5 C 126.833,28.5 151.167,28.5 175.5,28.5C 175.5,33.5 175.5,38.5 175.5,43.5C 170.5,43.5 165.5,43.5 160.5,43.5C 145.833,43.5 131.167,43.5 116.5,43.5C 111.833,43.5 107.167,43.5 102.5,43.5C 102.5,38.5 102.5,33.5 102.5,28.5 Z"/></g>
<g><path style="opacity:1" fill="#828f9a" d="M 322.5,28.5 C 327.5,28.5 332.5,28.5 337.5,28.5C 337.5,141.167 337.5,253.833 337.5,366.5C 332.5,366.5 327.5,366.5 322.5,366.5C 322.5,253.833 322.5,141.167 322.5,28.5 Z"/></g>
<g><path style="opacity:1" fill="#e4e8eb" d="M 87.5,43.5 C 92.5,43.5 97.5,43.5 102.5,43.5C 102.5,48.5 102.5,53.5 102.5,58.5C 97.5,58.5 92.5,58.5 87.5,58.5C 87.5,53.5 87.5,48.5 87.5,43.5 Z"/></g>
<g><path style="opacity:1" fill="#494b4c" d="M 102.5,43.5 C 107.167,43.5 111.833,43.5 116.5,43.5C 116.5,48.5 116.5,53.5 116.5,58.5C 111.833,58.5 107.167,58.5 102.5,58.5C 102.5,53.5 102.5,48.5 102.5,43.5 Z"/></g>
<g><path style="opacity:1" fill="#030303" d="M 116.5,43.5 C 131.167,43.5 145.833,43.5 160.5,43.5C 160.5,48.5 160.5,53.5 160.5,58.5C 155.833,58.5 151.167,58.5 146.5,58.5C 141.5,58.5 136.5,58.5 131.5,58.5C 126.5,58.5 121.5,58.5 116.5,58.5C 116.5,53.5 116.5,48.5 116.5,43.5 Z"/></g>
<g><path style="opacity:1" fill="#3e4040" d="M 160.5,43.5 C 165.5,43.5 170.5,43.5 175.5,43.5C 175.5,48.5 175.5,53.5 175.5,58.5C 170.5,58.5 165.5,58.5 160.5,58.5C 160.5,53.5 160.5,48.5 160.5,43.5 Z"/></g>
<g><path style="opacity:1" fill="#e3e7ea" d="M 175.5,43.5 C 180.5,43.5 185.5,43.5 190.5,43.5C 190.5,48.5 190.5,53.5 190.5,58.5C 185.5,58.5 180.5,58.5 175.5,58.5C 175.5,53.5 175.5,48.5 175.5,43.5 Z"/></g>
<g><path style="opacity:1" fill="#be6151" d="M 425.5,43.5 C 425.5,48.5 425.5,53.5 425.5,58.5C 415.5,58.5 405.5,58.5 395.5,58.5C 390.833,58.5 386.167,58.5 381.5,58.5C 376.5,58.5 371.5,58.5 366.5,58.5C 361.5,58.5 356.5,58.5 351.5,58.5C 351.5,53.5 351.5,48.5 351.5,43.5C 376.167,43.5 400.833,43.5 425.5,43.5 Z"/></g>
<g><path style="opacity:1" fill="#9c5043" d="M 425.5,43.5 C 430.167,43.5 434.833,43.5 439.5,43.5C 439.5,48.5 439.5,53.5 439.5,58.5C 434.833,58.5 430.167,58.5 425.5,58.5C 425.5,53.5 425.5,48.5 425.5,43.5 Z"/></g>
<g><path style="opacity:1" fill="#e5e9ec" d="M 87.5,58.5 C 87.5,63.1667 87.5,67.8333 87.5,72.5C 83.1667,72.5 78.8333,72.5 74.5,72.5C 74.5,67.8333 74.5,63.1667 74.5,58.5C 78.8333,58.5 83.1667,58.5 87.5,58.5 Z"/></g>
<g><path style="opacity:1" fill="#585a5a" d="M 87.5,58.5 C 92.5,58.5 97.5,58.5 102.5,58.5C 102.5,63.1667 102.5,67.8333 102.5,72.5C 97.5,72.5 92.5,72.5 87.5,72.5C 87.5,67.8333 87.5,63.1667 87.5,58.5 Z"/></g>
<g><path style="opacity:1" fill="#244a53" d="M 102.5,58.5 C 107.167,58.5 111.833,58.5 116.5,58.5C 116.5,63.1667 116.5,67.8333 116.5,72.5C 111.833,72.5 107.167,72.5 102.5,72.5C 102.5,67.8333 102.5,63.1667 102.5,58.5 Z"/></g>
<g><path style="opacity:1" fill="#5ab6cf" d="M 116.5,58.5 C 121.5,58.5 126.5,58.5 131.5,58.5C 131.5,63.1667 131.5,67.8333 131.5,72.5C 126.5,72.5 121.5,72.5 116.5,72.5C 116.5,67.8333 116.5,63.1667 116.5,58.5 Z"/></g>
<g><path style="opacity:1" fill="#68d4f2" d="M 131.5,58.5 C 136.5,58.5 141.5,58.5 146.5,58.5C 146.5,63.1667 146.5,67.8333 146.5,72.5C 151.167,72.5 155.833,72.5 160.5,72.5C 165.5,72.5 170.5,72.5 175.5,72.5C 175.5,77.5 175.5,82.5 175.5,87.5C 175.5,97.1667 175.5,106.833 175.5,116.5C 170.5,116.5 165.5,116.5 160.5,116.5C 160.5,121.5 160.5,126.5 160.5,131.5C 155.833,131.5 151.167,131.5 146.5,131.5C 141.5,131.5 136.5,131.5 131.5,131.5C 126.5,131.5 121.5,131.5 116.5,131.5C 116.5,126.5 116.5,121.5 116.5,116.5C 111.833,116.5 107.167,116.5 102.5,116.5C 102.5,106.833 102.5,97.1667 102.5,87.5C 102.5,82.5 102.5,77.5 102.5,72.5C 107.167,72.5 111.833,72.5 116.5,72.5C 121.5,72.5 126.5,72.5 131.5,72.5C 131.5,67.8333 131.5,63.1667 131.5,58.5 Z"/></g>
<g><path style="opacity:1" fill="#5dbdd7" d="M 146.5,58.5 C 151.167,58.5 155.833,58.5 160.5,58.5C 160.5,63.1667 160.5,67.8333 160.5,72.5C 155.833,72.5 151.167,72.5 146.5,72.5C 146.5,67.8333 146.5,63.1667 146.5,58.5 Z"/></g>
<g><path style="opacity:1" fill="#27505a" d="M 160.5,58.5 C 165.5,58.5 170.5,58.5 175.5,58.5C 175.5,63.1667 175.5,67.8333 175.5,72.5C 170.5,72.5 165.5,72.5 160.5,72.5C 160.5,67.8333 160.5,63.1667 160.5,58.5 Z"/></g>
<g><path style="opacity:1" fill="#515353" d="M 175.5,58.5 C 180.5,58.5 185.5,58.5 190.5,58.5C 190.5,63.1667 190.5,67.8333 190.5,72.5C 185.5,72.5 180.5,72.5 175.5,72.5C 175.5,67.8333 175.5,63.1667 175.5,58.5 Z"/></g>
<g><path style="opacity:1" fill="#e5e9ec" d="M 190.5,58.5 C 195.167,58.5 199.833,58.5 204.5,58.5C 204.5,63.1667 204.5,67.8333 204.5,72.5C 199.833,72.5 195.167,72.5 190.5,72.5C 190.5,67.8333 190.5,63.1667 190.5,58.5 Z"/></g>
<g><path style="opacity:1" fill="#fe816d" d="M 351.5,58.5 C 356.5,58.5 361.5,58.5 366.5,58.5C 366.5,63.1667 366.5,67.8333 366.5,72.5C 366.5,77.5 366.5,82.5 366.5,87.5C 366.5,92.5 366.5,97.5 366.5,102.5C 366.5,107.167 366.5,111.833 366.5,116.5C 371.5,116.5 376.5,116.5 381.5,116.5C 386.167,116.5 390.833,116.5 395.5,116.5C 395.5,111.833 395.5,107.167 395.5,102.5C 390.833,102.5 386.167,102.5 381.5,102.5C 381.5,97.5 381.5,92.5 381.5,87.5C 386.167,87.5 390.833,87.5 395.5,87.5C 395.5,77.8333 395.5,68.1667 395.5,58.5C 405.5,58.5 415.5,58.5 425.5,58.5C 425.5,92.5 425.5,126.5 425.5,160.5C 400.833,160.5 376.167,160.5 351.5,160.5C 351.5,126.5 351.5,92.5 351.5,58.5 Z"/></g>
<g><path style="opacity:1" fill="#763c32" d="M 366.5,58.5 C 371.5,58.5 376.5,58.5 381.5,58.5C 381.5,63.1667 381.5,67.8333 381.5,72.5C 376.5,72.5 371.5,72.5 366.5,72.5C 366.5,67.8333 366.5,63.1667 366.5,58.5 Z"/></g>
<g><path style="opacity:1" fill="#d06b59" d="M 425.5,58.5 C 430.167,58.5 434.833,58.5 439.5,58.5C 439.5,92.5 439.5,126.5 439.5,160.5C 434.833,160.5 430.167,160.5 425.5,160.5C 425.5,126.5 425.5,92.5 425.5,58.5 Z"/></g>
<g><path style="opacity:1" fill="#aeb2b3" d="M 72.5,72.5 C 73.1667,72.5 73.8333,72.5 74.5,72.5C 78.8333,72.5 83.1667,72.5 87.5,72.5C 87.5,77.5 87.5,82.5 87.5,87.5C 82.5,87.5 77.5,87.5 72.5,87.5C 72.5,82.5 72.5,77.5 72.5,72.5 Z"/></g>
<g><path style="opacity:1" fill="#030707" d="M 87.5,72.5 C 92.5,72.5 97.5,72.5 102.5,72.5C 102.5,77.5 102.5,82.5 102.5,87.5C 97.5,87.5 92.5,87.5 87.5,87.5C 87.5,82.5 87.5,77.5 87.5,72.5 Z"/></g>
<g><path style="opacity:1" fill="#060d0d" d="M 175.5,72.5 C 180.5,72.5 185.5,72.5 190.5,72.5C 190.5,77.5 190.5,82.5 190.5,87.5C 185.5,87.5 180.5,87.5 175.5,87.5C 175.5,82.5 175.5,77.5 175.5,72.5 Z"/></g>
<g><path style="opacity:1" fill="#a2a5a7" d="M 190.5,72.5 C 195.167,72.5 199.833,72.5 204.5,72.5C 204.5,77.5 204.5,82.5 204.5,87.5C 199.833,87.5 195.167,87.5 190.5,87.5C 190.5,82.5 190.5,77.5 190.5,72.5 Z"/></g>
<g><path style="opacity:1" fill="#8a8c8f" d="M 204.5,72.5 C 206.833,72.5 209.167,72.5 211.5,72.5C 211.5,75.1667 211.5,77.8333 211.5,80.5C 214.167,80.5 216.833,80.5 219.5,80.5C 219.5,82.8333 219.5,85.1667 219.5,87.5C 219.5,97.1667 219.5,106.833 219.5,116.5C 214.5,116.5 209.5,116.5 204.5,116.5C 199.833,116.5 195.167,116.5 190.5,116.5C 190.5,106.833 190.5,97.1667 190.5,87.5C 195.167,87.5 199.833,87.5 204.5,87.5C 204.5,82.5 204.5,77.5 204.5,72.5 Z"/></g>
<g><path style="opacity:1" fill="#512a22" d="M 366.5,72.5 C 371.5,72.5 376.5,72.5 381.5,72.5C 381.5,77.5 381.5,82.5 381.5,87.5C 376.5,87.5 371.5,87.5 366.5,87.5C 366.5,82.5 366.5,77.5 366.5,72.5 Z"/></g>
<g><path style="opacity:1" fill="#e17261" d="M 381.5,58.5 C 386.167,58.5 390.833,58.5 395.5,58.5C 395.5,68.1667 395.5,77.8333 395.5,87.5C 390.833,87.5 386.167,87.5 381.5,87.5C 381.5,82.5 381.5,77.5 381.5,72.5C 381.5,67.8333 381.5,63.1667 381.5,58.5 Z"/></g>
<g><path style="opacity:1" fill="#000000" d="M 43.5,87.5 C 43.5,97.1667 43.5,106.833 43.5,116.5C 43.5,121.5 43.5,126.5 43.5,131.5C 43.5,141.167 43.5,150.833 43.5,160.5C 43.5,165.5 43.5,170.5 43.5,175.5C 48.5,175.5 53.5,175.5 58.5,175.5C 58.5,180.5 58.5,185.5 58.5,190.5C 53.5,190.5 48.5,190.5 43.5,190.5C 43.5,195.167 43.5,199.833 43.5,204.5C 38.5,204.5 33.5,204.5 28.5,204.5C 28.5,165.5 28.5,126.5 28.5,87.5C 33.5,87.5 38.5,87.5 43.5,87.5 Z"/></g>
<g><path style="opacity:1" fill="#7b7c7e" d="M 72.5,72.5 C 72.5,77.5 72.5,82.5 72.5,87.5C 72.5,97.1667 72.5,106.833 72.5,116.5C 67.8333,116.5 63.1667,116.5 58.5,116.5C 58.5,106.833 58.5,97.1667 58.5,87.5C 58.5,82.5 58.5,77.5 58.5,72.5C 63.1667,72.5 67.8333,72.5 72.5,72.5 Z"/></g>
<g><path style="opacity:1" fill="#9b9ea0" d="M 72.5,87.5 C 77.5,87.5 82.5,87.5 87.5,87.5C 87.5,97.1667 87.5,106.833 87.5,116.5C 82.5,116.5 77.5,116.5 72.5,116.5C 72.5,106.833 72.5,97.1667 72.5,87.5 Z"/></g>
<g><path style="opacity:1" fill="#0b1719" d="M 87.5,87.5 C 92.5,87.5 97.5,87.5 102.5,87.5C 102.5,97.1667 102.5,106.833 102.5,116.5C 97.5,116.5 92.5,116.5 87.5,116.5C 87.5,106.833 87.5,97.1667 87.5,87.5 Z"/></g>
<g><path style="opacity:1" fill="#13262b" d="M 175.5,87.5 C 180.5,87.5 185.5,87.5 190.5,87.5C 190.5,97.1667 190.5,106.833 190.5,116.5C 185.5,116.5 180.5,116.5 175.5,116.5C 175.5,106.833 175.5,97.1667 175.5,87.5 Z"/></g>
<g><path style="opacity:1" fill="#e37461" d="M 366.5,87.5 C 371.5,87.5 376.5,87.5 381.5,87.5C 381.5,92.5 381.5,97.5 381.5,102.5C 376.5,102.5 371.5,102.5 366.5,102.5C 366.5,97.5 366.5,92.5 366.5,87.5 Z"/></g>
<g><path style="opacity:1" fill="#3b331a" d="M 43.5,87.5 C 48.5,87.5 53.5,87.5 58.5,87.5C 58.5,97.1667 58.5,106.833 58.5,116.5C 53.5,116.5 48.5,116.5 43.5,116.5C 43.5,106.833 43.5,97.1667 43.5,87.5 Z"/></g>
<g><path style="opacity:1" fill="#2b2513" d="M 219.5,87.5 C 221.833,87.5 224.167,87.5 226.5,87.5C 226.5,90.1667 226.5,92.8333 226.5,95.5C 229.167,95.5 231.833,95.5 234.5,95.5C 234.5,102.5 234.5,109.5 234.5,116.5C 229.5,116.5 224.5,116.5 219.5,116.5C 219.5,106.833 219.5,97.1667 219.5,87.5 Z"/></g>
<g><path style="opacity:1" fill="#000000" d="M 366.5,102.5 C 371.5,102.5 376.5,102.5 381.5,102.5C 381.5,107.167 381.5,111.833 381.5,116.5C 376.5,116.5 371.5,116.5 366.5,116.5C 366.5,111.833 366.5,107.167 366.5,102.5 Z"/></g>
<g><path style="opacity:1" fill="#d06b59" d="M 381.5,102.5 C 386.167,102.5 390.833,102.5 395.5,102.5C 395.5,107.167 395.5,111.833 395.5,116.5C 390.833,116.5 386.167,116.5 381.5,116.5C 381.5,111.833 381.5,107.167 381.5,102.5 Z"/></g>
<g><path style="opacity:1" fill="#a68e49" d="M 43.5,116.5 C 48.5,116.5 53.5,116.5 58.5,116.5C 58.5,121.5 58.5,126.5 58.5,131.5C 53.5,131.5 48.5,131.5 43.5,131.5C 43.5,126.5 43.5,121.5 43.5,116.5 Z"/></g>
<g><path style="opacity:1" fill="#262827" d="M 58.5,116.5 C 63.1667,116.5 67.8333,116.5 72.5,116.5C 72.5,121.5 72.5,126.5 72.5,131.5C 67.8333,131.5 63.1667,131.5 58.5,131.5C 58.5,126.5 58.5,121.5 58.5,116.5 Z"/></g>
<g><path style="opacity:1" fill="#d6dadd" d="M 72.5,116.5 C 77.5,116.5 82.5,116.5 87.5,116.5C 87.5,121.5 87.5,126.5 87.5,131.5C 82.5,131.5 77.5,131.5 72.5,131.5C 72.5,126.5 72.5,121.5 72.5,116.5 Z"/></g>
<g><path style="opacity:1" fill="#000000" d="M 87.5,116.5 C 92.5,116.5 97.5,116.5 102.5,116.5C 102.5,121.5 102.5,126.5 102.5,131.5C 97.5,131.5 92.5,131.5 87.5,131.5C 87.5,126.5 87.5,121.5 87.5,116.5 Z"/></g>
<g><path style="opacity:1" fill="#4c9bb0" d="M 102.5,116.5 C 107.167,116.5 111.833,116.5 116.5,116.5C 116.5,121.5 116.5,126.5 116.5,131.5C 111.833,131.5 107.167,131.5 102.5,131.5C 102.5,126.5 102.5,121.5 102.5,116.5 Z"/></g>
<g><path style="opacity:1" fill="#52a7bd" d="M 175.5,116.5 C 175.5,121.5 175.5,126.5 175.5,131.5C 170.5,131.5 165.5,131.5 160.5,131.5C 160.5,126.5 160.5,121.5 160.5,116.5C 165.5,116.5 170.5,116.5 175.5,116.5 Z"/></g>
<g><path style="opacity:1" fill="#000000" d="M 175.5,116.5 C 180.5,116.5 185.5,116.5 190.5,116.5C 190.5,121.5 190.5,126.5 190.5,131.5C 185.5,131.5 180.5,131.5 175.5,131.5C 175.5,126.5 175.5,121.5 175.5,116.5 Z"/></g>
<g><path style="opacity:1" fill="#d3d7d9" d="M 190.5,116.5 C 195.167,116.5 199.833,116.5 204.5,116.5C 204.5,121.5 204.5,126.5 204.5,131.5C 199.833,131.5 195.167,131.5 190.5,131.5C 190.5,126.5 190.5,121.5 190.5,116.5 Z"/></g>
<g><path style="opacity:1" fill="#2b2d2d" d="M 204.5,116.5 C 209.5,116.5 214.5,116.5 219.5,116.5C 219.5,121.5 219.5,126.5 219.5,131.5C 214.5,131.5 209.5,131.5 204.5,131.5C 204.5,126.5 204.5,121.5 204.5,116.5 Z"/></g>
<g><path style="opacity:1" fill="#9c8645" d="M 219.5,116.5 C 224.5,116.5 229.5,116.5 234.5,116.5C 234.5,121.5 234.5,126.5 234.5,131.5C 229.5,131.5 224.5,131.5 219.5,131.5C 219.5,126.5 219.5,121.5 219.5,116.5 Z"/></g>
<g><path style="opacity:1" fill="#fe816d" d="M 498.5,219.5 C 478.833,219.5 459.167,219.5 439.5,219.5C 439.5,214.5 439.5,209.5 439.5,204.5C 444.5,204.5 449.5,204.5 454.5,204.5C 454.5,199.833 454.5,195.167 454.5,190.5C 454.5,165.833 454.5,141.167 454.5,116.5C 469.167,116.5 483.833,116.5 498.5,116.5C 498.5,150.833 498.5,185.167 498.5,219.5 Z"/></g>
<g><path style="opacity:1" fill="#fbd76f" d="M 43.5,131.5 C 48.5,131.5 53.5,131.5 58.5,131.5C 58.5,136.5 58.5,141.5 58.5,146.5C 58.5,151.167 58.5,155.833 58.5,160.5C 53.5,160.5 48.5,160.5 43.5,160.5C 43.5,150.833 43.5,141.167 43.5,131.5 Z"/></g>
<g><path style="opacity:1" fill="#18150a" d="M 58.5,131.5 C 63.1667,131.5 67.8333,131.5 72.5,131.5C 72.5,136.5 72.5,141.5 72.5,146.5C 67.8333,146.5 63.1667,146.5 58.5,146.5C 58.5,141.5 58.5,136.5 58.5,131.5 Z"/></g>
<g><path style="opacity:1" fill="#9c9fa1" d="M 72.5,131.5 C 77.5,131.5 82.5,131.5 87.5,131.5C 87.5,136.5 87.5,141.5 87.5,146.5C 82.5,146.5 77.5,146.5 72.5,146.5C 72.5,141.5 72.5,136.5 72.5,131.5 Z"/></g>
<g><path style="opacity:1" fill="#d0d3d6" d="M 87.5,131.5 C 92.5,131.5 97.5,131.5 102.5,131.5C 102.5,136.5 102.5,141.5 102.5,146.5C 97.5,146.5 92.5,146.5 87.5,146.5C 87.5,141.5 87.5,136.5 87.5,131.5 Z"/></g>
<g><path style="opacity:1" fill="#090b0a" d="M 102.5,131.5 C 107.167,131.5 111.833,131.5 116.5,131.5C 116.5,136.5 116.5,141.5 116.5,146.5C 111.833,146.5 107.167,146.5 102.5,146.5C 102.5,141.5 102.5,136.5 102.5,131.5 Z"/></g>
<g><path style="opacity:1" fill="#264e58" d="M 116.5,131.5 C 121.5,131.5 126.5,131.5 131.5,131.5C 131.5,136.5 131.5,141.5 131.5,146.5C 126.5,146.5 121.5,146.5 116.5,146.5C 116.5,141.5 116.5,136.5 116.5,131.5 Z"/></g>
<g><path style="opacity:1" fill="#387382" d="M 131.5,131.5 C 136.5,131.5 141.5,131.5 146.5,131.5C 146.5,136.5 146.5,141.5 146.5,146.5C 141.5,146.5 136.5,146.5 131.5,146.5C 131.5,141.5 131.5,136.5 131.5,131.5 Z"/></g>
<g><path style="opacity:1" fill="#2a5661" d="M 146.5,131.5 C 151.167,131.5 155.833,131.5 160.5,131.5C 160.5,136.5 160.5,141.5 160.5,146.5C 155.833,146.5 151.167,146.5 146.5,146.5C 146.5,141.5 146.5,136.5 146.5,131.5 Z"/></g>
<g><path style="opacity:1" fill="#030403" d="M 160.5,131.5 C 165.5,131.5 170.5,131.5 175.5,131.5C 175.5,136.5 175.5,141.5 175.5,146.5C 170.5,146.5 165.5,146.5 160.5,146.5C 160.5,141.5 160.5,136.5 160.5,131.5 Z"/></g>
<g><path style="opacity:1" fill="#c7cbcd" d="M 175.5,131.5 C 180.5,131.5 185.5,131.5 190.5,131.5C 190.5,136.5 190.5,141.5 190.5,146.5C 185.5,146.5 180.5,146.5 175.5,146.5C 175.5,141.5 175.5,136.5 175.5,131.5 Z"/></g>
<g><path style="opacity:1" fill="#a4a7a9" d="M 190.5,131.5 C 195.167,131.5 199.833,131.5 204.5,131.5C 204.5,136.5 204.5,141.5 204.5,146.5C 199.833,146.5 195.167,146.5 190.5,146.5C 190.5,141.5 190.5,136.5 190.5,131.5 Z"/></g>
<g><path style="opacity:1" fill="#121007" d="M 204.5,131.5 C 209.5,131.5 214.5,131.5 219.5,131.5C 219.5,136.5 219.5,141.5 219.5,146.5C 214.5,146.5 209.5,146.5 204.5,146.5C 204.5,141.5 204.5,136.5 204.5,131.5 Z"/></g>
<g><path style="opacity:1" fill="#fbd76f" d="M 219.5,131.5 C 224.5,131.5 229.5,131.5 234.5,131.5C 234.5,136.5 234.5,141.5 234.5,146.5C 229.5,146.5 224.5,146.5 219.5,146.5C 219.5,141.5 219.5,136.5 219.5,131.5 Z"/></g>
<g><path style="opacity:1" fill="#000000" d="M 381.5,131.5 C 381.5,136.5 381.5,141.5 381.5,146.5C 376.5,146.5 371.5,146.5 366.5,146.5C 366.5,141.5 366.5,136.5 366.5,131.5C 371.5,131.5 376.5,131.5 381.5,131.5 Z"/></g>
<g><path style="opacity:1" fill="#d06b59" d="M 381.5,131.5 C 386.167,131.5 390.833,131.5 395.5,131.5C 395.5,136.5 395.5,141.5 395.5,146.5C 390.833,146.5 386.167,146.5 381.5,146.5C 381.5,141.5 381.5,136.5 381.5,131.5 Z"/></g>
<g><path style="opacity:1" fill="#8e7a3e" d="M 58.5,146.5 C 63.1667,146.5 67.8333,146.5 72.5,146.5C 72.5,151.167 72.5,155.833 72.5,160.5C 67.8333,160.5 63.1667,160.5 58.5,160.5C 58.5,155.833 58.5,151.167 58.5,146.5 Z"/></g>
<g><path style="opacity:1" fill="#b2b5b7" d="M 87.5,146.5 C 92.5,146.5 97.5,146.5 102.5,146.5C 102.5,151.167 102.5,155.833 102.5,160.5C 97.5,160.5 92.5,160.5 87.5,160.5C 87.5,155.833 87.5,151.167 87.5,146.5 Z"/></g>
<g><path style="opacity:1" fill="#e5e9ec" d="M 102.5,146.5 C 107.167,146.5 111.833,146.5 116.5,146.5C 116.5,151.167 116.5,155.833 116.5,160.5C 111.833,160.5 107.167,160.5 102.5,160.5C 102.5,155.833 102.5,151.167 102.5,146.5 Z"/></g>
<g><path style="opacity:1" fill="#4e5050" d="M 116.5,146.5 C 121.5,146.5 126.5,146.5 131.5,146.5C 131.5,151.167 131.5,155.833 131.5,160.5C 126.5,160.5 121.5,160.5 116.5,160.5C 116.5,155.833 116.5,151.167 116.5,146.5 Z"/></g>
<g><path style="opacity:1" fill="#383a3a" d="M 131.5,146.5 C 136.5,146.5 141.5,146.5 146.5,146.5C 146.5,151.167 146.5,155.833 146.5,160.5C 141.5,160.5 136.5,160.5 131.5,160.5C 131.5,155.833 131.5,151.167 131.5,146.5 Z"/></g>
<g><path style="opacity:1" fill="#484a4b" d="M 146.5,146.5 C 151.167,146.5 155.833,146.5 160.5,146.5C 160.5,151.167 160.5,155.833 160.5,160.5C 155.833,160.5 151.167,160.5 146.5,160.5C 146.5,155.833 146.5,151.167 146.5,146.5 Z"/></g>
<g><path style="opacity:1" fill="#e5e9ec" d="M 160.5,146.5 C 165.5,146.5 170.5,146.5 175.5,146.5C 175.5,151.167 175.5,155.833 175.5,160.5C 170.5,160.5 165.5,160.5 160.5,160.5C 160.5,155.833 160.5,151.167 160.5,146.5 Z"/></g>
<g><path style="opacity:1" fill="#b6b9bb" d="M 175.5,146.5 C 180.5,146.5 185.5,146.5 190.5,146.5C 190.5,151.167 190.5,155.833 190.5,160.5C 185.5,160.5 180.5,160.5 175.5,160.5C 175.5,155.833 175.5,151.167 175.5,146.5 Z"/></g>
<g><path style="opacity:1" fill="#4a4020" d="M 204.5,146.5 C 209.5,146.5 214.5,146.5 219.5,146.5C 219.5,151.167 219.5,155.833 219.5,160.5C 214.5,160.5 209.5,160.5 204.5,160.5C 204.5,155.833 204.5,151.167 204.5,146.5 Z"/></g>
<g><path style="opacity:1" fill="#bca153" d="M 219.5,146.5 C 224.5,146.5 229.5,146.5 234.5,146.5C 234.5,151.167 234.5,155.833 234.5,160.5C 229.5,160.5 224.5,160.5 219.5,160.5C 219.5,155.833 219.5,151.167 219.5,146.5 Z"/></g>
<g><path style="opacity:1" fill="#7d6c37" d="M 43.5,160.5 C 48.5,160.5 53.5,160.5 58.5,160.5C 58.5,165.5 58.5,170.5 58.5,175.5C 53.5,175.5 48.5,175.5 43.5,175.5C 43.5,170.5 43.5,165.5 43.5,160.5 Z"/></g>
<g><path style="opacity:1" fill="#020202" d="M 72.5,146.5 C 77.5,146.5 82.5,146.5 87.5,146.5C 87.5,151.167 87.5,155.833 87.5,160.5C 92.5,160.5 97.5,160.5 102.5,160.5C 107.167,160.5 111.833,160.5 116.5,160.5C 116.5,165.5 116.5,170.5 116.5,175.5C 111.833,175.5 107.167,175.5 102.5,175.5C 97.5,175.5 92.5,175.5 87.5,175.5C 82.5,175.5 77.5,175.5 72.5,175.5C 67.8333,175.5 63.1667,175.5 58.5,175.5C 58.5,170.5 58.5,165.5 58.5,160.5C 63.1667,160.5 67.8333,160.5 72.5,160.5C 72.5,155.833 72.5,151.167 72.5,146.5 Z"/></g>
<g><path style="opacity:1" fill="#dde0e4" d="M 116.5,160.5 C 121.5,160.5 126.5,160.5 131.5,160.5C 136.5,160.5 141.5,160.5 146.5,160.5C 151.167,160.5 155.833,160.5 160.5,160.5C 160.5,165.5 160.5,170.5 160.5,175.5C 145.833,175.5 131.167,175.5 116.5,175.5C 116.5,170.5 116.5,165.5 116.5,160.5 Z"/></g>
<g><path style="opacity:1" fill="#a6abb1" d="M 58.5,175.5 C 63.1667,175.5 67.8333,175.5 72.5,175.5C 72.5,180.5 72.5,185.5 72.5,190.5C 67.8333,190.5 63.1667,190.5 58.5,190.5C 58.5,185.5 58.5,180.5 58.5,175.5 Z"/></g>
<g><path style="opacity:1" fill="#cbd0d8" d="M 72.5,175.5 C 77.5,175.5 82.5,175.5 87.5,175.5C 87.5,180.5 87.5,185.5 87.5,190.5C 92.5,190.5 97.5,190.5 102.5,190.5C 107.167,190.5 111.833,190.5 116.5,190.5C 131.167,190.5 145.833,190.5 160.5,190.5C 165.5,190.5 170.5,190.5 175.5,190.5C 180.5,190.5 185.5,190.5 190.5,190.5C 190.5,185.5 190.5,180.5 190.5,175.5C 214.833,175.5 239.167,175.5 263.5,175.5C 263.5,185.167 263.5,194.833 263.5,204.5C 243.833,204.5 224.167,204.5 204.5,204.5C 199.833,204.5 195.167,204.5 190.5,204.5C 190.5,209.5 190.5,214.5 190.5,219.5C 190.5,224.5 190.5,229.5 190.5,234.5C 185.5,234.5 180.5,234.5 175.5,234.5C 175.5,229.5 175.5,224.5 175.5,219.5C 170.5,219.5 165.5,219.5 160.5,219.5C 145.833,219.5 131.167,219.5 116.5,219.5C 111.833,219.5 107.167,219.5 102.5,219.5C 102.5,224.5 102.5,229.5 102.5,234.5C 97.5,234.5 92.5,234.5 87.5,234.5C 87.5,229.5 87.5,224.5 87.5,219.5C 87.5,214.5 87.5,209.5 87.5,204.5C 77.8333,204.5 68.1667,204.5 58.5,204.5C 58.5,199.833 58.5,195.167 58.5,190.5C 63.1667,190.5 67.8333,190.5 72.5,190.5C 72.5,185.5 72.5,180.5 72.5,175.5 Z"/></g>
<g><path style="opacity:1" fill="#b4bac0" d="M 87.5,175.5 C 92.5,175.5 97.5,175.5 102.5,175.5C 102.5,180.5 102.5,185.5 102.5,190.5C 97.5,190.5 92.5,190.5 87.5,190.5C 87.5,185.5 87.5,180.5 87.5,175.5 Z"/></g>
<g><path style="opacity:1" fill="#8a8f94" d="M 102.5,175.5 C 107.167,175.5 111.833,175.5 116.5,175.5C 116.5,180.5 116.5,185.5 116.5,190.5C 111.833,190.5 107.167,190.5 102.5,190.5C 102.5,185.5 102.5,180.5 102.5,175.5 Z"/></g>
<g><path style="opacity:1" fill="#000000" d="M 116.5,175.5 C 131.167,175.5 145.833,175.5 160.5,175.5C 160.5,180.5 160.5,185.5 160.5,190.5C 145.833,190.5 131.167,190.5 116.5,190.5C 116.5,185.5 116.5,180.5 116.5,175.5 Z"/></g>
<g><path style="opacity:1" fill="#898d92" d="M 160.5,175.5 C 165.5,175.5 170.5,175.5 175.5,175.5C 175.5,180.5 175.5,185.5 175.5,190.5C 170.5,190.5 165.5,190.5 160.5,190.5C 160.5,185.5 160.5,180.5 160.5,175.5 Z"/></g>
<g><path style="opacity:1" fill="#b4bac0" d="M 175.5,175.5 C 180.5,175.5 185.5,175.5 190.5,175.5C 190.5,180.5 190.5,185.5 190.5,190.5C 185.5,190.5 180.5,190.5 175.5,190.5C 175.5,185.5 175.5,180.5 175.5,175.5 Z"/></g>
<g><path style="opacity:1" fill="#5e6164" d="M 263.5,175.5 C 268.5,175.5 273.5,175.5 278.5,175.5C 278.5,185.167 278.5,194.833 278.5,204.5C 273.5,204.5 268.5,204.5 263.5,204.5C 263.5,194.833 263.5,185.167 263.5,175.5 Z"/></g>
<g><path style="opacity:1" fill="#514b34" d="M 278.5,175.5 C 283.167,175.5 287.833,175.5 292.5,175.5C 292.5,185.167 292.5,194.833 292.5,204.5C 287.833,204.5 283.167,204.5 278.5,204.5C 278.5,194.833 278.5,185.167 278.5,175.5 Z"/></g>
<g><path style="opacity:1" fill="#e3d194" d="M 292.5,175.5 C 297.5,175.5 302.5,175.5 307.5,175.5C 307.5,185.167 307.5,194.833 307.5,204.5C 302.5,204.5 297.5,204.5 292.5,204.5C 292.5,194.833 292.5,185.167 292.5,175.5 Z"/></g>
<g><path style="opacity:1" fill="#4a1c13" d="M 410.5,175.5 C 415.5,175.5 420.5,175.5 425.5,175.5C 425.5,180.5 425.5,185.5 425.5,190.5C 420.5,190.5 415.5,190.5 410.5,190.5C 410.5,185.5 410.5,180.5 410.5,175.5 Z"/></g>
<g><path style="opacity:1" fill="#9c3b29" d="M 425.5,175.5 C 430.167,175.5 434.833,175.5 439.5,175.5C 439.5,180.5 439.5,185.5 439.5,190.5C 434.833,190.5 430.167,190.5 425.5,190.5C 425.5,185.5 425.5,180.5 425.5,175.5 Z"/></g>
<g><path style="opacity:1" fill="#b7bcc3" d="M 58.5,190.5 C 58.5,195.167 58.5,199.833 58.5,204.5C 53.5,204.5 48.5,204.5 43.5,204.5C 43.5,199.833 43.5,195.167 43.5,190.5C 48.5,190.5 53.5,190.5 58.5,190.5 Z"/></g>
<g><path style="opacity:1" fill="#4a1c13" d="M 425.5,190.5 C 430.167,190.5 434.833,190.5 439.5,190.5C 439.5,195.167 439.5,199.833 439.5,204.5C 434.833,204.5 430.167,204.5 425.5,204.5C 425.5,199.833 425.5,195.167 425.5,190.5 Z"/></g>
<g><path style="opacity:1" fill="#160c09" d="M 439.5,190.5 C 444.5,190.5 449.5,190.5 454.5,190.5C 454.5,195.167 454.5,199.833 454.5,204.5C 449.5,204.5 444.5,204.5 439.5,204.5C 439.5,199.833 439.5,195.167 439.5,190.5 Z"/></g>
<g><path style="opacity:0.829" fill="#010000" d="M -0.5,204.5 C 9.16667,204.5 18.8333,204.5 28.5,204.5C 28.5,229.167 28.5,253.833 28.5,278.5C 28.5,283.167 28.5,287.833 28.5,292.5C 28.5,297.5 28.5,302.5 28.5,307.5C 28.5,312.5 28.5,317.5 28.5,322.5C 33.5,322.5 38.5,322.5 43.5,322.5C 43.5,327.5 43.5,332.5 43.5,337.5C 28.8333,337.5 14.1667,337.5 -0.5,337.5C -0.5,332.5 -0.5,327.5 -0.5,322.5C 4.5,322.5 9.5,322.5 14.5,322.5C 14.5,288.167 14.5,253.833 14.5,219.5C 9.5,219.5 4.5,219.5 -0.5,219.5C -0.5,214.5 -0.5,209.5 -0.5,204.5 Z"/></g>
<g><path style="opacity:1" fill="#cbd0d8" d="M 28.5,204.5 C 33.5,204.5 38.5,204.5 43.5,204.5C 48.5,204.5 53.5,204.5 58.5,204.5C 58.5,209.5 58.5,214.5 58.5,219.5C 58.5,239.167 58.5,258.833 58.5,278.5C 48.5,278.5 38.5,278.5 28.5,278.5C 28.5,253.833 28.5,229.167 28.5,204.5 Z"/></g>
<g><path style="opacity:1" fill="#989ca2" d="M 58.5,204.5 C 68.1667,204.5 77.8333,204.5 87.5,204.5C 87.5,209.5 87.5,214.5 87.5,219.5C 82.5,219.5 77.5,219.5 72.5,219.5C 67.8333,219.5 63.1667,219.5 58.5,219.5C 58.5,214.5 58.5,209.5 58.5,204.5 Z"/></g>
<g><path style="opacity:1" fill="#9a9fa4" d="M 204.5,204.5 C 204.5,209.5 204.5,214.5 204.5,219.5C 199.833,219.5 195.167,219.5 190.5,219.5C 190.5,214.5 190.5,209.5 190.5,204.5C 195.167,204.5 199.833,204.5 204.5,204.5 Z"/></g>
<g><path style="opacity:1" fill="#7b7f82" d="M 204.5,204.5 C 224.167,204.5 243.833,204.5 263.5,204.5C 263.5,209.5 263.5,214.5 263.5,219.5C 253.833,219.5 244.167,219.5 234.5,219.5C 229.5,219.5 224.5,219.5 219.5,219.5C 214.5,219.5 209.5,219.5 204.5,219.5C 204.5,214.5 204.5,209.5 204.5,204.5 Z"/></g>
<g><path style="opacity:1" fill="#383b3c" d="M 263.5,204.5 C 268.5,204.5 273.5,204.5 278.5,204.5C 278.5,209.5 278.5,214.5 278.5,219.5C 273.5,219.5 268.5,219.5 263.5,219.5C 263.5,214.5 263.5,209.5 263.5,204.5 Z"/></g>
<g><path style="opacity:1" fill="#302d1f" d="M 278.5,204.5 C 283.167,204.5 287.833,204.5 292.5,204.5C 292.5,209.5 292.5,214.5 292.5,219.5C 287.833,219.5 283.167,219.5 278.5,219.5C 278.5,214.5 278.5,209.5 278.5,204.5 Z"/></g>
<g><path style="opacity:1" fill="#897f59" d="M 292.5,204.5 C 297.5,204.5 302.5,204.5 307.5,204.5C 307.5,209.5 307.5,214.5 307.5,219.5C 302.5,219.5 297.5,219.5 292.5,219.5C 292.5,214.5 292.5,209.5 292.5,204.5 Z"/></g>
<g><path style="opacity:1" fill="#26120e" d="M 410.5,190.5 C 415.5,190.5 420.5,190.5 425.5,190.5C 425.5,195.167 425.5,199.833 425.5,204.5C 425.5,209.5 425.5,214.5 425.5,219.5C 420.5,219.5 415.5,219.5 410.5,219.5C 410.5,209.833 410.5,200.167 410.5,190.5 Z"/></g>
<g><path style="opacity:1" fill="#68352c" d="M 425.5,204.5 C 430.167,204.5 434.833,204.5 439.5,204.5C 439.5,209.5 439.5,214.5 439.5,219.5C 434.833,219.5 430.167,219.5 425.5,219.5C 425.5,214.5 425.5,209.5 425.5,204.5 Z"/></g>
<g><path style="opacity:1" fill="#5e6164" d="M 58.5,219.5 C 63.1667,219.5 67.8333,219.5 72.5,219.5C 72.5,239.167 72.5,258.833 72.5,278.5C 67.8333,278.5 63.1667,278.5 58.5,278.5C 58.5,258.833 58.5,239.167 58.5,219.5 Z"/></g>
<g><path style="opacity:1" fill="#404245" d="M 72.5,219.5 C 77.5,219.5 82.5,219.5 87.5,219.5C 87.5,224.5 87.5,229.5 87.5,234.5C 87.5,253.833 87.5,273.167 87.5,292.5C 87.5,302.5 87.5,312.5 87.5,322.5C 82.5,322.5 77.5,322.5 72.5,322.5C 72.5,317.5 72.5,312.5 72.5,307.5C 72.5,302.5 72.5,297.5 72.5,292.5C 67.8333,292.5 63.1667,292.5 58.5,292.5C 58.5,287.833 58.5,283.167 58.5,278.5C 63.1667,278.5 67.8333,278.5 72.5,278.5C 72.5,258.833 72.5,239.167 72.5,219.5 Z"/></g>
<g><path style="opacity:1" fill="#282a2b" d="M 116.5,219.5 C 116.5,224.5 116.5,229.5 116.5,234.5C 111.833,234.5 107.167,234.5 102.5,234.5C 102.5,229.5 102.5,224.5 102.5,219.5C 107.167,219.5 111.833,219.5 116.5,219.5 Z"/></g>
<g><path style="opacity:1" fill="#000000" d="M 116.5,219.5 C 131.167,219.5 145.833,219.5 160.5,219.5C 160.5,224.5 160.5,229.5 160.5,234.5C 145.833,234.5 131.167,234.5 116.5,234.5C 116.5,229.5 116.5,224.5 116.5,219.5 Z"/></g>
<g><path style="opacity:1" fill="#1b1c1c" d="M 160.5,219.5 C 165.5,219.5 170.5,219.5 175.5,219.5C 175.5,224.5 175.5,229.5 175.5,234.5C 170.5,234.5 165.5,234.5 160.5,234.5C 160.5,229.5 160.5,224.5 160.5,219.5 Z"/></g>
<g><path style="opacity:1" fill="#4f5255" d="M 190.5,219.5 C 195.167,219.5 199.833,219.5 204.5,219.5C 204.5,224.5 204.5,229.5 204.5,234.5C 204.5,263.833 204.5,293.167 204.5,322.5C 199.833,322.5 195.167,322.5 190.5,322.5C 190.5,312.5 190.5,302.5 190.5,292.5C 190.5,273.167 190.5,253.833 190.5,234.5C 190.5,229.5 190.5,224.5 190.5,219.5 Z"/></g>
<g><path style="opacity:1" fill="#110f07" d="M 204.5,219.5 C 209.5,219.5 214.5,219.5 219.5,219.5C 219.5,224.5 219.5,229.5 219.5,234.5C 214.5,234.5 209.5,234.5 204.5,234.5C 204.5,229.5 204.5,224.5 204.5,219.5 Z"/></g>
<g><path style="opacity:1" fill="#2c2713" d="M 219.5,219.5 C 224.5,219.5 229.5,219.5 234.5,219.5C 234.5,224.5 234.5,229.5 234.5,234.5C 229.5,234.5 224.5,234.5 219.5,234.5C 219.5,229.5 219.5,224.5 219.5,219.5 Z"/></g>
<g><path style="opacity:1" fill="#522a23" d="M 410.5,219.5 C 415.5,219.5 420.5,219.5 425.5,219.5C 425.5,224.5 425.5,229.5 425.5,234.5C 420.5,234.5 415.5,234.5 410.5,234.5C 410.5,229.5 410.5,224.5 410.5,219.5 Z"/></g>
<g><path style="opacity:1" fill="#d06b59" d="M 425.5,219.5 C 430.167,219.5 434.833,219.5 439.5,219.5C 459.167,219.5 478.833,219.5 498.5,219.5C 498.5,224.5 498.5,229.5 498.5,234.5C 474.167,234.5 449.833,234.5 425.5,234.5C 425.5,229.5 425.5,224.5 425.5,219.5 Z"/></g>
<g><path style="opacity:1" fill="#b6bbc2" d="M 87.5,234.5 C 92.5,234.5 97.5,234.5 102.5,234.5C 102.5,253.833 102.5,273.167 102.5,292.5C 97.5,292.5 92.5,292.5 87.5,292.5C 87.5,273.167 87.5,253.833 87.5,234.5 Z"/></g>
<g><path style="opacity:1" fill="#000000" d="M 102.5,234.5 C 107.167,234.5 111.833,234.5 116.5,234.5C 116.5,249.167 116.5,263.833 116.5,278.5C 116.5,283.167 116.5,287.833 116.5,292.5C 111.833,292.5 107.167,292.5 102.5,292.5C 102.5,273.167 102.5,253.833 102.5,234.5 Z"/></g>
<g><path style="opacity:1" fill="#000000" d="M 160.5,234.5 C 165.5,234.5 170.5,234.5 175.5,234.5C 175.5,253.833 175.5,273.167 175.5,292.5C 170.5,292.5 165.5,292.5 160.5,292.5C 160.5,287.833 160.5,283.167 160.5,278.5C 160.5,263.833 160.5,249.167 160.5,234.5 Z"/></g>
<g><path style="opacity:1" fill="#a7abb2" d="M 175.5,234.5 C 180.5,234.5 185.5,234.5 190.5,234.5C 190.5,253.833 190.5,273.167 190.5,292.5C 185.5,292.5 180.5,292.5 175.5,292.5C 175.5,273.167 175.5,253.833 175.5,234.5 Z"/></g>
<g><path style="opacity:1" fill="#62552b" d="M 204.5,234.5 C 209.5,234.5 214.5,234.5 219.5,234.5C 219.5,263.833 219.5,293.167 219.5,322.5C 219.5,327.5 219.5,332.5 219.5,337.5C 214.5,337.5 209.5,337.5 204.5,337.5C 204.5,332.5 204.5,327.5 204.5,322.5C 204.5,293.167 204.5,263.833 204.5,234.5 Z"/></g>
<g><path style="opacity:1" fill="#fbd76f" d="M 219.5,234.5 C 224.5,234.5 229.5,234.5 234.5,234.5C 234.5,263.833 234.5,293.167 234.5,322.5C 229.5,322.5 224.5,322.5 219.5,322.5C 219.5,293.167 219.5,263.833 219.5,234.5 Z"/></g>
<g><path style="opacity:1" fill="#080703" d="M 234.5,234.5 C 239.167,234.5 243.833,234.5 248.5,234.5C 248.5,268.833 248.5,303.167 248.5,337.5C 243.833,337.5 239.167,337.5 234.5,337.5C 234.5,332.5 234.5,327.5 234.5,322.5C 234.5,293.167 234.5,263.833 234.5,234.5 Z"/></g>
<g><path style="opacity:1" fill="#67d3f1" d="M 116.5,234.5 C 131.167,234.5 145.833,234.5 160.5,234.5C 160.5,249.167 160.5,263.833 160.5,278.5C 155.833,278.5 151.167,278.5 146.5,278.5C 146.5,273.5 146.5,268.5 146.5,263.5C 146.5,258.5 146.5,253.5 146.5,248.5C 141.5,248.5 136.5,248.5 131.5,248.5C 131.5,253.5 131.5,258.5 131.5,263.5C 131.5,268.5 131.5,273.5 131.5,278.5C 126.5,278.5 121.5,278.5 116.5,278.5C 116.5,263.833 116.5,249.167 116.5,234.5 Z"/></g>
<g><path style="opacity:1" fill="#1a353c" d="M 146.5,263.5 C 141.5,263.5 136.5,263.5 131.5,263.5C 131.5,258.5 131.5,253.5 131.5,248.5C 136.5,248.5 141.5,248.5 146.5,248.5C 146.5,253.5 146.5,258.5 146.5,263.5 Z"/></g>
<g><path style="opacity:1" fill="#387382" d="M 131.5,263.5 C 136.5,263.5 141.5,263.5 146.5,263.5C 146.5,268.5 146.5,273.5 146.5,278.5C 141.5,278.5 136.5,278.5 131.5,278.5C 131.5,273.5 131.5,268.5 131.5,263.5 Z"/></g>
<g><path style="opacity:1" fill="#8a8e92" d="M 28.5,278.5 C 38.5,278.5 48.5,278.5 58.5,278.5C 58.5,283.167 58.5,287.833 58.5,292.5C 48.5,292.5 38.5,292.5 28.5,292.5C 28.5,287.833 28.5,283.167 28.5,278.5 Z"/></g>
<g><path style="opacity:1" fill="#4791a5" d="M 116.5,278.5 C 121.5,278.5 126.5,278.5 131.5,278.5C 136.5,278.5 141.5,278.5 146.5,278.5C 151.167,278.5 155.833,278.5 160.5,278.5C 160.5,283.167 160.5,287.833 160.5,292.5C 145.833,292.5 131.167,292.5 116.5,292.5C 116.5,287.833 116.5,283.167 116.5,278.5 Z"/></g>
<g><path style="opacity:1" fill="#1a1911" d="M 28.5,292.5 C 38.5,292.5 48.5,292.5 58.5,292.5C 58.5,297.5 58.5,302.5 58.5,307.5C 48.5,307.5 38.5,307.5 28.5,307.5C 28.5,302.5 28.5,297.5 28.5,292.5 Z"/></g>
<g><path style="opacity:1" fill="#0c0b07" d="M 58.5,292.5 C 63.1667,292.5 67.8333,292.5 72.5,292.5C 72.5,297.5 72.5,302.5 72.5,307.5C 67.8333,307.5 63.1667,307.5 58.5,307.5C 58.5,302.5 58.5,297.5 58.5,292.5 Z"/></g>
<g><path style="opacity:1" fill="#cbd1d8" d="M 87.5,292.5 C 92.5,292.5 97.5,292.5 102.5,292.5C 102.5,297.5 102.5,302.5 102.5,307.5C 107.167,307.5 111.833,307.5 116.5,307.5C 131.167,307.5 145.833,307.5 160.5,307.5C 165.5,307.5 170.5,307.5 175.5,307.5C 175.5,302.5 175.5,297.5 175.5,292.5C 180.5,292.5 185.5,292.5 190.5,292.5C 190.5,302.5 190.5,312.5 190.5,322.5C 156.167,322.5 121.833,322.5 87.5,322.5C 87.5,312.5 87.5,302.5 87.5,292.5 Z"/></g>
<g><path style="opacity:1" fill="#414346" d="M 102.5,292.5 C 107.167,292.5 111.833,292.5 116.5,292.5C 116.5,297.5 116.5,302.5 116.5,307.5C 111.833,307.5 107.167,307.5 102.5,307.5C 102.5,302.5 102.5,297.5 102.5,292.5 Z"/></g>
<g><path style="opacity:1" fill="#151616" d="M 116.5,292.5 C 131.167,292.5 145.833,292.5 160.5,292.5C 160.5,297.5 160.5,302.5 160.5,307.5C 145.833,307.5 131.167,307.5 116.5,307.5C 116.5,302.5 116.5,297.5 116.5,292.5 Z"/></g>
<g><path style="opacity:1" fill="#353737" d="M 160.5,292.5 C 165.5,292.5 170.5,292.5 175.5,292.5C 175.5,297.5 175.5,302.5 175.5,307.5C 170.5,307.5 165.5,307.5 160.5,307.5C 160.5,302.5 160.5,297.5 160.5,292.5 Z"/></g>
<g><path style="opacity:1" fill="#feeaa6" d="M 28.5,307.5 C 38.5,307.5 48.5,307.5 58.5,307.5C 58.5,317.5 58.5,327.5 58.5,337.5C 53.5,337.5 48.5,337.5 43.5,337.5C 43.5,332.5 43.5,327.5 43.5,322.5C 38.5,322.5 33.5,322.5 28.5,322.5C 28.5,317.5 28.5,312.5 28.5,307.5 Z"/></g>
<g><path style="opacity:1" fill="#766d4d" d="M 58.5,307.5 C 63.1667,307.5 67.8333,307.5 72.5,307.5C 72.5,312.5 72.5,317.5 72.5,322.5C 72.5,327.5 72.5,332.5 72.5,337.5C 67.8333,337.5 63.1667,337.5 58.5,337.5C 58.5,327.5 58.5,317.5 58.5,307.5 Z"/></g>
<g><path style="opacity:0.987" fill="#000000" d="M 72.5,322.5 C 77.5,322.5 82.5,322.5 87.5,322.5C 121.833,322.5 156.167,322.5 190.5,322.5C 195.167,322.5 199.833,322.5 204.5,322.5C 204.5,327.5 204.5,332.5 204.5,337.5C 199.833,337.5 195.167,337.5 190.5,337.5C 175.833,337.5 161.167,337.5 146.5,337.5C 146.5,352.167 146.5,366.833 146.5,381.5C 151.167,381.5 155.833,381.5 160.5,381.5C 160.5,386.167 160.5,390.833 160.5,395.5C 155.833,395.5 151.167,395.5 146.5,395.5C 146.5,400.5 146.5,405.5 146.5,410.5C 151.167,410.5 155.833,410.5 160.5,410.5C 160.5,415.5 160.5,420.5 160.5,425.5C 155.833,425.5 151.167,425.5 146.5,425.5C 146.5,435.167 146.5,444.833 146.5,454.5C 146.5,459.5 146.5,464.5 146.5,469.5C 146.5,474.167 146.5,478.833 146.5,483.5C 146.5,488.5 146.5,493.5 146.5,498.5C 165.833,498.5 185.167,498.5 204.5,498.5C 209.5,498.5 214.5,498.5 219.5,498.5C 224.5,498.5 229.5,498.5 234.5,498.5C 239.167,498.5 243.833,498.5 248.5,498.5C 253.5,498.5 258.5,498.5 263.5,498.5C 283.167,498.5 302.833,498.5 322.5,498.5C 327.5,498.5 332.5,498.5 337.5,498.5C 342.167,498.5 346.833,498.5 351.5,498.5C 395.5,498.5 439.5,498.5 483.5,498.5C 483.5,493.5 483.5,488.5 483.5,483.5C 492.833,483.5 502.167,483.5 511.5,483.5C 511.5,492.833 511.5,502.167 511.5,511.5C 355.5,511.5 199.5,511.5 43.5,511.5C 43.5,502.167 43.5,492.833 43.5,483.5C 48.5,483.5 53.5,483.5 58.5,483.5C 58.5,488.5 58.5,493.5 58.5,498.5C 63.1667,498.5 67.8333,498.5 72.5,498.5C 92.1667,498.5 111.833,498.5 131.5,498.5C 131.5,493.5 131.5,488.5 131.5,483.5C 131.5,478.833 131.5,474.167 131.5,469.5C 131.5,464.5 131.5,459.5 131.5,454.5C 131.5,444.833 131.5,435.167 131.5,425.5C 126.5,425.5 121.5,425.5 116.5,425.5C 116.5,420.5 116.5,415.5 116.5,410.5C 121.5,410.5 126.5,410.5 131.5,410.5C 131.5,405.5 131.5,400.5 131.5,395.5C 126.5,395.5 121.5,395.5 116.5,395.5C 116.5,390.833 116.5,386.167 116.5,381.5C 121.5,381.5 126.5,381.5 131.5,381.5C 131.5,366.833 131.5,352.167 131.5,337.5C 116.833,337.5 102.167,337.5 87.5,337.5C 82.5,337.5 77.5,337.5 72.5,337.5C 72.5,332.5 72.5,327.5 72.5,322.5 Z"/></g>
<g><path style="opacity:1" fill="#debe62" d="M 219.5,322.5 C 224.5,322.5 229.5,322.5 234.5,322.5C 234.5,327.5 234.5,332.5 234.5,337.5C 229.5,337.5 224.5,337.5 219.5,337.5C 219.5,332.5 219.5,327.5 219.5,322.5 Z"/></g>
<g><path style="opacity:1" fill="#010100" d="M 43.5,337.5 C 48.5,337.5 53.5,337.5 58.5,337.5C 63.1667,337.5 67.8333,337.5 72.5,337.5C 72.5,342.167 72.5,346.833 72.5,351.5C 62.8333,351.5 53.1667,351.5 43.5,351.5C 43.5,346.833 43.5,342.167 43.5,337.5 Z"/></g>
<g><path style="opacity:1" fill="#404345" d="M 72.5,337.5 C 77.5,337.5 82.5,337.5 87.5,337.5C 87.5,342.167 87.5,346.833 87.5,351.5C 82.5,351.5 77.5,351.5 72.5,351.5C 72.5,346.833 72.5,342.167 72.5,337.5 Z"/></g>
<g><path style="opacity:1" fill="#cacfd7" d="M 87.5,337.5 C 102.167,337.5 116.833,337.5 131.5,337.5C 131.5,352.167 131.5,366.833 131.5,381.5C 126.5,381.5 121.5,381.5 116.5,381.5C 116.5,376.5 116.5,371.5 116.5,366.5C 111.833,366.5 107.167,366.5 102.5,366.5C 102.5,361.5 102.5,356.5 102.5,351.5C 97.5,351.5 92.5,351.5 87.5,351.5C 87.5,346.833 87.5,342.167 87.5,337.5 Z"/></g>
<g><path style="opacity:1" fill="#cacfd7" d="M 190.5,337.5 C 190.5,342.167 190.5,346.833 190.5,351.5C 185.5,351.5 180.5,351.5 175.5,351.5C 175.5,356.5 175.5,361.5 175.5,366.5C 170.5,366.5 165.5,366.5 160.5,366.5C 160.5,371.5 160.5,376.5 160.5,381.5C 155.833,381.5 151.167,381.5 146.5,381.5C 146.5,366.833 146.5,352.167 146.5,337.5C 161.167,337.5 175.833,337.5 190.5,337.5 Z"/></g>
<g><path style="opacity:1" fill="#4f5255" d="M 190.5,337.5 C 195.167,337.5 199.833,337.5 204.5,337.5C 204.5,342.167 204.5,346.833 204.5,351.5C 199.833,351.5 195.167,351.5 190.5,351.5C 190.5,346.833 190.5,342.167 190.5,337.5 Z"/></g>
<g><path style="opacity:1" fill="#000000" d="M 204.5,337.5 C 209.5,337.5 214.5,337.5 219.5,337.5C 224.5,337.5 229.5,337.5 234.5,337.5C 234.5,342.167 234.5,346.833 234.5,351.5C 224.5,351.5 214.5,351.5 204.5,351.5C 204.5,346.833 204.5,342.167 204.5,337.5 Z"/></g>
<g><path style="opacity:1" fill="#2e3030" d="M 72.5,351.5 C 77.5,351.5 82.5,351.5 87.5,351.5C 87.5,356.5 87.5,361.5 87.5,366.5C 82.5,366.5 77.5,366.5 72.5,366.5C 72.5,361.5 72.5,356.5 72.5,351.5 Z"/></g>
<g><path style="opacity:1" fill="#9da2a7" d="M 87.5,351.5 C 92.5,351.5 97.5,351.5 102.5,351.5C 102.5,356.5 102.5,361.5 102.5,366.5C 97.5,366.5 92.5,366.5 87.5,366.5C 87.5,361.5 87.5,356.5 87.5,351.5 Z"/></g>
<g><path style="opacity:1" fill="#a1a6ab" d="M 190.5,351.5 C 190.5,356.5 190.5,361.5 190.5,366.5C 185.5,366.5 180.5,366.5 175.5,366.5C 175.5,361.5 175.5,356.5 175.5,351.5C 180.5,351.5 185.5,351.5 190.5,351.5 Z"/></g>
<g><path style="opacity:1" fill="#393b3d" d="M 190.5,351.5 C 195.167,351.5 199.833,351.5 204.5,351.5C 204.5,356.5 204.5,361.5 204.5,366.5C 199.833,366.5 195.167,366.5 190.5,366.5C 190.5,361.5 190.5,356.5 190.5,351.5 Z"/></g>
<g><path style="opacity:1" fill="#040201" d="M 72.5,366.5 C 77.5,366.5 82.5,366.5 87.5,366.5C 92.5,366.5 97.5,366.5 102.5,366.5C 107.167,366.5 111.833,366.5 116.5,366.5C 116.5,371.5 116.5,376.5 116.5,381.5C 111.833,381.5 107.167,381.5 102.5,381.5C 97.5,381.5 92.5,381.5 87.5,381.5C 82.5,381.5 77.5,381.5 72.5,381.5C 72.5,376.5 72.5,371.5 72.5,366.5 Z"/></g>
<g><path style="opacity:1" fill="#040201" d="M 175.5,366.5 C 180.5,366.5 185.5,366.5 190.5,366.5C 195.167,366.5 199.833,366.5 204.5,366.5C 204.5,371.5 204.5,376.5 204.5,381.5C 199.833,381.5 195.167,381.5 190.5,381.5C 185.5,381.5 180.5,381.5 175.5,381.5C 170.5,381.5 165.5,381.5 160.5,381.5C 160.5,376.5 160.5,371.5 160.5,366.5C 165.5,366.5 170.5,366.5 175.5,366.5 Z"/></g>
<g><path style="opacity:0.008" fill="#000000" d="M 278.5,381.5 C 273.5,381.5 268.5,381.5 263.5,381.5C 263.5,376.5 263.5,371.5 263.5,366.5C 268.5,366.5 273.5,366.5 278.5,366.5C 278.5,371.5 278.5,376.5 278.5,381.5 Z"/></g>
<g><path style="opacity:1" fill="#4e2821" d="M 72.5,381.5 C 77.5,381.5 82.5,381.5 87.5,381.5C 87.5,386.167 87.5,390.833 87.5,395.5C 82.5,395.5 77.5,395.5 72.5,395.5C 72.5,390.833 72.5,386.167 72.5,381.5 Z"/></g>
<g><path style="opacity:1" fill="#f77f6a" d="M 87.5,381.5 C 92.5,381.5 97.5,381.5 102.5,381.5C 102.5,386.167 102.5,390.833 102.5,395.5C 97.5,395.5 92.5,395.5 87.5,395.5C 87.5,390.833 87.5,386.167 87.5,381.5 Z"/></g>
<g><path style="opacity:1" fill="#c76656" d="M 102.5,381.5 C 107.167,381.5 111.833,381.5 116.5,381.5C 116.5,386.167 116.5,390.833 116.5,395.5C 111.833,395.5 107.167,395.5 102.5,395.5C 102.5,390.833 102.5,386.167 102.5,381.5 Z"/></g>
<g><path style="opacity:1" fill="#c76655" d="M 160.5,381.5 C 165.5,381.5 170.5,381.5 175.5,381.5C 175.5,386.167 175.5,390.833 175.5,395.5C 170.5,395.5 165.5,395.5 160.5,395.5C 160.5,390.833 160.5,386.167 160.5,381.5 Z"/></g>
<g><path style="opacity:1" fill="#f47d69" d="M 175.5,381.5 C 180.5,381.5 185.5,381.5 190.5,381.5C 190.5,386.167 190.5,390.833 190.5,395.5C 185.5,395.5 180.5,395.5 175.5,395.5C 175.5,390.833 175.5,386.167 175.5,381.5 Z"/></g>
<g><path style="opacity:1" fill="#603129" d="M 190.5,381.5 C 195.167,381.5 199.833,381.5 204.5,381.5C 204.5,386.167 204.5,390.833 204.5,395.5C 199.833,395.5 195.167,395.5 190.5,395.5C 190.5,390.833 190.5,386.167 190.5,381.5 Z"/></g>
<g><path style="opacity:1" fill="#0d0b07" d="M 278.5,381.5 C 283.167,381.5 287.833,381.5 292.5,381.5C 292.5,386.167 292.5,390.833 292.5,395.5C 287.833,395.5 283.167,395.5 278.5,395.5C 278.5,390.833 278.5,386.167 278.5,381.5 Z"/></g>
<g><path style="opacity:1" fill="#a98260" d="M 292.5,381.5 C 302.5,381.5 312.5,381.5 322.5,381.5C 322.5,386.167 322.5,390.833 322.5,395.5C 317.5,395.5 312.5,395.5 307.5,395.5C 302.5,395.5 297.5,395.5 292.5,395.5C 292.5,390.833 292.5,386.167 292.5,381.5 Z"/></g>
<g><path style="opacity:1" fill="#463627" d="M 322.5,381.5 C 327.5,381.5 332.5,381.5 337.5,381.5C 337.5,386.167 337.5,390.833 337.5,395.5C 332.5,395.5 327.5,395.5 322.5,395.5C 322.5,390.833 322.5,386.167 322.5,381.5 Z"/></g>
<g><path style="opacity:1" fill="#060302" d="M 72.5,395.5 C 77.5,395.5 82.5,395.5 87.5,395.5C 92.5,395.5 97.5,395.5 102.5,395.5C 102.5,400.5 102.5,405.5 102.5,410.5C 97.5,410.5 92.5,410.5 87.5,410.5C 82.5,410.5 77.5,410.5 72.5,410.5C 72.5,405.5 72.5,400.5 72.5,395.5 Z"/></g>
<g><path style="opacity:1" fill="#63332a" d="M 102.5,395.5 C 107.167,395.5 111.833,395.5 116.5,395.5C 116.5,400.5 116.5,405.5 116.5,410.5C 111.833,410.5 107.167,410.5 102.5,410.5C 102.5,405.5 102.5,400.5 102.5,395.5 Z"/></g>
<g><path style="opacity:1" fill="#f87f6b" d="M 116.5,395.5 C 121.5,395.5 126.5,395.5 131.5,395.5C 131.5,400.5 131.5,405.5 131.5,410.5C 126.5,410.5 121.5,410.5 116.5,410.5C 116.5,405.5 116.5,400.5 116.5,395.5 Z"/></g>
<g><path style="opacity:1" fill="#f97f6b" d="M 160.5,395.5 C 160.5,400.5 160.5,405.5 160.5,410.5C 155.833,410.5 151.167,410.5 146.5,410.5C 146.5,405.5 146.5,400.5 146.5,395.5C 151.167,395.5 155.833,395.5 160.5,395.5 Z"/></g>
<g><path style="opacity:1" fill="#63332a" d="M 160.5,395.5 C 165.5,395.5 170.5,395.5 175.5,395.5C 175.5,400.5 175.5,405.5 175.5,410.5C 170.5,410.5 165.5,410.5 160.5,410.5C 160.5,405.5 160.5,400.5 160.5,395.5 Z"/></g>
<g><path style="opacity:1" fill="#060302" d="M 175.5,395.5 C 180.5,395.5 185.5,395.5 190.5,395.5C 195.167,395.5 199.833,395.5 204.5,395.5C 204.5,400.5 204.5,405.5 204.5,410.5C 199.833,410.5 195.167,410.5 190.5,410.5C 185.5,410.5 180.5,410.5 175.5,410.5C 175.5,405.5 175.5,400.5 175.5,395.5 Z"/></g>
<g><path style="opacity:1" fill="#0c0a07" d="M 278.5,395.5 C 278.5,400.5 278.5,405.5 278.5,410.5C 273.5,410.5 268.5,410.5 263.5,410.5C 263.5,405.5 263.5,400.5 263.5,395.5C 268.5,395.5 273.5,395.5 278.5,395.5 Z"/></g>
<g><path style="opacity:1" fill="#cd9c75" d="M 278.5,395.5 C 283.167,395.5 287.833,395.5 292.5,395.5C 292.5,405.5 292.5,415.5 292.5,425.5C 297.5,425.5 302.5,425.5 307.5,425.5C 307.5,415.5 307.5,405.5 307.5,395.5C 312.5,395.5 317.5,395.5 322.5,395.5C 327.5,395.5 332.5,395.5 337.5,395.5C 337.5,400.5 337.5,405.5 337.5,410.5C 342.167,410.5 346.833,410.5 351.5,410.5C 351.5,415.5 351.5,420.5 351.5,425.5C 351.5,430.167 351.5,434.833 351.5,439.5C 356.5,439.5 361.5,439.5 366.5,439.5C 390.833,439.5 415.167,439.5 439.5,439.5C 439.5,444.5 439.5,449.5 439.5,454.5C 444.5,454.5 449.5,454.5 454.5,454.5C 459.5,454.5 464.5,454.5 469.5,454.5C 469.5,459.5 469.5,464.5 469.5,469.5C 469.5,474.167 469.5,478.833 469.5,483.5C 474.167,483.5 478.833,483.5 483.5,483.5C 483.5,488.5 483.5,493.5 483.5,498.5C 439.5,498.5 395.5,498.5 351.5,498.5C 351.5,488.833 351.5,479.167 351.5,469.5C 341.833,469.5 332.167,469.5 322.5,469.5C 322.5,474.167 322.5,478.833 322.5,483.5C 322.5,488.5 322.5,493.5 322.5,498.5C 302.833,498.5 283.167,498.5 263.5,498.5C 263.5,493.5 263.5,488.5 263.5,483.5C 263.5,478.833 263.5,474.167 263.5,469.5C 258.5,469.5 253.5,469.5 248.5,469.5C 248.5,474.167 248.5,478.833 248.5,483.5C 248.5,488.5 248.5,493.5 248.5,498.5C 243.833,498.5 239.167,498.5 234.5,498.5C 234.5,493.5 234.5,488.5 234.5,483.5C 234.5,478.833 234.5,474.167 234.5,469.5C 229.5,469.5 224.5,469.5 219.5,469.5C 219.5,459.5 219.5,449.5 219.5,439.5C 229.167,439.5 238.833,439.5 248.5,439.5C 253.5,439.5 258.5,439.5 263.5,439.5C 263.5,434.833 263.5,430.167 263.5,425.5C 268.5,425.5 273.5,425.5 278.5,425.5C 278.5,420.5 278.5,415.5 278.5,410.5C 278.5,405.5 278.5,400.5 278.5,395.5 Z"/></g>
<g><path style="opacity:1" fill="#513e2e" d="M 292.5,395.5 C 297.5,395.5 302.5,395.5 307.5,395.5C 307.5,405.5 307.5,415.5 307.5,425.5C 302.5,425.5 297.5,425.5 292.5,425.5C 292.5,415.5 292.5,405.5 292.5,395.5 Z"/></g>
<g><path style="opacity:1" fill="#765b43" d="M 337.5,395.5 C 342.167,395.5 346.833,395.5 351.5,395.5C 351.5,400.5 351.5,405.5 351.5,410.5C 346.833,410.5 342.167,410.5 337.5,410.5C 337.5,405.5 337.5,400.5 337.5,395.5 Z"/></g>
<g><path style="opacity:1" fill="#404345" d="M 72.5,410.5 C 77.5,410.5 82.5,410.5 87.5,410.5C 87.5,415.5 87.5,420.5 87.5,425.5C 87.5,435.167 87.5,444.833 87.5,454.5C 82.5,454.5 77.5,454.5 72.5,454.5C 72.5,439.833 72.5,425.167 72.5,410.5 Z"/></g>
<g><path style="opacity:1" fill="#b9bec4" d="M 87.5,410.5 C 92.5,410.5 97.5,410.5 102.5,410.5C 102.5,415.5 102.5,420.5 102.5,425.5C 97.5,425.5 92.5,425.5 87.5,425.5C 87.5,420.5 87.5,415.5 87.5,410.5 Z"/></g>
<g><path style="opacity:1" fill="#4c4f51" d="M 102.5,410.5 C 107.167,410.5 111.833,410.5 116.5,410.5C 116.5,415.5 116.5,420.5 116.5,425.5C 111.833,425.5 107.167,425.5 102.5,425.5C 102.5,420.5 102.5,415.5 102.5,410.5 Z"/></g>
<g><path style="opacity:1" fill="#4c4f50" d="M 160.5,410.5 C 165.5,410.5 170.5,410.5 175.5,410.5C 175.5,415.5 175.5,420.5 175.5,425.5C 170.5,425.5 165.5,425.5 160.5,425.5C 160.5,420.5 160.5,415.5 160.5,410.5 Z"/></g>
<g><path style="opacity:1" fill="#b0b5bb" d="M 175.5,410.5 C 180.5,410.5 185.5,410.5 190.5,410.5C 190.5,415.5 190.5,420.5 190.5,425.5C 185.5,425.5 180.5,425.5 175.5,425.5C 175.5,420.5 175.5,415.5 175.5,410.5 Z"/></g>
<g><path style="opacity:1" fill="#4f5255" d="M 190.5,410.5 C 195.167,410.5 199.833,410.5 204.5,410.5C 204.5,415.5 204.5,420.5 204.5,425.5C 204.5,430.167 204.5,434.833 204.5,439.5C 204.5,444.5 204.5,449.5 204.5,454.5C 199.833,454.5 195.167,454.5 190.5,454.5C 190.5,444.833 190.5,435.167 190.5,425.5C 190.5,420.5 190.5,415.5 190.5,410.5 Z"/></g>
<g><path style="opacity:1" fill="#010100" d="M 263.5,410.5 C 263.5,415.5 263.5,420.5 263.5,425.5C 258.5,425.5 253.5,425.5 248.5,425.5C 248.5,420.5 248.5,415.5 248.5,410.5C 253.5,410.5 258.5,410.5 263.5,410.5 Z"/></g>
<g><path style="opacity:1" fill="#6e553e" d="M 263.5,410.5 C 268.5,410.5 273.5,410.5 278.5,410.5C 278.5,415.5 278.5,420.5 278.5,425.5C 273.5,425.5 268.5,425.5 263.5,425.5C 263.5,420.5 263.5,415.5 263.5,410.5 Z"/></g>
<g><path style="opacity:1" fill="#cbd0d8" d="M 87.5,425.5 C 92.5,425.5 97.5,425.5 102.5,425.5C 107.167,425.5 111.833,425.5 116.5,425.5C 121.5,425.5 126.5,425.5 131.5,425.5C 131.5,435.167 131.5,444.833 131.5,454.5C 126.5,454.5 121.5,454.5 116.5,454.5C 106.833,454.5 97.1667,454.5 87.5,454.5C 87.5,444.833 87.5,435.167 87.5,425.5 Z"/></g>
<g><path style="opacity:1" fill="#cbd0d8" d="M 160.5,425.5 C 165.5,425.5 170.5,425.5 175.5,425.5C 180.5,425.5 185.5,425.5 190.5,425.5C 190.5,435.167 190.5,444.833 190.5,454.5C 180.5,454.5 170.5,454.5 160.5,454.5C 155.833,454.5 151.167,454.5 146.5,454.5C 146.5,444.833 146.5,435.167 146.5,425.5C 151.167,425.5 155.833,425.5 160.5,425.5 Z"/></g>
<g><path style="opacity:1" fill="#000000" d="M 204.5,425.5 C 219.167,425.5 233.833,425.5 248.5,425.5C 248.5,430.167 248.5,434.833 248.5,439.5C 238.833,439.5 229.167,439.5 219.5,439.5C 214.5,439.5 209.5,439.5 204.5,439.5C 204.5,434.833 204.5,430.167 204.5,425.5 Z"/></g>
<g><path style="opacity:1" fill="#19140e" d="M 248.5,425.5 C 253.5,425.5 258.5,425.5 263.5,425.5C 263.5,430.167 263.5,434.833 263.5,439.5C 258.5,439.5 253.5,439.5 248.5,439.5C 248.5,434.833 248.5,430.167 248.5,425.5 Z"/></g>
<g><path style="opacity:1" fill="#000000" d="M 322.5,425.5 C 327.5,425.5 332.5,425.5 337.5,425.5C 337.5,430.167 337.5,434.833 337.5,439.5C 332.5,439.5 327.5,439.5 322.5,439.5C 322.5,434.833 322.5,430.167 322.5,425.5 Z"/></g>
<g><path style="opacity:1" fill="#a37d5d" d="M 351.5,425.5 C 356.5,425.5 361.5,425.5 366.5,425.5C 366.5,430.167 366.5,434.833 366.5,439.5C 361.5,439.5 356.5,439.5 351.5,439.5C 351.5,434.833 351.5,430.167 351.5,425.5 Z"/></g>
<g><path style="opacity:1" fill="#000000" d="M 72.5,454.5 C 77.5,454.5 82.5,454.5 87.5,454.5C 97.1667,454.5 106.833,454.5 116.5,454.5C 116.5,459.5 116.5,464.5 116.5,469.5C 106.833,469.5 97.1667,469.5 87.5,469.5C 82.5,469.5 77.5,469.5 72.5,469.5C 72.5,464.5 72.5,459.5 72.5,454.5 Z"/></g>
<g><path style="opacity:1" fill="#2e3030" d="M 116.5,454.5 C 121.5,454.5 126.5,454.5 131.5,454.5C 131.5,459.5 131.5,464.5 131.5,469.5C 126.5,469.5 121.5,469.5 116.5,469.5C 116.5,464.5 116.5,459.5 116.5,454.5 Z"/></g>
<g><path style="opacity:1" fill="#2e3131" d="M 146.5,454.5 C 151.167,454.5 155.833,454.5 160.5,454.5C 160.5,459.5 160.5,464.5 160.5,469.5C 155.833,469.5 151.167,469.5 146.5,469.5C 146.5,464.5 146.5,459.5 146.5,454.5 Z"/></g>
<g><path style="opacity:1" fill="#000000" d="M 160.5,454.5 C 170.5,454.5 180.5,454.5 190.5,454.5C 195.167,454.5 199.833,454.5 204.5,454.5C 204.5,459.5 204.5,464.5 204.5,469.5C 199.833,469.5 195.167,469.5 190.5,469.5C 180.5,469.5 170.5,469.5 160.5,469.5C 160.5,464.5 160.5,459.5 160.5,454.5 Z"/></g>
<g><path style="opacity:1" fill="#503d2e" d="M 204.5,439.5 C 209.5,439.5 214.5,439.5 219.5,439.5C 219.5,449.5 219.5,459.5 219.5,469.5C 214.5,469.5 209.5,469.5 204.5,469.5C 204.5,464.5 204.5,459.5 204.5,454.5C 204.5,449.5 204.5,444.5 204.5,439.5 Z"/></g>
<g><path style="opacity:1" fill="#000000" d="M 278.5,454.5 C 283.167,454.5 287.833,454.5 292.5,454.5C 292.5,459.5 292.5,464.5 292.5,469.5C 287.833,469.5 283.167,469.5 278.5,469.5C 278.5,464.5 278.5,459.5 278.5,454.5 Z"/></g>
<g><path style="opacity:1" fill="#000000" d="M 381.5,454.5 C 386.167,454.5 390.833,454.5 395.5,454.5C 395.5,459.5 395.5,464.5 395.5,469.5C 390.833,469.5 386.167,469.5 381.5,469.5C 381.5,464.5 381.5,459.5 381.5,454.5 Z"/></g>
<g><path style="opacity:1" fill="#3b2e21" d="M 454.5,454.5 C 459.5,454.5 464.5,454.5 469.5,454.5C 469.5,459.5 469.5,464.5 469.5,469.5C 464.5,469.5 459.5,469.5 454.5,469.5C 454.5,464.5 454.5,459.5 454.5,454.5 Z"/></g>
<g><path style="opacity:1" fill="#000000" d="M 72.5,469.5 C 72.5,474.167 72.5,478.833 72.5,483.5C 67.8333,483.5 63.1667,483.5 58.5,483.5C 58.5,478.833 58.5,474.167 58.5,469.5C 63.1667,469.5 67.8333,469.5 72.5,469.5 Z"/></g>
<g><path style="opacity:1" fill="#ada071" d="M 72.5,469.5 C 77.5,469.5 82.5,469.5 87.5,469.5C 87.5,474.167 87.5,478.833 87.5,483.5C 82.5,483.5 77.5,483.5 72.5,483.5C 72.5,478.833 72.5,474.167 72.5,469.5 Z"/></g>
<g><path style="opacity:1" fill="#feeaa6" d="M 87.5,469.5 C 97.1667,469.5 106.833,469.5 116.5,469.5C 116.5,474.167 116.5,478.833 116.5,483.5C 121.5,483.5 126.5,483.5 131.5,483.5C 131.5,488.5 131.5,493.5 131.5,498.5C 111.833,498.5 92.1667,498.5 72.5,498.5C 72.5,493.5 72.5,488.5 72.5,483.5C 77.5,483.5 82.5,483.5 87.5,483.5C 87.5,478.833 87.5,474.167 87.5,469.5 Z"/></g>
<g><path style="opacity:1" fill="#2b281c" d="M 116.5,469.5 C 121.5,469.5 126.5,469.5 131.5,469.5C 131.5,474.167 131.5,478.833 131.5,483.5C 126.5,483.5 121.5,483.5 116.5,483.5C 116.5,478.833 116.5,474.167 116.5,469.5 Z"/></g>
<g><path style="opacity:1" fill="#211f15" d="M 146.5,469.5 C 151.167,469.5 155.833,469.5 160.5,469.5C 160.5,474.167 160.5,478.833 160.5,483.5C 155.833,483.5 151.167,483.5 146.5,483.5C 146.5,478.833 146.5,474.167 146.5,469.5 Z"/></g>
<g><path style="opacity:1" fill="#feeaa6" d="M 160.5,469.5 C 170.5,469.5 180.5,469.5 190.5,469.5C 190.5,474.167 190.5,478.833 190.5,483.5C 195.167,483.5 199.833,483.5 204.5,483.5C 204.5,488.5 204.5,493.5 204.5,498.5C 185.167,498.5 165.833,498.5 146.5,498.5C 146.5,493.5 146.5,488.5 146.5,483.5C 151.167,483.5 155.833,483.5 160.5,483.5C 160.5,478.833 160.5,474.167 160.5,469.5 Z"/></g>
<g><path style="opacity:1" fill="#b6a877" d="M 190.5,469.5 C 195.167,469.5 199.833,469.5 204.5,469.5C 204.5,474.167 204.5,478.833 204.5,483.5C 199.833,483.5 195.167,483.5 190.5,483.5C 190.5,478.833 190.5,474.167 190.5,469.5 Z"/></g>
<g><path style="opacity:1" fill="#000000" d="M 204.5,469.5 C 209.5,469.5 214.5,469.5 219.5,469.5C 219.5,474.167 219.5,478.833 219.5,483.5C 214.5,483.5 209.5,483.5 204.5,483.5C 204.5,478.833 204.5,474.167 204.5,469.5 Z"/></g>
<g><path style="opacity:1" fill="#b48a67" d="M 219.5,469.5 C 224.5,469.5 229.5,469.5 234.5,469.5C 234.5,474.167 234.5,478.833 234.5,483.5C 229.5,483.5 224.5,483.5 219.5,483.5C 219.5,478.833 219.5,474.167 219.5,469.5 Z"/></g>
<g><path style="opacity:1" fill="#5f4936" d="M 263.5,483.5 C 258.5,483.5 253.5,483.5 248.5,483.5C 248.5,478.833 248.5,474.167 248.5,469.5C 253.5,469.5 258.5,469.5 263.5,469.5C 263.5,474.167 263.5,478.833 263.5,483.5 Z"/></g>
<g><path style="opacity:1" fill="#8b6a4f" d="M 351.5,498.5 C 346.833,498.5 342.167,498.5 337.5,498.5C 337.5,493.5 337.5,488.5 337.5,483.5C 332.5,483.5 327.5,483.5 322.5,483.5C 322.5,478.833 322.5,474.167 322.5,469.5C 332.167,469.5 341.833,469.5 351.5,469.5C 351.5,479.167 351.5,488.833 351.5,498.5 Z"/></g>
<g><path style="opacity:1" fill="#000000" d="M 425.5,469.5 C 430.167,469.5 434.833,469.5 439.5,469.5C 439.5,474.167 439.5,478.833 439.5,483.5C 434.833,483.5 430.167,483.5 425.5,483.5C 425.5,478.833 425.5,474.167 425.5,469.5 Z"/></g>
<g><path style="opacity:1" fill="#32271c" d="M 469.5,469.5 C 474.167,469.5 478.833,469.5 483.5,469.5C 483.5,474.167 483.5,478.833 483.5,483.5C 478.833,483.5 474.167,483.5 469.5,483.5C 469.5,478.833 469.5,474.167 469.5,469.5 Z"/></g>
<g><path style="opacity:1" fill="#877d58" d="M 58.5,483.5 C 63.1667,483.5 67.8333,483.5 72.5,483.5C 72.5,488.5 72.5,493.5 72.5,498.5C 67.8333,498.5 63.1667,498.5 58.5,498.5C 58.5,493.5 58.5,488.5 58.5,483.5 Z"/></g>
<g><path style="opacity:1" fill="#998e64" d="M 204.5,483.5 C 209.5,483.5 214.5,483.5 219.5,483.5C 219.5,488.5 219.5,493.5 219.5,498.5C 214.5,498.5 209.5,498.5 204.5,498.5C 204.5,493.5 204.5,488.5 204.5,483.5 Z"/></g>
<g><path style="opacity:1" fill="#241c14" d="M 219.5,483.5 C 224.5,483.5 229.5,483.5 234.5,483.5C 234.5,488.5 234.5,493.5 234.5,498.5C 229.5,498.5 224.5,498.5 219.5,498.5C 219.5,493.5 219.5,488.5 219.5,483.5 Z"/></g>
<g><path style="opacity:1" fill="#413325" d="M 248.5,483.5 C 253.5,483.5 258.5,483.5 263.5,483.5C 263.5,488.5 263.5,493.5 263.5,498.5C 258.5,498.5 253.5,498.5 248.5,498.5C 248.5,493.5 248.5,488.5 248.5,483.5 Z"/></g>
<g><path style="opacity:1" fill="#6e553e" d="M 322.5,483.5 C 327.5,483.5 332.5,483.5 337.5,483.5C 337.5,488.5 337.5,493.5 337.5,498.5C 332.5,498.5 327.5,498.5 322.5,498.5C 322.5,493.5 322.5,488.5 322.5,483.5 Z"/></g>
</svg>
