<?xml version="1.0" encoding="UTF-8"?>
<!DOCTYPE svg PUBLIC "-//W3C//DTD SVG 1.1//EN" "http://www.w3.org/Graphics/SVG/1.1/DTD/svg11.dtd">
<svg xmlns="http://www.w3.org/2000/svg" version="1.1" width="320px" height="320px" style="shape-rendering:geometricPrecision; text-rendering:geometricPrecision; image-rendering:optimizeQuality; fill-rule:evenodd; clip-rule:evenodd" xmlns:xlink="http://www.w3.org/1999/xlink">
<g><path style="opacity:1" fill="#040404" d="M 319.5,58.5 C 319.5,132.5 319.5,206.5 319.5,280.5C 318.167,280.5 316.833,280.5 315.5,280.5C 315.665,283.518 315.498,286.518 315,289.5C 313.644,290.38 312.144,290.714 310.5,290.5C 311.167,294.5 309.5,296.167 305.5,295.5C 305.714,297.144 305.38,298.644 304.5,300C 301.518,300.498 298.518,300.665 295.5,300.5C 295.714,302.144 295.38,303.644 294.5,305C 291.518,305.498 288.518,305.665 285.5,305.5C 285.714,307.144 285.38,308.644 284.5,310C 276.167,310.667 267.833,310.667 259.5,310C 258.62,308.644 258.286,307.144 258.5,305.5C 240.833,305.5 223.167,305.5 205.5,305.5C 205.714,307.144 205.38,308.644 204.5,310C 149.5,310.667 94.5,310.667 39.5,310C 38.6198,308.644 38.2865,307.144 38.5,305.5C 33.8215,305.666 29.1548,305.499 24.5,305C 23.6198,303.644 23.2865,302.144 23.5,300.5C 20.4816,300.665 17.4816,300.498 14.5,300C 13.6198,298.644 13.2865,297.144 13.5,295.5C 11.8561,295.714 10.3561,295.38 9,294.5C 8.50204,291.518 8.33537,288.518 8.5,285.5C 4.5,286.167 2.83333,284.5 3.5,280.5C 2.16667,280.5 0.833333,280.5 -0.5,280.5C -0.5,273.167 -0.5,265.833 -0.5,258.5C 12.5,258.5 25.5,258.5 38.5,258.5C 38.3333,192.166 38.5,125.832 39,59.5C 40.3561,58.6198 41.8561,58.2865 43.5,58.5C 43.2865,56.8561 43.6198,55.3561 44.5,54C 57.8333,53.3333 71.1667,53.3333 84.5,54C 85.3802,55.3561 85.7135,56.8561 85.5,58.5C 86.5,58.5 87.5,58.5 88.5,58.5C 87.8333,54.5 89.5,52.8333 93.5,53.5C 93.3336,45.4931 93.5003,37.4931 94,29.5C 95.3561,28.6198 96.8561,28.2865 98.5,28.5C 98.3354,25.4816 98.502,22.4816 99,19.5C 102.057,18.5495 105.223,18.2161 108.5,18.5C 108.286,16.8561 108.62,15.3561 109.5,14C 117.833,13.3333 126.167,13.3333 134.5,14C 135.38,15.3561 135.714,16.8561 135.5,18.5C 138.518,18.3354 141.518,18.502 144.5,19C 145.38,20.3561 145.714,21.8561 145.5,23.5C 147.144,23.2865 148.644,23.6198 150,24.5C 150.498,27.4816 150.665,30.4816 150.5,33.5C 152.144,33.2865 153.644,33.6198 155,34.5C 155.5,40.8246 155.666,47.1579 155.5,53.5C 190.168,53.3333 224.835,53.5 259.5,54C 260.38,55.3561 260.714,56.8561 260.5,58.5C 266.5,58.5 272.5,58.5 278.5,58.5C 278.286,56.8561 278.62,55.3561 279.5,54C 291.167,53.3333 302.833,53.3333 314.5,54C 315.38,55.3561 315.714,56.8561 315.5,58.5C 316.833,58.5 318.167,58.5 319.5,58.5 Z"/></g>
<g><path style="opacity:1" fill="#4e4947" d="M 124.5,24.5 C 122.833,24.5 121.167,24.5 119.5,24.5C 119.5,22.8333 119.5,21.1667 119.5,19.5C 121.167,19.5 122.833,19.5 124.5,19.5C 124.5,21.1667 124.5,22.8333 124.5,24.5 Z"/></g>
<g><path style="opacity:1" fill="#3c1291" d="M 114.5,24.5 C 114.5,26.1667 114.5,27.8333 114.5,29.5C 112.833,29.5 111.167,29.5 109.5,29.5C 109.5,27.8333 109.5,26.1667 109.5,24.5C 111.167,24.5 112.833,24.5 114.5,24.5 Z"/></g>
<g><path style="opacity:1" fill="#692ce3" d="M 114.5,24.5 C 116.167,24.5 117.833,24.5 119.5,24.5C 121.167,24.5 122.833,24.5 124.5,24.5C 127.833,24.5 131.167,24.5 134.5,24.5C 134.5,26.1667 134.5,27.8333 134.5,29.5C 136.167,29.5 137.833,29.5 139.5,29.5C 139.5,31.1667 139.5,32.8333 139.5,34.5C 139.5,41.1667 139.5,47.8333 139.5,54.5C 137.833,54.5 136.167,54.5 134.5,54.5C 134.5,56.1667 134.5,57.8333 134.5,59.5C 126.167,59.5 117.833,59.5 109.5,59.5C 109.5,57.8333 109.5,56.1667 109.5,54.5C 107.833,54.5 106.167,54.5 104.5,54.5C 104.5,52.8333 104.5,51.1667 104.5,49.5C 104.5,46.1667 104.5,42.8333 104.5,39.5C 104.5,37.8333 104.5,36.1667 104.5,34.5C 106.167,34.5 107.833,34.5 109.5,34.5C 109.5,32.8333 109.5,31.1667 109.5,29.5C 111.167,29.5 112.833,29.5 114.5,29.5C 114.5,27.8333 114.5,26.1667 114.5,24.5 Z"/></g>
<g><path style="opacity:1" fill="#3c1291" d="M 109.5,29.5 C 109.5,31.1667 109.5,32.8333 109.5,34.5C 107.833,34.5 106.167,34.5 104.5,34.5C 104.5,32.8333 104.5,31.1667 104.5,29.5C 106.167,29.5 107.833,29.5 109.5,29.5 Z"/></g>
<g><path style="opacity:1" fill="#2a0e63" d="M 139.5,34.5 C 141.167,34.5 142.833,34.5 144.5,34.5C 144.5,41.1667 144.5,47.8333 144.5,54.5C 142.833,54.5 141.167,54.5 139.5,54.5C 139.5,47.8333 139.5,41.1667 139.5,34.5 Z"/></g>
<g><path style="opacity:1" fill="#3b1290" d="M 104.5,39.5 C 104.5,42.8333 104.5,46.1667 104.5,49.5C 102.833,49.5 101.167,49.5 99.5,49.5C 99.5,46.1667 99.5,42.8333 99.5,39.5C 101.167,39.5 102.833,39.5 104.5,39.5 Z"/></g>
<g><path style="opacity:1" fill="#270d5b" d="M 139.5,54.5 C 139.5,57.8333 139.5,61.1667 139.5,64.5C 129.5,64.5 119.5,64.5 109.5,64.5C 109.5,62.8333 109.5,61.1667 109.5,59.5C 117.833,59.5 126.167,59.5 134.5,59.5C 134.5,57.8333 134.5,56.1667 134.5,54.5C 136.167,54.5 137.833,54.5 139.5,54.5 Z"/></g>
<g><path style="opacity:1" fill="#b2ae8e" d="M 104.5,64.5 C 104.5,66.1667 104.5,67.8333 104.5,69.5C 101.167,69.5 97.8333,69.5 94.5,69.5C 94.5,68.1667 94.5,66.8333 94.5,65.5C 81.1667,65.5 67.8333,65.5 54.5,65.5C 54.5,66.8333 54.5,68.1667 54.5,69.5C 52.8333,69.5 51.1667,69.5 49.5,69.5C 49.5,67.8333 49.5,66.1667 49.5,64.5C 67.8333,64.5 86.1667,64.5 104.5,64.5 Z"/></g>
<g><path style="opacity:1" fill="#fcf7c6" d="M 259.5,64.5 C 266.167,64.5 272.833,64.5 279.5,64.5C 279.5,66.1667 279.5,67.8333 279.5,69.5C 289.167,69.5 298.833,69.5 308.5,69.5C 308.5,137.5 308.5,205.5 308.5,273.5C 306.856,273.286 305.356,273.62 304,274.5C 303.502,277.482 303.335,280.482 303.5,283.5C 299.5,282.833 297.833,284.5 298.5,288.5C 295.482,288.335 292.482,288.502 289.5,289C 288.62,290.356 288.286,291.856 288.5,293.5C 279.167,293.5 269.833,293.5 260.5,293.5C 261.167,289.5 259.5,287.833 255.5,288.5C 256.167,284.5 254.5,282.833 250.5,283.5C 251.167,279.5 249.5,277.833 245.5,278.5C 245.5,274.167 245.5,269.833 245.5,265.5C 250.328,265.615 251.661,263.448 249.5,259C 251.107,257.951 251.773,256.451 251.5,254.5C 245.816,253.426 240.149,253.426 234.5,254.5C 196.167,254.5 157.833,254.5 119.5,254.5C 119.5,256.167 119.5,257.833 119.5,259.5C 112.833,259.5 106.167,259.5 99.5,259.5C 99.5,257.833 99.5,256.167 99.5,254.5C 87.8333,254.5 76.1667,254.5 64.5,254.5C 62.8333,254.5 61.1667,254.5 59.5,254.5C 59.5,252.833 59.5,251.167 59.5,249.5C 56.1667,249.5 52.8333,249.5 49.5,249.5C 49.5,189.5 49.5,129.5 49.5,69.5C 51.1667,69.5 52.8333,69.5 54.5,69.5C 67.8333,69.5 81.1667,69.5 94.5,69.5C 97.8333,69.5 101.167,69.5 104.5,69.5C 106.167,69.5 107.833,69.5 109.5,69.5C 109.5,71.1667 109.5,72.8333 109.5,74.5C 117.833,74.5 126.167,74.5 134.5,74.5C 134.5,72.8333 134.5,71.1667 134.5,69.5C 137.833,69.5 141.167,69.5 144.5,69.5C 144.5,71.1667 144.5,72.8333 144.5,74.5C 146.167,74.5 147.833,74.5 149.5,74.5C 149.5,76.1667 149.5,77.8333 149.5,79.5C 151.167,79.5 152.833,79.5 154.5,79.5C 154.5,81.1667 154.5,82.8333 154.5,84.5C 156.167,84.5 157.833,84.5 159.5,84.5C 159.5,86.1667 159.5,87.8333 159.5,89.5C 161.167,89.5 162.833,89.5 164.5,89.5C 164.5,91.1667 164.5,92.8333 164.5,94.5C 167.833,94.5 171.167,94.5 174.5,94.5C 174.5,92.8333 174.5,91.1667 174.5,89.5C 174.5,87.8333 174.5,86.1667 174.5,84.5C 172.833,84.5 171.167,84.5 169.5,84.5C 169.5,82.8333 169.5,81.1667 169.5,79.5C 167.833,79.5 166.167,79.5 164.5,79.5C 164.5,77.8333 164.5,76.1667 164.5,74.5C 162.833,74.5 161.167,74.5 159.5,74.5C 159.5,72.8333 159.5,71.1667 159.5,69.5C 192.833,69.5 226.167,69.5 259.5,69.5C 259.5,67.8333 259.5,66.1667 259.5,64.5 Z"/></g>
<g><path style="opacity:1" fill="#d2cca4" d="M 94.5,69.5 C 81.1667,69.5 67.8333,69.5 54.5,69.5C 54.5,68.1667 54.5,66.8333 54.5,65.5C 67.8333,65.5 81.1667,65.5 94.5,65.5C 94.5,66.8333 94.5,68.1667 94.5,69.5 Z"/></g>
<g><path style="opacity:1" fill="#55504a" d="M 104.5,64.5 C 106.167,64.5 107.833,64.5 109.5,64.5C 109.5,66.1667 109.5,67.8333 109.5,69.5C 107.833,69.5 106.167,69.5 104.5,69.5C 104.5,67.8333 104.5,66.1667 104.5,64.5 Z"/></g>
<g><path style="opacity:1" fill="#4a4540" d="M 154.5,64.5 C 154.5,66.1667 154.5,67.8333 154.5,69.5C 152.833,69.5 151.167,69.5 149.5,69.5C 149.5,67.8333 149.5,66.1667 149.5,64.5C 151.167,64.5 152.833,64.5 154.5,64.5 Z"/></g>
<g><path style="opacity:1" fill="#cdc7a0" d="M 154.5,64.5 C 189.5,64.5 224.5,64.5 259.5,64.5C 259.5,66.1667 259.5,67.8333 259.5,69.5C 226.167,69.5 192.833,69.5 159.5,69.5C 157.833,69.5 156.167,69.5 154.5,69.5C 154.5,67.8333 154.5,66.1667 154.5,64.5 Z"/></g>
<g><path style="opacity:1" fill="#ccc7a0" d="M 279.5,64.5 C 289.5,64.5 299.5,64.5 309.5,64.5C 309.5,66.1667 309.5,67.8333 309.5,69.5C 309.167,69.5 308.833,69.5 308.5,69.5C 298.833,69.5 289.167,69.5 279.5,69.5C 279.5,67.8333 279.5,66.1667 279.5,64.5 Z"/></g>
<g><path style="opacity:1" fill="#64614d" d="M 154.5,69.5 C 156.167,69.5 157.833,69.5 159.5,69.5C 159.5,71.1667 159.5,72.8333 159.5,74.5C 157.833,74.5 156.167,74.5 154.5,74.5C 154.5,72.8333 154.5,71.1667 154.5,69.5 Z"/></g>
<g><path style="opacity:1" fill="#343127" d="M 309.5,69.5 C 311.167,69.5 312.833,69.5 314.5,69.5C 314.827,79.6806 314.494,89.6806 313.5,99.5C 312.5,99.5 311.5,99.5 310.5,99.5C 309.506,89.6806 309.173,79.6806 309.5,69.5 Z"/></g>
<g><path style="opacity:1" fill="#79766a" d="M 109.5,69.5 C 111.167,69.5 112.833,69.5 114.5,69.5C 114.5,70.8333 114.5,72.1667 114.5,73.5C 119.5,73.5 124.5,73.5 129.5,73.5C 129.5,72.1667 129.5,70.8333 129.5,69.5C 131.167,69.5 132.833,69.5 134.5,69.5C 134.5,71.1667 134.5,72.8333 134.5,74.5C 126.167,74.5 117.833,74.5 109.5,74.5C 109.5,72.8333 109.5,71.1667 109.5,69.5 Z"/></g>
<g><path style="opacity:1" fill="#534e48" d="M 114.5,69.5 C 119.5,69.5 124.5,69.5 129.5,69.5C 129.5,70.8333 129.5,72.1667 129.5,73.5C 124.5,73.5 119.5,73.5 114.5,73.5C 114.5,72.1667 114.5,70.8333 114.5,69.5 Z"/></g>
<g><path style="opacity:1" fill="#64614d" d="M 159.5,74.5 C 161.167,74.5 162.833,74.5 164.5,74.5C 164.5,76.1667 164.5,77.8333 164.5,79.5C 162.833,79.5 161.167,79.5 159.5,79.5C 159.5,77.8333 159.5,76.1667 159.5,74.5 Z"/></g>
<g><path style="opacity:1" fill="#64614d" d="M 164.5,79.5 C 166.167,79.5 167.833,79.5 169.5,79.5C 169.5,81.1667 169.5,82.8333 169.5,84.5C 167.833,84.5 166.167,84.5 164.5,84.5C 164.5,82.8333 164.5,81.1667 164.5,79.5 Z"/></g>
<g><path style="opacity:1" fill="#64614d" d="M 169.5,84.5 C 171.167,84.5 172.833,84.5 174.5,84.5C 174.5,86.1667 174.5,87.8333 174.5,89.5C 172.833,89.5 171.167,89.5 169.5,89.5C 169.5,87.8333 169.5,86.1667 169.5,84.5 Z"/></g>
<g><path style="opacity:1" fill="#000000" d="M 310.5,99.5 C 311.5,99.5 312.5,99.5 313.5,99.5C 313.5,137.833 313.5,176.167 313.5,214.5C 312.5,214.5 311.5,214.5 310.5,214.5C 310.5,176.167 310.5,137.833 310.5,99.5 Z"/></g>
<g><path style="opacity:1" fill="#6e6b54" d="M 194.5,129.5 C 194.5,131.167 194.5,132.833 194.5,134.5C 192.833,134.5 191.167,134.5 189.5,134.5C 187.833,134.5 186.167,134.5 184.5,134.5C 184.5,132.833 184.5,131.167 184.5,129.5C 187.833,129.5 191.167,129.5 194.5,129.5 Z"/></g>
<g><path style="opacity:1" fill="#0a0a08" d="M 119.5,134.5 C 119.5,136.167 119.5,137.833 119.5,139.5C 121.167,139.5 122.833,139.5 124.5,139.5C 124.5,141.167 124.5,142.833 124.5,144.5C 121.167,144.5 117.833,144.5 114.5,144.5C 114.5,146.167 114.5,147.833 114.5,149.5C 112.833,149.5 111.167,149.5 109.5,149.5C 109.5,161.167 109.5,172.833 109.5,184.5C 106.167,184.5 102.833,184.5 99.5,184.5C 99.5,172.833 99.5,161.167 99.5,149.5C 94.5,149.5 89.5,149.5 84.5,149.5C 84.5,147.833 84.5,146.167 84.5,144.5C 82.8333,144.5 81.1667,144.5 79.5,144.5C 79.5,142.833 79.5,141.167 79.5,139.5C 81.1667,139.5 82.8333,139.5 84.5,139.5C 84.5,137.833 84.5,136.167 84.5,134.5C 86.1667,134.5 87.8333,134.5 89.5,134.5C 89.5,132.833 89.5,131.167 89.5,129.5C 91.1667,129.5 92.8333,129.5 94.5,129.5C 94.5,131.167 94.5,132.833 94.5,134.5C 97.8333,134.5 101.167,134.5 104.5,134.5C 104.5,132.833 104.5,131.167 104.5,129.5C 107.833,129.5 111.167,129.5 114.5,129.5C 114.5,131.167 114.5,132.833 114.5,134.5C 116.167,134.5 117.833,134.5 119.5,134.5 Z"/></g>
<g><path style="opacity:1" fill="#0b0a08" d="M 274.5,164.5 C 272.833,164.5 271.167,164.5 269.5,164.5C 269.665,161.482 269.498,158.482 269,155.5C 268.51,156.793 268.343,158.127 268.5,159.5C 267.167,159.5 265.833,159.5 264.5,159.5C 264.5,157.833 264.5,156.167 264.5,154.5C 262.833,154.5 261.167,154.5 259.5,154.5C 259.5,152.833 259.5,151.167 259.5,149.5C 256.167,149.5 252.833,149.5 249.5,149.5C 247.833,149.5 246.167,149.5 244.5,149.5C 244.5,152.833 244.5,156.167 244.5,159.5C 244.5,162.833 244.5,166.167 244.5,169.5C 246.167,169.5 247.833,169.5 249.5,169.5C 249.5,171.167 249.5,172.833 249.5,174.5C 251.167,174.5 252.833,174.5 254.5,174.5C 254.5,176.167 254.5,177.833 254.5,179.5C 257.5,179.5 260.5,179.5 263.5,179.5C 263.5,180.833 263.5,182.167 263.5,183.5C 257.5,183.5 251.5,183.5 245.5,183.5C 245.768,181.901 245.434,180.568 244.5,179.5C 242.833,179.5 241.167,179.5 239.5,179.5C 239.5,177.833 239.5,176.167 239.5,174.5C 239.5,172.833 239.5,171.167 239.5,169.5C 239.5,164.5 239.5,159.5 239.5,154.5C 239.5,152.833 239.5,151.167 239.5,149.5C 239.5,146.167 239.5,142.833 239.5,139.5C 241.167,139.5 242.833,139.5 244.5,139.5C 244.5,137.833 244.5,136.167 244.5,134.5C 247.833,134.5 251.167,134.5 254.5,134.5C 254.5,132.833 254.5,131.167 254.5,129.5C 256.167,129.5 257.833,129.5 259.5,129.5C 259.5,131.167 259.5,132.833 259.5,134.5C 262.833,134.5 266.167,134.5 269.5,134.5C 269.5,136.167 269.5,137.833 269.5,139.5C 271.167,139.5 272.833,139.5 274.5,139.5C 274.5,141.167 274.5,142.833 274.5,144.5C 276.167,144.5 277.833,144.5 279.5,144.5C 279.5,149.5 279.5,154.5 279.5,159.5C 277.833,159.5 276.167,159.5 274.5,159.5C 274.5,161.167 274.5,162.833 274.5,164.5 Z"/></g>
<g><path style="opacity:1" fill="#847f64" d="M 119.5,134.5 C 121.167,134.5 122.833,134.5 124.5,134.5C 124.5,136.167 124.5,137.833 124.5,139.5C 124.5,137.833 124.5,136.167 124.5,134.5C 122.833,134.5 121.167,134.5 119.5,134.5 Z"/></g>
<g><path style="opacity:1" fill="#7c7860" d="M 154.5,139.5 C 149.5,139.5 144.5,139.5 139.5,139.5C 139.5,137.833 139.5,136.167 139.5,134.5C 144.5,134.5 149.5,134.5 154.5,134.5C 154.5,136.167 154.5,137.833 154.5,139.5 Z"/></g>
<g><path style="opacity:1" fill="#858064" d="M 134.5,139.5 C 134.5,141.167 134.5,142.833 134.5,144.5C 132.833,144.5 131.167,144.5 129.5,144.5C 129.5,142.833 129.5,141.167 129.5,139.5C 131.167,139.5 132.833,139.5 134.5,139.5 Z"/></g>
<g><path style="opacity:1" fill="#a19c7d" d="M 154.5,139.5 C 156.167,139.5 157.833,139.5 159.5,139.5C 159.5,141.167 159.5,142.833 159.5,144.5C 159.5,142.833 159.5,141.167 159.5,139.5C 157.833,139.5 156.167,139.5 154.5,139.5 Z"/></g>
<g><path style="opacity:1" fill="#100f0d" d="M 194.5,129.5 C 197.833,129.5 201.167,129.5 204.5,129.5C 204.5,131.167 204.5,132.833 204.5,134.5C 207.833,134.5 211.167,134.5 214.5,134.5C 214.5,136.167 214.5,137.833 214.5,139.5C 216.167,139.5 217.833,139.5 219.5,139.5C 219.5,141.167 219.5,142.833 219.5,144.5C 221.167,144.5 222.833,144.5 224.5,144.5C 224.5,149.5 224.5,154.5 224.5,159.5C 226.167,159.5 227.833,159.5 229.5,159.5C 229.5,161.167 229.5,162.833 229.5,164.5C 227.833,164.5 226.167,164.5 224.5,164.5C 224.5,166.167 224.5,167.833 224.5,169.5C 222.833,169.5 221.167,169.5 219.5,169.5C 219.5,166.167 219.5,162.833 219.5,159.5C 217.833,159.5 216.167,159.5 214.5,159.5C 214.5,157.833 214.5,156.167 214.5,154.5C 212.833,154.5 211.167,154.5 209.5,154.5C 209.5,152.833 209.5,151.167 209.5,149.5C 207.833,149.5 206.167,149.5 204.5,149.5C 204.5,147.833 204.5,146.167 204.5,144.5C 201.167,144.5 197.833,144.5 194.5,144.5C 194.5,154.5 194.5,164.5 194.5,174.5C 199.5,174.5 204.5,174.5 209.5,174.5C 210.833,174.5 212.167,174.5 213.5,174.5C 213.5,175.833 213.5,177.167 213.5,178.5C 211.901,178.232 210.568,178.566 209.5,179.5C 209.5,181.167 209.5,182.833 209.5,184.5C 207.833,184.5 206.167,184.5 204.5,184.5C 199.5,184.5 194.5,184.5 189.5,184.5C 189.5,172.833 189.5,161.167 189.5,149.5C 188.167,149.5 186.833,149.5 185.5,149.5C 185.5,146.167 185.5,142.833 185.5,139.5C 186.833,139.5 188.167,139.5 189.5,139.5C 189.5,137.833 189.5,136.167 189.5,134.5C 191.167,134.5 192.833,134.5 194.5,134.5C 194.5,132.833 194.5,131.167 194.5,129.5 Z"/></g>
<g><path style="opacity:1" fill="#bab692" d="M 124.5,144.5 C 126.167,144.5 127.833,144.5 129.5,144.5C 129.5,146.167 129.5,147.833 129.5,149.5C 127.833,149.5 126.167,149.5 124.5,149.5C 123.566,148.432 123.232,147.099 123.5,145.5C 122.5,145.5 121.5,145.5 120.5,145.5C 120.241,149.068 118.241,150.401 114.5,149.5C 114.5,147.833 114.5,146.167 114.5,144.5C 117.833,144.5 121.167,144.5 124.5,144.5 Z"/></g>
<g><path style="opacity:1" fill="#ada887" d="M 159.5,144.5 C 161.167,144.5 162.833,144.5 164.5,144.5C 164.5,146.167 164.5,147.833 164.5,149.5C 162.833,149.5 161.167,149.5 159.5,149.5C 159.5,147.833 159.5,146.167 159.5,144.5 Z"/></g>
<g><path style="opacity:1" fill="#e8e4b8" d="M 214.5,159.5 C 214.5,162.833 214.5,166.167 214.5,169.5C 212.833,169.5 211.167,169.5 209.5,169.5C 209.5,171.167 209.5,172.833 209.5,174.5C 204.5,174.5 199.5,174.5 194.5,174.5C 194.5,164.5 194.5,154.5 194.5,144.5C 197.833,144.5 201.167,144.5 204.5,144.5C 204.5,146.167 204.5,147.833 204.5,149.5C 206.167,149.5 207.833,149.5 209.5,149.5C 209.5,151.167 209.5,152.833 209.5,154.5C 211.167,154.5 212.833,154.5 214.5,154.5C 214.5,156.167 214.5,157.833 214.5,159.5 Z"/></g>
<g><path style="opacity:1" fill="#11100e" d="M 134.5,139.5 C 136.167,139.5 137.833,139.5 139.5,139.5C 144.5,139.5 149.5,139.5 154.5,139.5C 154.5,141.167 154.5,142.833 154.5,144.5C 156.167,144.5 157.833,144.5 159.5,144.5C 159.5,146.167 159.5,147.833 159.5,149.5C 160.568,150.434 161.901,150.768 163.5,150.5C 163.5,156.5 163.5,162.5 163.5,168.5C 162.167,168.5 160.833,168.5 159.5,168.5C 159.5,163.833 159.5,159.167 159.5,154.5C 157.833,154.5 156.167,154.5 154.5,154.5C 154.5,152.833 154.5,151.167 154.5,149.5C 152.833,149.5 151.167,149.5 149.5,149.5C 149.5,147.833 149.5,146.167 149.5,144.5C 146.167,144.5 142.833,144.5 139.5,144.5C 139.5,146.167 139.5,147.833 139.5,149.5C 137.833,149.5 136.167,149.5 134.5,149.5C 134.5,156.167 134.5,162.833 134.5,169.5C 136.167,169.5 137.833,169.5 139.5,169.5C 139.5,171.167 139.5,172.833 139.5,174.5C 139.5,176.167 139.5,177.833 139.5,179.5C 144.167,179.5 148.833,179.5 153.5,179.5C 153.5,180.833 153.5,182.167 153.5,183.5C 147.5,183.5 141.5,183.5 135.5,183.5C 135.768,181.901 135.434,180.568 134.5,179.5C 132.833,179.5 131.167,179.5 129.5,179.5C 129.5,177.833 129.5,176.167 129.5,174.5C 129.5,172.833 129.5,171.167 129.5,169.5C 129.5,167.833 129.5,166.167 129.5,164.5C 128.167,164.5 126.833,164.5 125.5,164.5C 125.5,162.833 125.5,161.167 125.5,159.5C 126.833,159.5 128.167,159.5 129.5,159.5C 129.5,156.167 129.5,152.833 129.5,149.5C 129.5,147.833 129.5,146.167 129.5,144.5C 131.167,144.5 132.833,144.5 134.5,144.5C 134.5,142.833 134.5,141.167 134.5,139.5 Z"/></g>
<g><path style="opacity:1" fill="#a09b7c" d="M 149.5,149.5 C 146.167,149.5 142.833,149.5 139.5,149.5C 139.5,147.833 139.5,146.167 139.5,144.5C 142.833,144.5 146.167,144.5 149.5,144.5C 149.5,146.167 149.5,147.833 149.5,149.5 Z"/></g>
<g><path style="opacity:1" fill="#ebe7bb" d="M 139.5,149.5 C 142.833,149.5 146.167,149.5 149.5,149.5C 151.167,149.5 152.833,149.5 154.5,149.5C 154.5,151.167 154.5,152.833 154.5,154.5C 154.5,159.5 154.5,164.5 154.5,169.5C 152.833,169.5 151.167,169.5 149.5,169.5C 149.5,171.167 149.5,172.833 149.5,174.5C 146.167,174.5 142.833,174.5 139.5,174.5C 139.5,172.833 139.5,171.167 139.5,169.5C 137.833,169.5 136.167,169.5 134.5,169.5C 134.5,162.833 134.5,156.167 134.5,149.5C 136.167,149.5 137.833,149.5 139.5,149.5 Z"/></g>
<g><path style="opacity:1" fill="#343127" d="M 184.5,134.5 C 186.167,134.5 187.833,134.5 189.5,134.5C 189.5,136.167 189.5,137.833 189.5,139.5C 188.167,139.5 186.833,139.5 185.5,139.5C 185.5,142.833 185.5,146.167 185.5,149.5C 186.833,149.5 188.167,149.5 189.5,149.5C 189.5,161.167 189.5,172.833 189.5,184.5C 187.833,184.5 186.167,184.5 184.5,184.5C 184.5,167.833 184.5,151.167 184.5,134.5 Z"/></g>
<g><path style="opacity:1" fill="#b2ad8a" d="M 249.5,149.5 C 249.5,152.833 249.5,156.167 249.5,159.5C 247.833,159.5 246.167,159.5 244.5,159.5C 244.5,156.167 244.5,152.833 244.5,149.5C 246.167,149.5 247.833,149.5 249.5,149.5 Z"/></g>
<g><path style="opacity:1" fill="#eeeabe" d="M 249.5,149.5 C 252.833,149.5 256.167,149.5 259.5,149.5C 259.5,151.167 259.5,152.833 259.5,154.5C 261.167,154.5 262.833,154.5 264.5,154.5C 264.5,156.167 264.5,157.833 264.5,159.5C 264.5,162.833 264.5,166.167 264.5,169.5C 262.833,169.5 261.167,169.5 259.5,169.5C 259.5,171.167 259.5,172.833 259.5,174.5C 257.833,174.5 256.167,174.5 254.5,174.5C 252.833,174.5 251.167,174.5 249.5,174.5C 249.5,172.833 249.5,171.167 249.5,169.5C 247.833,169.5 246.167,169.5 244.5,169.5C 244.5,166.167 244.5,162.833 244.5,159.5C 246.167,159.5 247.833,159.5 249.5,159.5C 249.5,156.167 249.5,152.833 249.5,149.5 Z"/></g>
<g><path style="opacity:1" fill="#3e3b30" d="M 124.5,149.5 C 126.167,149.5 127.833,149.5 129.5,149.5C 129.5,152.833 129.5,156.167 129.5,159.5C 128.167,159.5 126.833,159.5 125.5,159.5C 125.5,161.167 125.5,162.833 125.5,164.5C 126.833,164.5 128.167,164.5 129.5,164.5C 129.5,166.167 129.5,167.833 129.5,169.5C 127.833,169.5 126.167,169.5 124.5,169.5C 124.5,162.833 124.5,156.167 124.5,149.5 Z"/></g>
<g><path style="opacity:1" fill="#5f5b48" d="M 239.5,149.5 C 239.5,151.167 239.5,152.833 239.5,154.5C 238.167,154.5 236.833,154.5 235.5,154.5C 235.5,159.5 235.5,164.5 235.5,169.5C 236.833,169.5 238.167,169.5 239.5,169.5C 239.5,171.167 239.5,172.833 239.5,174.5C 237.833,174.5 236.167,174.5 234.5,174.5C 234.5,166.167 234.5,157.833 234.5,149.5C 236.167,149.5 237.833,149.5 239.5,149.5 Z"/></g>
<g><path style="opacity:1" fill="#322f26" d="M 239.5,154.5 C 239.5,159.5 239.5,164.5 239.5,169.5C 238.167,169.5 236.833,169.5 235.5,169.5C 235.5,164.5 235.5,159.5 235.5,154.5C 236.833,154.5 238.167,154.5 239.5,154.5 Z"/></g>
<g><path style="opacity:1" fill="#827d62" d="M 124.5,169.5 C 126.167,169.5 127.833,169.5 129.5,169.5C 129.5,171.167 129.5,172.833 129.5,174.5C 127.833,174.5 126.167,174.5 124.5,174.5C 124.5,172.833 124.5,171.167 124.5,169.5 Z"/></g>
<g><path style="opacity:1" fill="#27251e" d="M 214.5,159.5 C 216.167,159.5 217.833,159.5 219.5,159.5C 219.5,162.833 219.5,166.167 219.5,169.5C 219.5,171.167 219.5,172.833 219.5,174.5C 217.833,174.5 216.167,174.5 214.5,174.5C 214.5,176.167 214.5,177.833 214.5,179.5C 212.833,179.5 211.167,179.5 209.5,179.5C 210.568,178.566 211.901,178.232 213.5,178.5C 213.5,177.167 213.5,175.833 213.5,174.5C 212.167,174.5 210.833,174.5 209.5,174.5C 209.5,172.833 209.5,171.167 209.5,169.5C 211.167,169.5 212.833,169.5 214.5,169.5C 214.5,166.167 214.5,162.833 214.5,159.5 Z"/></g>
<g><path style="opacity:1" fill="#27251e" d="M 274.5,164.5 C 274.5,167.833 274.5,171.167 274.5,174.5C 272.833,174.5 271.167,174.5 269.5,174.5C 269.5,176.167 269.5,177.833 269.5,179.5C 267.833,179.5 266.167,179.5 264.5,179.5C 264.5,181.167 264.5,182.833 264.5,184.5C 259.5,184.5 254.5,184.5 249.5,184.5C 247.833,184.5 246.167,184.5 244.5,184.5C 244.5,182.833 244.5,181.167 244.5,179.5C 245.434,180.568 245.768,181.901 245.5,183.5C 251.5,183.5 257.5,183.5 263.5,183.5C 263.5,182.167 263.5,180.833 263.5,179.5C 260.5,179.5 257.5,179.5 254.5,179.5C 254.5,177.833 254.5,176.167 254.5,174.5C 256.167,174.5 257.833,174.5 259.5,174.5C 259.5,172.833 259.5,171.167 259.5,169.5C 261.167,169.5 262.833,169.5 264.5,169.5C 264.5,166.167 264.5,162.833 264.5,159.5C 265.833,159.5 267.167,159.5 268.5,159.5C 268.343,158.127 268.51,156.793 269,155.5C 269.498,158.482 269.665,161.482 269.5,164.5C 271.167,164.5 272.833,164.5 274.5,164.5 Z"/></g>
<g><path style="opacity:1" fill="#ada787" d="M 164.5,169.5 C 164.5,172.833 164.5,176.167 164.5,179.5C 162.833,179.5 161.167,179.5 159.5,179.5C 159.5,176.167 159.5,172.833 159.5,169.5C 161.167,169.5 162.833,169.5 164.5,169.5 Z"/></g>
<g><path style="opacity:1" fill="#b7b38f" d="M 219.5,169.5 C 221.167,169.5 222.833,169.5 224.5,169.5C 224.5,172.833 224.5,176.167 224.5,179.5C 221.167,179.5 217.833,179.5 214.5,179.5C 214.5,177.833 214.5,176.167 214.5,174.5C 216.167,174.5 217.833,174.5 219.5,174.5C 219.5,172.833 219.5,171.167 219.5,169.5 Z"/></g>
<g><path style="opacity:1" fill="#25241d" d="M 159.5,149.5 C 161.167,149.5 162.833,149.5 164.5,149.5C 164.5,156.167 164.5,162.833 164.5,169.5C 162.833,169.5 161.167,169.5 159.5,169.5C 159.5,172.833 159.5,176.167 159.5,179.5C 157.833,179.5 156.167,179.5 154.5,179.5C 154.5,181.167 154.5,182.833 154.5,184.5C 152.833,184.5 151.167,184.5 149.5,184.5C 146.167,184.5 142.833,184.5 139.5,184.5C 137.833,184.5 136.167,184.5 134.5,184.5C 134.5,182.833 134.5,181.167 134.5,179.5C 135.434,180.568 135.768,181.901 135.5,183.5C 141.5,183.5 147.5,183.5 153.5,183.5C 153.5,182.167 153.5,180.833 153.5,179.5C 148.833,179.5 144.167,179.5 139.5,179.5C 139.5,177.833 139.5,176.167 139.5,174.5C 142.833,174.5 146.167,174.5 149.5,174.5C 149.5,172.833 149.5,171.167 149.5,169.5C 151.167,169.5 152.833,169.5 154.5,169.5C 154.5,164.5 154.5,159.5 154.5,154.5C 156.167,154.5 157.833,154.5 159.5,154.5C 159.5,159.167 159.5,163.833 159.5,168.5C 160.833,168.5 162.167,168.5 163.5,168.5C 163.5,162.5 163.5,156.5 163.5,150.5C 161.901,150.768 160.568,150.434 159.5,149.5 Z"/></g>
<g><path style="opacity:1" fill="#a19c7d" d="M 159.5,179.5 C 159.5,181.167 159.5,182.833 159.5,184.5C 157.833,184.5 156.167,184.5 154.5,184.5C 154.5,182.833 154.5,181.167 154.5,179.5C 156.167,179.5 157.833,179.5 159.5,179.5 Z"/></g>
<g><path style="opacity:1" fill="#c7c29b" d="M 99.5,184.5 C 102.833,184.5 106.167,184.5 109.5,184.5C 109.5,186.167 109.5,187.833 109.5,189.5C 106.167,189.5 102.833,189.5 99.5,189.5C 99.5,187.833 99.5,186.167 99.5,184.5 Z"/></g>
<g><path style="opacity:1" fill="#b4ae8c" d="M 139.5,184.5 C 142.833,184.5 146.167,184.5 149.5,184.5C 149.5,186.167 149.5,187.833 149.5,189.5C 146.167,189.5 142.833,189.5 139.5,189.5C 139.5,187.833 139.5,186.167 139.5,184.5 Z"/></g>
<g><path style="opacity:1" fill="#c0bc96" d="M 189.5,184.5 C 194.5,184.5 199.5,184.5 204.5,184.5C 204.5,186.167 204.5,187.833 204.5,189.5C 199.5,189.5 194.5,189.5 189.5,189.5C 189.5,187.833 189.5,186.167 189.5,184.5 Z"/></g>
<g><path style="opacity:1" fill="#c4bf99" d="M 249.5,184.5 C 254.5,184.5 259.5,184.5 264.5,184.5C 264.5,186.167 264.5,187.833 264.5,189.5C 259.5,189.5 254.5,189.5 249.5,189.5C 249.5,187.833 249.5,186.167 249.5,184.5 Z"/></g>
<g><path style="opacity:1" fill="#847f63" d="M 134.5,199.5 C 134.5,201.167 134.5,202.833 134.5,204.5C 132.833,204.5 131.167,204.5 129.5,204.5C 129.5,202.833 129.5,201.167 129.5,199.5C 131.167,199.5 132.833,199.5 134.5,199.5 Z"/></g>
<g><path style="opacity:1" fill="#726e57" d="M 219.5,199.5 C 226.167,199.5 232.833,199.5 239.5,199.5C 239.5,201.167 239.5,202.833 239.5,204.5C 232.833,204.5 226.167,204.5 219.5,204.5C 219.5,202.833 219.5,201.167 219.5,199.5 Z"/></g>
<g><path style="opacity:1" fill="#080706" d="M 134.5,199.5 C 137.833,199.5 141.167,199.5 144.5,199.5C 144.5,201.167 144.5,202.833 144.5,204.5C 166.167,204.5 187.833,204.5 209.5,204.5C 209.5,202.833 209.5,201.167 209.5,199.5C 212.833,199.5 216.167,199.5 219.5,199.5C 219.5,201.167 219.5,202.833 219.5,204.5C 226.167,204.5 232.833,204.5 239.5,204.5C 239.5,206.167 239.5,207.833 239.5,209.5C 232.833,209.5 226.167,209.5 219.5,209.5C 219.5,211.167 219.5,212.833 219.5,214.5C 216.167,214.5 212.833,214.5 209.5,214.5C 209.5,212.833 209.5,211.167 209.5,209.5C 187.833,209.5 166.167,209.5 144.5,209.5C 144.5,211.167 144.5,212.833 144.5,214.5C 141.167,214.5 137.833,214.5 134.5,214.5C 134.5,212.833 134.5,211.167 134.5,209.5C 132.833,209.5 131.167,209.5 129.5,209.5C 129.5,207.833 129.5,206.167 129.5,204.5C 131.167,204.5 132.833,204.5 134.5,204.5C 134.5,202.833 134.5,201.167 134.5,199.5 Z"/></g>
<g><path style="opacity:1" fill="#6f6b55" d="M 144.5,199.5 C 166.167,199.5 187.833,199.5 209.5,199.5C 209.5,201.167 209.5,202.833 209.5,204.5C 187.833,204.5 166.167,204.5 144.5,204.5C 144.5,202.833 144.5,201.167 144.5,199.5 Z"/></g>
<g><path style="opacity:1" fill="#b2ac8b" d="M 209.5,214.5 C 187.833,214.5 166.167,214.5 144.5,214.5C 144.5,212.833 144.5,211.167 144.5,209.5C 166.167,209.5 187.833,209.5 209.5,209.5C 209.5,211.167 209.5,212.833 209.5,214.5 Z"/></g>
<g><path style="opacity:1" fill="#b8b28f" d="M 239.5,209.5 C 239.5,211.167 239.5,212.833 239.5,214.5C 232.833,214.5 226.167,214.5 219.5,214.5C 219.5,212.833 219.5,211.167 219.5,209.5C 226.167,209.5 232.833,209.5 239.5,209.5 Z"/></g>
<g><path style="opacity:1" fill="#343027" d="M 310.5,214.5 C 311.5,214.5 312.5,214.5 313.5,214.5C 314.496,227.656 314.829,240.99 314.5,254.5C 312.833,254.5 311.167,254.5 309.5,254.5C 309.171,240.99 309.504,227.656 310.5,214.5 Z"/></g>
<g><path style="opacity:1" fill="#8a856a" d="M 214.5,229.5 C 212.833,229.5 211.167,229.5 209.5,229.5C 209.5,228.167 209.5,226.833 209.5,225.5C 187.833,225.5 166.167,225.5 144.5,225.5C 144.5,226.833 144.5,228.167 144.5,229.5C 142.833,229.5 141.167,229.5 139.5,229.5C 139.5,227.833 139.5,226.167 139.5,224.5C 164.5,224.5 189.5,224.5 214.5,224.5C 214.5,226.167 214.5,227.833 214.5,229.5 Z"/></g>
<g><path style="opacity:1" fill="#6c6853" d="M 209.5,229.5 C 187.833,229.5 166.167,229.5 144.5,229.5C 144.5,228.167 144.5,226.833 144.5,225.5C 166.167,225.5 187.833,225.5 209.5,225.5C 209.5,226.833 209.5,228.167 209.5,229.5 Z"/></g>
<g><path style="opacity:1" fill="#080806" d="M 139.5,229.5 C 141.167,229.5 142.833,229.5 144.5,229.5C 166.167,229.5 187.833,229.5 209.5,229.5C 211.167,229.5 212.833,229.5 214.5,229.5C 214.5,231.167 214.5,232.833 214.5,234.5C 189.5,234.5 164.5,234.5 139.5,234.5C 139.5,232.833 139.5,231.167 139.5,229.5 Z"/></g>
<g><path style="opacity:1" fill="#afaa88" d="M 139.5,234.5 C 164.5,234.5 189.5,234.5 214.5,234.5C 214.5,236.167 214.5,237.833 214.5,239.5C 189.5,239.5 164.5,239.5 139.5,239.5C 139.5,237.833 139.5,236.167 139.5,234.5 Z"/></g>
<g><path style="opacity:1" fill="#6f6b55" d="M 64.5,254.5 C 76.1667,254.5 87.8333,254.5 99.5,254.5C 99.5,256.167 99.5,257.833 99.5,259.5C 87.8333,259.5 76.1667,259.5 64.5,259.5C 64.5,257.833 64.5,256.167 64.5,254.5 Z"/></g>
<g><path style="opacity:1" fill="#716d57" d="M 234.5,254.5 C 234.5,256.167 234.5,257.833 234.5,259.5C 196.167,259.5 157.833,259.5 119.5,259.5C 119.5,257.833 119.5,256.167 119.5,254.5C 157.833,254.5 196.167,254.5 234.5,254.5 Z"/></g>
<g><path style="opacity:1" fill="#9e9058" d="M 219.5,269.5 C 166.167,269.5 112.833,269.5 59.5,269.5C 59.5,267.833 59.5,266.167 59.5,264.5C 112.833,264.5 166.167,264.5 219.5,264.5C 219.5,266.167 219.5,267.833 219.5,269.5 Z"/></g>
<g><path style="opacity:1" fill="#fdef88" d="M 59.5,269.5 C 112.833,269.5 166.167,269.5 219.5,269.5C 222.287,270.477 225.287,270.81 228.5,270.5C 228.5,271.833 228.5,273.167 228.5,274.5C 157.167,274.5 85.8333,274.5 14.5,274.5C 14.5,273.167 14.5,271.833 14.5,270.5C 29.676,270.829 44.676,270.496 59.5,269.5 Z"/></g>
<g><path style="opacity:1" fill="#fbe080" d="M 14.5,274.5 C 85.8333,274.5 157.167,274.5 228.5,274.5C 229.487,279.305 229.821,284.305 229.5,289.5C 163.167,289.5 96.8333,289.5 30.5,289.5C 26.8333,289.5 23.1667,289.5 19.5,289.5C 19.5,288.167 19.5,286.833 19.5,285.5C 17.8333,285.5 16.1667,285.5 14.5,285.5C 14.5,281.833 14.5,278.167 14.5,274.5 Z"/></g>
<g><path style="opacity:1" fill="#fdef88" d="M 30.5,289.5 C 96.8333,289.5 163.167,289.5 229.5,289.5C 232.833,289.5 236.167,289.5 239.5,289.5C 239.714,291.144 239.38,292.644 238.5,294C 235.518,294.498 232.518,294.665 229.5,294.5C 167.833,294.5 106.167,294.5 44.5,294.5C 40.03,293.514 35.3633,293.181 30.5,293.5C 30.5,292.167 30.5,290.833 30.5,289.5 Z"/></g>
<g><path style="opacity:1" fill="#7f7040" d="M 44.5,294.5 C 106.167,294.5 167.833,294.5 229.5,294.5C 229.5,296.167 229.5,297.833 229.5,299.5C 166.167,299.5 102.833,299.5 39.5,299.5C 39.5,297.833 39.5,296.167 39.5,294.5C 41.1667,294.5 42.8333,294.5 44.5,294.5 Z"/></g>
</svg>
